<?xml version="1.0" encoding="UTF-8" standalone="no"?>
<svg
   xmlns:dc="http://purl.org/dc/elements/1.1/"
   xmlns:cc="http://creativecommons.org/ns#"
   xmlns:rdf="http://www.w3.org/1999/02/22-rdf-syntax-ns#"
   xmlns:svg="http://www.w3.org/2000/svg"
   xmlns="http://www.w3.org/2000/svg"
   xmlns:sodipodi="http://sodipodi.sourceforge.net/DTD/sodipodi-0.dtd"
   xmlns:inkscape="http://www.inkscape.org/namespaces/inkscape"
   version="1.1"
   id="svg2785"
   xml:space="preserve"
   width="670"
   height="480"
   viewBox="0 0 670 480"
   sodipodi:docname="calendar.svg"
   inkscape:version="1.0.2 (394de47547, 2021-03-26)"><metadata
     id="metadata2791"><rdf:RDF><cc:Work
         rdf:about=""><dc:format>image/svg+xml</dc:format><dc:type
           rdf:resource="http://purl.org/dc/dcmitype/StillImage" /><dc:title></dc:title></cc:Work></rdf:RDF></metadata><defs
     id="defs2789" /><sodipodi:namedview
     pagecolor="#ffffff"
     bordercolor="#666666"
     borderopacity="1"
     objecttolerance="10"
     gridtolerance="10"
     guidetolerance="10"
     inkscape:pageopacity="0"
     inkscape:pageshadow="2"
     inkscape:window-width="1528"
     inkscape:window-height="837"
     id="namedview2787"
     showgrid="false"
     inkscape:zoom="0.48317823"
     inkscape:cx="489.83939"
     inkscape:cy="274.29568"
     inkscape:window-x="72"
     inkscape:window-y="26"
     inkscape:window-maximized="1"
     inkscape:current-layer="g2793"
     inkscape:document-rotation="0" /><g
     id="g2793"
     inkscape:groupmode="layer"
     inkscape:label="ink_ext_XXXXXX"
     transform="matrix(1.3333333,0,0,-1.3333333,0,707.81333)"><g
       id="g3852"
       transform="matrix(-1.0200473,0,0,1,511.2153,2.4987013)"><path
         d="m 261.62544,524.50729 c 119.83325,0 216.97717,-97.14392 216.97717,-216.97821 0,-47.37841 -15.19439,-91.20457 -40.96701,-126.88816 H 85.616834 c -25.770768,35.68359 -40.967331,79.50975 -40.967331,126.88816 0,119.83429 97.142687,216.97821 216.975937,216.97821"
         style="fill:#9ac421;fill-opacity:1;fill-rule:evenodd;stroke:none;stroke-width:0.103293"
         id="path2241" /><path
         d="m 261.62544,172.21532 c 129.50457,0 235.13091,3.78465 235.13091,8.4256 0,4.64096 -105.62634,8.42561 -235.13091,8.42561 -129.50147,0 -235.126471,-3.78465 -235.126471,-8.42561 0,-4.64095 105.625001,-8.4256 235.126471,-8.4256"
         style="fill:#463d3b;fill-opacity:1;fill-rule:evenodd;stroke:none;stroke-width:0.103293"
         id="path2243" /><path
         d="M 436.65431,454.70295 H 146.63353 L 186.32385,180.64092 H 476.3405 l -39.68619,274.06203"
         style="fill:#949595;fill-opacity:1;fill-rule:evenodd;stroke:none;stroke-width:0.103293"
         id="path2245" /><path
         d="M 146.63353,454.70295 H 436.65431 L 396.96503,180.64092 h -290.0182 l 39.6867,274.06203"
         style="fill:#fef0d3;fill-opacity:1;fill-rule:evenodd;stroke:none;stroke-width:0.103293"
         id="path2247" /><path
         d="m 146.63353,454.70295 h 290.02078 l -6.01268,-41.5217 H 140.62188 l 6.01165,41.5217"
         style="fill:#4ba6ce;fill-opacity:1;fill-rule:evenodd;stroke:none;stroke-width:0.103293"
         id="path2249" /><path
         d="m 337.58294,352.3479 c 9.80251,0 19.57712,0 29.37859,0 -1.1951,-8.27893 -2.39433,-16.55683 -3.58943,-24.78825 -9.80147,0 -19.57712,0 -29.34966,0 1.16721,8.23142 2.36541,16.53307 3.5605,24.78825 z m 32.71908,-34.81076 c 9.8025,0 19.57711,0 29.37858,0 -1.1951,-8.25621 -2.3902,-16.50931 -3.58633,-24.78928 -9.77564,0 -19.57815,0 -29.35276,0 1.19923,8.27997 2.39433,16.53307 3.56051,24.78928 z m -37.72982,0 c 9.77255,0 19.54613,0 29.34863,0 -1.1951,-8.25621 -2.3902,-16.50931 -3.58943,-24.78928 -9.77461,0 -19.57608,0 -29.35069,0 1.20026,8.27997 2.39433,16.53307 3.59149,24.78928 z m 32.71908,-34.81076 c 9.77151,0 19.57608,0 29.34966,0 -1.1951,-8.25724 -2.39123,-16.51138 -3.5853,-24.76655 -9.77461,0 -19.57608,0 -29.34966,0 1.19407,8.25517 2.3902,16.50931 3.5853,24.76655 z m -37.76081,0 c 9.77462,0 19.57505,0 29.3507,0 -1.1951,-8.25724 -2.39123,-16.51138 -3.58633,-24.76655 -9.77462,0 -19.57712,0 -29.3507,0 1.1951,8.25517 2.3902,16.50931 3.58633,24.76655 z m 52.85294,104.41058 c 9.8025,0 19.54819,0 29.37858,0 -1.19819,-8.27893 -2.39433,-16.53513 -3.58943,-24.78927 -9.83142,0 -19.57608,0 -29.37961,0 1.19613,8.27996 2.39123,16.51034 3.59046,24.78927 z m -37.75977,0.0217 c 9.8025,0 19.57505,0 29.37858,-0.0217 -1.20026,-8.27893 -2.39433,-16.50931 -3.59046,-24.78927 -9.80147,0 -19.57608,0.0227 -29.37755,0.0227 1.19613,8.25724 2.3902,16.48762 3.58943,24.78824 z m 32.71908,-34.83245 c 9.80353,0 19.57608,0 29.37754,0 -1.19509,-8.25723 -2.39226,-16.53513 -3.58943,-24.78927 -9.80146,0 -19.57504,0.0227 -29.37858,0.0227 1.19717,8.23142 2.39537,16.50932 3.59047,24.76655 v 0"
         style="fill:#58b6dc;fill-opacity:1;fill-rule:evenodd;stroke:none;stroke-width:0.103293"
         id="path2251" /><path
         d="m 262.09129,352.3479 c 9.80457,0 19.57711,0 29.37962,0 -1.19614,-8.25518 -2.3964,-16.53204 -3.5915,-24.78825 -9.80147,0 -19.57401,0 -29.37755,0 1.1951,8.25621 2.39433,16.53307 3.58943,24.78825 z m -37.75874,0 c 9.80147,0 19.57505,0 29.37755,0 -1.19613,-8.25518 -2.39433,-16.53204 -3.58943,-24.78825 -9.80353,0 -19.57608,0 -29.37858,0 1.19613,8.25621 2.39433,16.53307 3.59046,24.78825 z m -75.49165,0 c 9.77461,0 19.57815,0 29.35069,0 -1.19716,-8.25518 -2.39743,-16.53204 -3.59149,-24.78825 -9.77358,0 -19.57608,0 -29.34966,0 1.1951,8.25621 2.39433,16.53307 3.59046,24.78825 z m 145.96947,-34.81076 c 9.80146,0 19.57608,0 29.37755,0 -1.1951,-8.25621 -2.38814,-16.50931 -3.58737,-24.78928 -9.8025,0 -19.57608,0 -29.37858,0 1.1982,8.27997 2.3933,16.53307 3.5884,24.78928 z m -37.75977,0 c 9.80146,0 19.57711,0 29.37858,0 -1.1951,-8.25621 -2.39124,-16.50931 -3.59047,-24.78928 -9.8025,0 -19.57608,0 -29.37754,0 1.19923,8.27997 2.39433,16.53307 3.58943,24.78928 z m -37.76184,0 c 9.80353,0 19.57711,0 29.37858,0 -1.19303,-8.25621 -2.38813,-16.50931 -3.58736,-24.78928 -9.80354,0 -19.57712,0 -29.37962,0 1.19923,8.27997 2.39433,16.53307 3.5884,24.78928 z m -75.48959,0 c 9.77255,0 19.57505,0 29.34966,0 -1.19613,-8.25621 -2.39226,-16.50931 -3.5915,-24.78928 -9.77358,0 -19.57504,0 -29.34862,0 1.1982,8.27997 2.3933,16.53307 3.59046,24.78928 z m 145.9705,-34.81076 c 9.8025,0 19.57608,0 29.37961,0 -1.19716,-8.25724 -2.39226,-16.51138 -3.58633,-24.76655 -9.80146,0 -19.57711,0 -29.37961,0 1.19613,8.25517 2.39123,16.50931 3.58633,24.76655 z m -37.7608,0 c 9.8025,0 19.57711,0 29.37961,0 -1.1951,-8.25724 -2.3902,-16.51138 -3.58736,-24.76655 -9.8025,0 -19.57712,0 -29.37858,0 1.19509,8.25517 2.39123,16.50931 3.58633,24.76655 z m -37.76081,0 c 9.8025,0 19.57815,0 29.37858,0 -1.1951,-8.25724 -2.39123,-16.51138 -3.58529,-24.76655 -9.80354,0 -19.60501,0 -29.37859,-0.0227 1.19407,8.2779 2.38917,16.53204 3.5853,24.78928 z m -75.49165,0 c 9.74466,0 19.57608,0 29.32074,0 -1.19717,-8.25724 -2.39124,-16.51138 -3.5853,-24.78928 -9.74673,0 -19.57918,0 -29.32384,0 1.19613,8.25518 2.39227,16.53204 3.5884,24.78928 z m 145.97153,-34.81076 c 9.80354,0 19.57711,0 29.38065,0 -1.1951,-8.25517 -2.39227,-16.51138 -3.58633,-24.76655 -9.8025,0 -19.57712,0 -29.37962,0 1.1951,8.25517 2.39227,16.51138 3.5853,24.76655 z m -37.75977,0 c 9.80147,0 19.57505,0 29.37961,0 -1.19613,-8.25517 -2.39123,-16.51138 -3.58736,-24.76655 -9.80353,0 -19.57608,0 -29.37961,0 1.19613,8.25517 2.39226,16.51138 3.58736,24.76655 z m -37.7608,-0.0227 c 9.77254,0 19.57608,0.0227 29.37961,0.0227 -1.19613,-8.25517 -2.39123,-16.51138 -3.5884,-24.76655 -9.80043,0 -19.605,0 -29.37858,0 1.1951,8.25517 2.39123,16.51138 3.58737,24.74383 z m -75.49372,0 c 9.74465,0 19.54819,0 29.32177,0 -1.19614,-8.23245 -2.39227,-16.51138 -3.58737,-24.74383 -9.77461,0 -19.57608,0 -29.32073,-0.0238 1.19613,8.25621 2.39123,16.51035 3.58633,24.76759 z m 37.73188,0 c 9.77461,0 19.60603,0 29.35069,0 -1.1951,-8.23245 -2.39123,-16.48866 -3.5884,-24.74383 -9.74362,0 -19.57401,0 -29.34966,0 1.19614,8.23245 2.39124,16.51138 3.58737,24.74383 z m 5.0407,34.83348 c 9.8025,0 19.60603,0 29.38064,0 -1.19613,-8.25724 -2.39123,-16.51138 -3.61732,-24.78928 -9.74259,0 -19.57401,0 -29.34862,0 1.19613,8.2779 2.39123,16.53204 3.5853,24.78928 z m 5.04379,34.81076 c 9.80353,0 19.605,0 29.37755,0 -1.1951,-8.25621 -2.38917,-16.50931 -3.5884,-24.78928 -9.77358,0 -19.57711,0 -29.38065,0 1.19924,8.27997 2.3964,16.53307 3.5915,24.78928 z m 123.3638,69.62151 c 9.80044,0 19.54716,0 29.37755,0 -1.19923,-8.30062 -2.39536,-16.531 -3.58943,-24.78824 -9.83142,0 -19.57608,0 -29.37858,0 1.1951,8.25724 2.39123,16.51241 3.59046,24.78824 z m -37.76183,0 c 9.80353,0 19.57608,0 29.37961,0 -1.19923,-8.27583 -2.39433,-16.531 -3.59046,-24.78824 -9.8025,0 -19.57505,0 -29.37858,0 1.1951,8.25724 2.39123,16.51241 3.58943,24.78824 z M 186.57381,352.3479 c 9.80044,0 19.60397,0 29.37755,0 -1.19613,-8.25518 -2.39433,-16.53204 -3.59046,-24.78825 -9.77564,0 -19.57815,0 -29.37961,0 1.1951,8.25621 2.39536,16.53307 3.59252,24.78825 z m 113.27932,0 c 9.80147,0 19.54612,0 29.37755,0 -1.19614,-8.25518 -2.39537,-16.55683 -3.58943,-24.78825 -9.80354,0 -19.57608,0 -29.37962,0 1.1951,8.25621 2.39433,16.53307 3.5915,24.78825 v 0"
         style="fill:#ffffff;fill-opacity:1;fill-rule:evenodd;stroke:none;stroke-width:0.103293"
         id="path2253" /><path
         d="m 262.79988,348.10152 8.42561,-11.21865 20.70094,16.57646 2.48109,-3.30228 -24.82646,-19.87769 -10.90463,14.52195 z m -37.79179,0 c 2.8075,-3.73817 5.6181,-7.47841 8.42561,-11.21865 6.901,5.52618 13.80097,11.05132 20.70094,16.57646 0.82737,-1.10111 1.65372,-2.20118 2.48109,-3.30228 -8.27583,-6.62624 -16.55063,-13.25042 -24.82543,-19.87769 -3.63591,4.84134 -7.27079,9.68061 -10.9067,14.52195 1.37483,1.09904 2.74863,2.20014 4.12449,3.30021 z m -75.58255,0 8.42664,-11.21865 20.69887,16.57646 2.4811,-3.30228 -24.82233,-19.87769 -10.90877,14.52195 z m 37.79282,0 c 2.80751,-3.73817 5.61604,-7.47841 8.42354,-11.21865 6.90101,5.52618 13.80201,11.05132 20.70301,16.57646 0.82531,-1.10111 1.65062,-2.20118 2.47903,-3.30228 -8.2748,-6.62624 -16.54856,-13.25042 -24.82439,-19.87769 -3.63488,4.84134 -7.2708,9.68061 -10.90671,14.52195 1.3738,1.09904 2.74966,2.20014 4.12552,3.30021 v 0"
         style="fill:#f2547a;fill-opacity:1;fill-rule:evenodd;stroke:none;stroke-width:0.103293"
         id="path2255" /><path
         d="m 87.69488,315.35869 c 45.53122,0 86.11812,-37.80729 90.54319,-83.33985 4.42507,-45.53257 -31.91649,-51.37792 -77.44761,-51.37792 -45.533287,0 -83.013258,5.84535 -87.439124,51.37792 -4.426258,45.53256 28.810666,83.33985 74.343544,83.33985"
         style="fill:#fbca07;fill-opacity:1;fill-rule:evenodd;stroke:none;stroke-width:0.103293"
         id="path2257" /><path
         d="m 77.084319,262.02647 h 79.468431 c 7.83994,0 14.57154,-3.88691 18.49151,-10.67739 l 32.00738,-55.43836 -8.81502,-15.2698 -48.89062,48.89166 h -46.08983 c -20.568208,0 -27.506189,18.00086 -26.171851,32.49389"
         style="fill:#63527b;fill-opacity:1;fill-rule:evenodd;stroke:none;stroke-width:0.103293"
         id="path2259" /><path
         d="m 198.23662,180.64092 h 31.28331 l -0.99575,5.48279 c -0.89245,4.90435 -4.73288,8.74375 -9.6362,9.6362 l -11.83634,0.15081 -8.81502,-15.2698"
         style="fill:#df8c16;fill-opacity:1;fill-rule:evenodd;stroke:none;stroke-width:0.103293"
         id="path2261" /><path
         d="m 95.77993,262.02647 70.19107,21.70288 c 4.94774,1.44817 10.29005,0.0981 13.95075,-3.52952 3.66173,-3.62764 5.06342,-8.95653 3.66173,-13.91562 -1.55972,-5.51688 -4.40854,-10.58443 -8.30682,-14.78639 -2.70007,-2.90976 -6.78738,-4.0873 -10.62058,-3.0585 -3.8332,1.02673 -6.78531,4.08937 -7.66847,7.95975 -0.42246,1.85101 -0.42246,3.77536 0,5.6274 H 95.77993"
         style="fill:#4a3c5e;fill-opacity:1;fill-rule:evenodd;stroke:none;stroke-width:0.103293"
         id="path2263" /><path
         d="m 198.64979,267.24483 v 0 c 1.75702,-5.67491 -1.4461,-11.75474 -7.11998,-13.51175 l -13.97554,-4.32901 c -5.67491,-1.75701 -11.75267,1.44611 -13.51071,7.12102 v 0 c -1.75702,5.67285 1.44713,11.75164 7.12101,13.50865 l 13.97451,4.33108 c 5.67388,1.75701 11.75267,-1.44714 13.51071,-7.11999"
         style="fill:#df8c16;fill-opacity:1;fill-rule:evenodd;stroke:none;stroke-width:0.103293"
         id="path2265" /><path
         d="m 77.084319,262.02647 -17.96368,46.31966 c -3.296491,8.50101 0.821489,22.52923 9.935026,22.8484 4.402865,0.15494 8.881648,-0.78916 13.142482,-2.85811 l 3.72495,-1.81176 c 11.861753,-5.76478 19.173343,-16.61364 20.066313,-29.77213 l 2.35477,-34.72606 H 77.084319"
         style="fill:#df8c16;fill-opacity:1;fill-rule:evenodd;stroke:none;stroke-width:0.103293"
         id="path2267" /><path
         d="m 66.644085,330.7669 8.016878,40.1603 21.724987,-4.57381 -2.47779,-21.9167 c -0.92478,-6.9103 -8.164586,-11.08953 -14.612752,-8.43904 l -0.574928,-3.22687 9.44562,-7.42676 c -5.57575,-5.76891 -15.326504,5.59021 -21.522015,5.42288"
         style="fill:#fbc6a4;fill-opacity:1;fill-rule:evenodd;stroke:none;stroke-width:0.103293"
         id="path2269" /><path
         d="m 87.37085,363.86816 8.53613,-1.76528 c 10.10866,-2.13093 14.27788,15.68917 -1.37421,15.68813 -9.728955,0 -16.498259,-2.2022 -20.454069,-4.18129 l -2.016178,0.64041 c -1.063608,0.33777 -2.227306,0.0527 -3.017291,-0.73544 -0.788848,-0.78916 -1.072077,-1.95327 -0.734412,-3.01616 l 0.606433,-28.34255 10.389827,12.23092 6.496611,1.19406 -0.746085,5.00455 c -0.230757,1.537 0.910734,3.57393 2.313244,3.28265"
         style="fill:#63527b;fill-opacity:1;fill-rule:evenodd;stroke:none;stroke-width:0.103293"
         id="path2271" /><path
         d="m 78.50656,350.05376 c 2.027537,0 3.680638,2.36231 3.680638,5.25968 0,2.89426 -1.653101,5.25761 -3.680638,5.25761 -2.027847,0 -3.680534,-2.36335 -3.680534,-5.25761 0,-2.89737 1.652687,-5.25968 3.680534,-5.25968"
         style="fill:#fbc6a4;fill-opacity:1;fill-rule:evenodd;stroke:none;stroke-width:0.103293"
         id="path2273" /><path
         d="m 69.494247,300.76856 15.61986,-24.24595 c 2.298263,-3.56464 6.194793,-5.3733 10.401493,-4.82792 l 37.96047,4.93224 -1.94294,7.36272 -35.12704,2.2146 -9.6143,23.91749 -17.297543,-9.35318"
         style="fill:#fbc6a4;fill-opacity:1;fill-rule:evenodd;stroke:none;stroke-width:0.103293"
         id="path2275" /><path
         d="m 131.53313,283.98965 3.03372,0.31195 c 4.87956,0.50097 9.77254,-0.81085 13.74829,-3.68653 l -13.30103,-4.71532 -1.53804,0.72718 -7.42366,1.80969 5.48072,5.55303"
         style="fill:#fbc6a4;fill-opacity:1;fill-rule:evenodd;stroke:none;stroke-width:0.103293"
         id="path2277" /><path
         d="m 130.839,272.86603 c -0.74267,-0.22724 -1.52873,0.188 -1.75804,0.93171 -0.22828,0.74267 0.18902,1.5308 0.9317,1.75804 l 27.64842,8.54853 4.69983,29.98388 c 0.11879,0.76643 0.83668,1.29322 1.60518,1.1734 0.76643,-0.11568 1.29116,-0.83667 1.17444,-1.6031 l -4.82688,-30.7844 c -0.0568,-0.54332 -0.4297,-1.02777 -0.98542,-1.19923 L 130.839,272.86603"
         style="fill:#63527b;fill-opacity:1;fill-rule:evenodd;stroke:none;stroke-width:0.103293"
         id="path2279" /><path
         d="m 90.67623,271.16893 c 1.66797,0 3.02772,1.3614 3.02772,3.02752 0,1.66715 -1.35975,3.02751 -3.02772,3.02751 -1.6656,0 -3.02783,-1.36036 -3.02783,-3.02751 0,-1.66612 1.36223,-3.02752 3.02783,-3.02752"
         style="fill:#fbc6a4;fill-opacity:1;fill-rule:evenodd;stroke:none;stroke-width:0.103293"
         id="path2281" /></g></g></svg>
