<svg width="10" height="10" version="1.1" viewBox="0 0 2.6458 2.6458" xmlns="http://www.w3.org/2000/svg">
 <path d="m0.36877-1.65e-7c-0.04333 0-0.08672 0.017053-0.11992 0.050249l-0.19904 0.19901c-0.066404 0.066393-0.066404 0.17341 0 0.2398l0.83448 0.83384-0.83448 0.83433c-0.066404 0.066392-0.066404 0.17291 0 0.23931l0.19904 0.1995c0.066404 0.066393 0.17344 0.066393 0.23984 0l0.83448-0.83433 0.83398 0.83433c0.066404 0.066393 0.17344 0.066393 0.23984 0l0.19904-0.1995c0.066404-0.066393 0.066404-0.17291 0-0.23931l-0.83398-0.83433 0.83398-0.83384c0.066404-0.066393 0.066404-0.17341 0-0.2398l-0.19904-0.19901c-0.066404-0.066392-0.17344-0.066392-0.23984 0l-0.83398 0.83384-0.83448-0.83384c-0.033202-0.033196-0.076592-0.050249-0.11992-0.050249z" fill="#4d4d4d"/>
</svg>
