<?xml version="1.0" encoding="UTF-8" standalone="no"?>
<svg
   xmlns:dc="http://purl.org/dc/elements/1.1/"
   xmlns:cc="http://creativecommons.org/ns#"
   xmlns:rdf="http://www.w3.org/1999/02/22-rdf-syntax-ns#"
   xmlns:svg="http://www.w3.org/2000/svg"
   xmlns="http://www.w3.org/2000/svg"
   xmlns:sodipodi="http://sodipodi.sourceforge.net/DTD/sodipodi-0.dtd"
   xmlns:inkscape="http://www.inkscape.org/namespaces/inkscape"
   id="Layer_1"
   version="1.1"
   viewBox="0 0 70 70"
   xml:space="preserve"
   sodipodi:docname="feature3.svg"
   width="70"
   height="70"
   inkscape:version="1.0.1 (3bc2e813f5, 2020-09-07)"><metadata
     id="metadata17"><rdf:RDF><cc:Work
         rdf:about=""><dc:format>image/svg+xml</dc:format><dc:type
           rdf:resource="http://purl.org/dc/dcmitype/StillImage" /><dc:title></dc:title></cc:Work></rdf:RDF></metadata><defs
     id="defs15" /><sodipodi:namedview
     pagecolor="#ffffff"
     bordercolor="#666666"
     borderopacity="1"
     objecttolerance="10"
     gridtolerance="10"
     guidetolerance="10"
     inkscape:pageopacity="0"
     inkscape:pageshadow="2"
     inkscape:window-width="1294"
     inkscape:window-height="709"
     id="namedview13"
     showgrid="false"
     inkscape:zoom="8.6875"
     inkscape:cx="30.100719"
     inkscape:cy="13.882758"
     inkscape:window-x="72"
     inkscape:window-y="22"
     inkscape:window-maximized="1"
     inkscape:current-layer="Layer_1" /><style
     type="text/css"
     id="style2">
	.st0{fill:#134563;}
</style><g
     id="g10"
     style="fill:#4275ca;fill-opacity:1"
     transform="matrix(1.4613779,0,0,1.4613779,-11.544886,-11.983299)"><g
       id="Icon-Share-Google"
       transform="translate(280,380)"
       style="fill:#4275ca;fill-opacity:1"><path
         class="st0"
         d="m -264.2,-339.9 c -4.4,0 -7.9,-3.5 -7.9,-7.9 0,-4.4 3.5,-7.9 7.9,-7.9 4.4,0 7.9,3.5 7.9,7.9 0,4.3 -3.5,7.9 -7.9,7.9 z m 0,-12.9 c -2.7,0 -4.9,2.2 -4.9,4.9 0,2.7 2.2,4.9 4.9,4.9 2.7,0 4.9,-2.2 4.9,-4.9 0,-2.6 -2.2,-4.9 -4.9,-4.9 z"
         id="Fill-61"
         style="fill:#4275ca;fill-opacity:1" /><path
         class="st0"
         d="m -232.1,-356 c -4.4,0 -7.9,-3.5 -7.9,-7.9 0,-4.4 3.5,-7.9 7.9,-7.9 4.4,0 7.9,3.5 7.9,7.9 0,4.4 -3.6,7.9 -7.9,7.9 z m 0,-12.8 c -2.7,0 -4.9,2.2 -4.9,4.9 0,2.7 2.2,4.9 4.9,4.9 2.7,0 4.9,-2.2 4.9,-4.9 0,-2.7 -2.2,-4.9 -4.9,-4.9 z"
         id="Fill-62"
         style="fill:#4275ca;fill-opacity:1" /><path
         class="st0"
         d="m -232.1,-323.9 c -4.4,0 -7.9,-3.5 -7.9,-7.9 0,-4.4 3.5,-7.9 7.9,-7.9 4.4,0 7.9,3.5 7.9,7.9 0,4.4 -3.6,7.9 -7.9,7.9 z m 0,-12.8 c -2.7,0 -4.9,2.2 -4.9,4.9 0,2.7 2.2,4.9 4.9,4.9 2.7,0 4.9,-2.2 4.9,-4.9 0,-2.7 -2.2,-4.9 -4.9,-4.9 z"
         id="Fill-63"
         style="fill:#4275ca;fill-opacity:1" /><polyline
         class="st0"
         id="Fill-64"
         points="-238.6,-333.2 -259.2,-343.5 -257.8,-346.4 -237.1,-336.1 -238.6,-333.2    "
         style="fill:#4275ca;fill-opacity:1" /><polyline
         class="st0"
         id="Fill-65"
         points="-257.8,-349.3 -259.2,-352.1 -238.6,-362.4 -237.1,-359.6 -257.8,-349.3    "
         style="fill:#4275ca;fill-opacity:1" /></g></g></svg>
