<?xml version="1.0" encoding="UTF-8" standalone="no"?>
<svg
   xmlns:dc="http://purl.org/dc/elements/1.1/"
   xmlns:cc="http://creativecommons.org/ns#"
   xmlns:rdf="http://www.w3.org/1999/02/22-rdf-syntax-ns#"
   xmlns:svg="http://www.w3.org/2000/svg"
   xmlns="http://www.w3.org/2000/svg"
   xmlns:sodipodi="http://sodipodi.sourceforge.net/DTD/sodipodi-0.dtd"
   xmlns:inkscape="http://www.inkscape.org/namespaces/inkscape"
   height="150"
   viewBox="0 0 150 150"
   width="150"
   version="1.1"
   id="svg3450"
   sodipodi:docname="feature41.svg"
   inkscape:version="1.0.1 (3bc2e813f5, 2020-09-07)">
  <metadata
     id="metadata3454">
    <rdf:RDF>
      <cc:Work
         rdf:about="">
        <dc:format>image/svg+xml</dc:format>
        <dc:type
           rdf:resource="http://purl.org/dc/dcmitype/StillImage" />
        <dc:title></dc:title>
      </cc:Work>
    </rdf:RDF>
  </metadata>
  <sodipodi:namedview
     pagecolor="#ffffff"
     bordercolor="#666666"
     borderopacity="1"
     objecttolerance="10"
     gridtolerance="10"
     guidetolerance="10"
     inkscape:pageopacity="0"
     inkscape:pageshadow="2"
     inkscape:window-width="1294"
     inkscape:window-height="709"
     id="namedview3452"
     showgrid="false"
     inkscape:zoom="2.0476634"
     inkscape:cx="12"
     inkscape:cy="39.237429"
     inkscape:window-x="72"
     inkscape:window-y="22"
     inkscape:window-maximized="1"
     inkscape:current-layer="svg3450" />
  <defs
     id="defs3437">
    <style
       id="style3435">.cls-1{fill:none;stroke:#000;stroke-linecap:round;stroke-linejoin:round;stroke-width:2px;}</style>
  </defs>
  <g
     data-name="42.graph"
     id="_42.graph"
     transform="matrix(6.2498864,0,0,6.2498864,0.00229114,0)"
     style="fill:none;stroke:#ffffff;stroke-opacity:1">
    <path
       class="cls-1"
       d="m 1,1 v 20 a 1.959,1.959 0 0 0 2,2 h 20"
       id="path3441"
       style="fill:none;stroke:#ffffff;stroke-opacity:1" />
    <path
       class="cls-1"
       d="M 5,23 V 13 a 1,1 0 0 1 1,-1 h 3 a 1,1 0 0 1 1,1 v 10"
       id="path3443"
       style="fill:none;stroke:#ffffff;stroke-opacity:1" />
    <path
       class="cls-1"
       d="M 10,13 V 3 a 1,1 0 0 1 1,-1 h 3 a 1,1 0 0 1 1,1 v 10"
       id="path3445"
       style="fill:none;stroke:#ffffff;stroke-opacity:1" />
    <path
       class="cls-1"
       d="M 15,23 V 9 a 1,1 0 0 1 1,-1 h 3 a 1,1 0 0 1 1,1 v 14"
       id="path3447"
       style="fill:none;stroke:#ffffff;stroke-opacity:1" />
  </g>
</svg>
