<?xml version="1.0" encoding="UTF-8" standalone="no"?>
<svg
   xmlns:dc="http://purl.org/dc/elements/1.1/"
   xmlns:cc="http://creativecommons.org/ns#"
   xmlns:rdf="http://www.w3.org/1999/02/22-rdf-syntax-ns#"
   xmlns:svg="http://www.w3.org/2000/svg"
   xmlns="http://www.w3.org/2000/svg"
   xmlns:sodipodi="http://sodipodi.sourceforge.net/DTD/sodipodi-0.dtd"
   xmlns:inkscape="http://www.inkscape.org/namespaces/inkscape"
   height="100"
   version="1.1"
   viewBox="0 0 100 100"
   width="100"
   xml:space="preserve"
   id="svg883"
   sodipodi:docname="feature1.svg"
   inkscape:version="1.0.1 (3bc2e813f5, 2020-09-07)"><metadata
     id="metadata889"><rdf:RDF><cc:Work
         rdf:about=""><dc:format>image/svg+xml</dc:format><dc:type
           rdf:resource="http://purl.org/dc/dcmitype/StillImage" /><dc:title></dc:title></cc:Work></rdf:RDF></metadata><defs
     id="defs887" /><sodipodi:namedview
     pagecolor="#ffffff"
     bordercolor="#666666"
     borderopacity="1"
     objecttolerance="10"
     gridtolerance="10"
     guidetolerance="10"
     inkscape:pageopacity="0"
     inkscape:pageshadow="2"
     inkscape:window-width="1294"
     inkscape:window-height="709"
     id="namedview885"
     showgrid="false"
     inkscape:zoom="3.5742038"
     inkscape:cx="13.623377"
     inkscape:cy="50.99243"
     inkscape:window-x="72"
     inkscape:window-y="22"
     inkscape:window-maximized="1"
     inkscape:current-layer="svg883"
     inkscape:document-rotation="0" /><g
     id="Layer_1" /><path
     id="rect1760"
     style="fill:#9a096b;stroke:none;stroke-width:1.36159;stroke-linecap:round;stroke-linejoin:round;fill-opacity:1"
     d="m 6.6473091,46 h 5.2849859 c 3.245059,0 5.857507,2.6975 5.857507,6.048207 V 93.951793 C 17.789802,97.3025 15.177354,100 11.932295,100 H 6.6473091 C 3.4022503,100 0.78980225,97.3025 0.78980225,93.951793 V 52.048207 C 0.78980225,48.6975 3.4022503,46 6.6473091,46 Z"
     sodipodi:nodetypes="sssssssss" /><path
     id="rect1768"
     style="fill:#9a096b;stroke:none;stroke-width:1.28336;stroke-linecap:round;stroke-linejoin:round;fill-opacity:1"
     d="M 42.93654,0.3400266 39.15524,2.5542558 39.12378,2.4980348 19.535679,13.964888 A 11.793495,11.959232 0 0 0 11.792712,11.02844 11.793495,11.959232 0 0 0 8.4999999e-7,22.986142 11.793495,11.959232 0 0 0 11.792712,34.946008 11.793495,11.959232 0 0 0 23.587519,22.986142 11.793495,11.959232 0 0 0 23.279227,20.274577 l 16.96657,-9.93376 17.650268,30.99921 23.363114,-13.676759 A 11.793495,11.959232 0 0 0 88.207294,29.959666 11.793495,11.959232 0 0 0 99.999999,17.999803 11.793495,11.959232 0 0 0 88.207294,6.039937 11.793495,11.959232 0 0 0 76.414583,17.999803 a 11.793495,11.959232 0 0 0 0.56835,3.667317 l -16.429682,9.618057 z" /><circle
     style="fill:#000000;stroke:none;stroke-width:0.956717;stroke-linecap:round;stroke-linejoin:round;stroke-miterlimit:4;stroke-dasharray:none"
     id="path1774"
     cx="16.646849"
     cy="28.054089"
     rx="10.034212"
     ry="9.7636423" /><circle
     style="fill:#000000;stroke:none;stroke-width:0.956717;stroke-linecap:round;stroke-linejoin:round;stroke-miterlimit:4;stroke-dasharray:none"
     id="circle1776"
     cx="16.646849"
     cy="28.054089"
     rx="10.034212"
     ry="9.7636423" /><circle
     style="fill:#000000;stroke:none;stroke-width:0.956717;stroke-linecap:round;stroke-linejoin:round;stroke-miterlimit:4;stroke-dasharray:none"
     id="circle1778"
     cx="16.646849"
     cy="28.054089"
     rx="10.034212"
     ry="9.7636423" /><circle
     style="fill:#000000;stroke:none;stroke-width:0.956717;stroke-linecap:round;stroke-linejoin:round;stroke-miterlimit:4;stroke-dasharray:none"
     id="circle1780"
     cx="16.646849"
     cy="28.054089"
     rx="10.034212"
     ry="9.7636423" /><circle
     style="fill:#000000;stroke:none;stroke-width:0.956717;stroke-linecap:round;stroke-linejoin:round;stroke-miterlimit:4;stroke-dasharray:none"
     id="circle1782"
     cx="16.646849"
     cy="28.054089"
     rx="10.034212"
     ry="9.7636423" /><circle
     style="fill:#000000;stroke:none;stroke-width:0.956717;stroke-linecap:round;stroke-linejoin:round;stroke-miterlimit:4;stroke-dasharray:none"
     id="circle1784"
     cx="16.646849"
     cy="28.054089"
     rx="10.034212"
     ry="9.7636423" /><circle
     style="fill:#000000;stroke:none;stroke-width:0.956717;stroke-linecap:round;stroke-linejoin:round;stroke-miterlimit:4;stroke-dasharray:none"
     id="circle1786"
     cx="16.646849"
     cy="28.054089"
     rx="10.034212"
     ry="9.7636423" /><circle
     style="fill:#000000;stroke:none;stroke-width:0.956717;stroke-linecap:round;stroke-linejoin:round;stroke-miterlimit:4;stroke-dasharray:none"
     id="circle1788"
     cx="16.646849"
     cy="28.054089"
     rx="10.034212"
     ry="9.7636423" /><path
     id="path1977"
     style="fill:#9a096b;stroke:none;stroke-width:1.37076;stroke-linecap:round;stroke-linejoin:round;fill-opacity:1"
     d="m 60.926945,55.27005 h 5.284986 c 3.245059,0 5.857507,2.733964 5.857507,6.129964 v 32.470022 c 0,3.396 -2.612448,6.129964 -5.857507,6.129964 h -5.284986 c -3.245059,0 -5.857507,-2.733964 -5.857507,-6.129964 V 61.400014 c 0,-3.396 2.612448,-6.129964 5.857507,-6.129964 z"
     sodipodi:nodetypes="sssssssss" /><path
     id="path1979"
     style="fill:#9a096b;stroke:none;stroke-width:1.38337;stroke-linecap:round;stroke-linejoin:round;fill-opacity:1"
     d="m 33.787125,30.000001 h 5.284986 c 3.245059,0 5.857507,2.784484 5.857507,6.243239 V 93.756762 C 44.929618,97.215517 42.31717,100 39.072111,100 h -5.284986 c -3.245059,0 -5.857507,-2.784483 -5.857507,-6.243238 V 36.24324 c 0,-3.458755 2.612448,-6.243239 5.857507,-6.243239 z"
     sodipodi:nodetypes="sssssssss" /><path
     id="path1981"
     style="fill:#9a096b;stroke:none;stroke-width:1.3625;stroke-linecap:round;stroke-linejoin:round;fill-opacity:1"
     d="m 88.066766,40 h 5.284986 c 3.245059,0 5.857507,2.701103 5.857507,6.056284 V 93.943716 C 99.209259,97.298897 96.596811,100 93.351752,100 h -5.284986 c -3.245059,0 -5.857507,-2.701103 -5.857507,-6.056284 V 46.056284 C 82.209259,42.701103 84.821707,40 88.066766,40 Z"
     sodipodi:nodetypes="sssssssss" /></svg>
