<?xml version="1.0" encoding="UTF-8" standalone="no"?>
<svg
   xmlns:dc="http://purl.org/dc/elements/1.1/"
   xmlns:cc="http://creativecommons.org/ns#"
   xmlns:rdf="http://www.w3.org/1999/02/22-rdf-syntax-ns#"
   xmlns:svg="http://www.w3.org/2000/svg"
   xmlns="http://www.w3.org/2000/svg"
   xmlns:sodipodi="http://sodipodi.sourceforge.net/DTD/sodipodi-0.dtd"
   xmlns:inkscape="http://www.inkscape.org/namespaces/inkscape"
   data-name="Слой 1"
   id="Слой_1"
   viewBox="0 0 150 85"
   version="1.1"
   sodipodi:docname="feature51.svg"
   width="150"
   height="85"
   inkscape:version="1.0.1 (3bc2e813f5, 2020-09-07)">
  <metadata
     id="metadata4129">
    <rdf:RDF>
      <cc:Work
         rdf:about="">
        <dc:format>image/svg+xml</dc:format>
        <dc:type
           rdf:resource="http://purl.org/dc/dcmitype/StillImage" />
        <dc:title></dc:title>
      </cc:Work>
    </rdf:RDF>
  </metadata>
  <defs
     id="defs4127" />
  <sodipodi:namedview
     pagecolor="#ffffff"
     bordercolor="#666666"
     borderopacity="1"
     objecttolerance="10"
     gridtolerance="10"
     guidetolerance="10"
     inkscape:pageopacity="0"
     inkscape:pageshadow="2"
     inkscape:window-width="1294"
     inkscape:window-height="709"
     id="namedview4125"
     showgrid="false"
     inkscape:zoom="2.171875"
     inkscape:cx="64"
     inkscape:cy="64"
     inkscape:window-x="72"
     inkscape:window-y="22"
     inkscape:window-maximized="1"
     inkscape:current-layer="Слой_1"
     inkscape:document-rotation="0" />
  <circle
     cx="119.53125"
     cy="29.309998"
     r="15.210938"
     id="circle4112"
     style="opacity:0.99;fill:#ffffff;stroke-width:1.17187" />
  <circle
     cx="30.46875"
     cy="29.309998"
     r="15.210938"
     id="circle4114"
     style="opacity:0.99;fill:#ffffff;stroke-width:1.17187" />
  <path
     d="m 40.546875,60.024844 v 0 q -0.503906,0.714844 -0.984375,1.453125 v 0 a 41.976562,41.976562 0 0 0 -6.75,22.886721 h 84.375 a 41.976562,41.976562 0 0 0 -6.69141,-22.781252 v 0 q -0.48046,-0.738281 -0.98437,-1.453126 v 0 a 42.1875,42.1875 0 0 0 -68.906252,0 z"
     id="path4116"
     style="opacity:0.99;fill:#ffffff;stroke-width:1.17187" />
  <path
     d="M 0,74.98969 H 24.304688 A 51.562501,51.562501 0 0 1 40.382813,46.185001 30.46875,30.46875 0 0 0 0,74.98969 Z"
     id="path4118"
     style="opacity:0.99;fill:#ffffff;stroke-width:1.17187" />
  <circle
     cx="75"
     cy="21.118591"
     r="21.058592"
     id="circle4120"
     style="opacity:0.99;fill:#ffffff;stroke-width:1.17187" />
  <path
     d="m 119.53125,44.520938 a 30.46875,30.46875 0 0 0 -9.91407,1.664063 51.562501,51.562501 0 0 1 16.07813,28.804689 H 150 A 30.46875,30.46875 0 0 0 119.53125,44.520938 Z"
     id="path4122"
     style="opacity:0.99;fill:#ffffff;stroke-width:1.17187" />
</svg>
