<?xml version="1.0" encoding="UTF-8" standalone="no"?>
<svg
   xmlns:dc="http://purl.org/dc/elements/1.1/"
   xmlns:cc="http://creativecommons.org/ns#"
   xmlns:rdf="http://www.w3.org/1999/02/22-rdf-syntax-ns#"
   xmlns:svg="http://www.w3.org/2000/svg"
   xmlns="http://www.w3.org/2000/svg"
   xmlns:sodipodi="http://sodipodi.sourceforge.net/DTD/sodipodi-0.dtd"
   xmlns:inkscape="http://www.inkscape.org/namespaces/inkscape"
   height="150"
   version="1.1"
   viewBox="0 0 150 150"
   width="150"
   xml:space="preserve"
   id="svg2074"
   sodipodi:docname="feature21.svg"
   inkscape:version="1.0.1 (3bc2e813f5, 2020-09-07)"><metadata
     id="metadata2080"><rdf:RDF><cc:Work
         rdf:about=""><dc:format>image/svg+xml</dc:format><dc:type
           rdf:resource="http://purl.org/dc/dcmitype/StillImage" /><dc:title></dc:title></cc:Work></rdf:RDF></metadata><defs
     id="defs2078" /><sodipodi:namedview
     pagecolor="#ffffff"
     bordercolor="#666666"
     borderopacity="1"
     objecttolerance="10"
     gridtolerance="10"
     guidetolerance="10"
     inkscape:pageopacity="0"
     inkscape:pageshadow="2"
     inkscape:window-width="1294"
     inkscape:window-height="709"
     id="namedview2076"
     showgrid="false"
     inkscape:zoom="1.889301"
     inkscape:cx="42.417728"
     inkscape:cy="52.070168"
     inkscape:window-x="72"
     inkscape:window-y="22"
     inkscape:window-maximized="1"
     inkscape:current-layer="svg2074"
     inkscape:document-rotation="0" /><path
     id="path2062"
     style="fill:#ffffff;stroke-width:0.242581"
     sodipodi:type="inkscape:offset"
     inkscape:radius="-1.5055711"
     inkscape:original="M 55.345703 0.001953125 C 55.287483 0.001710535 55.228384 0.00390625 55.169922 0.00390625 C 51.971246 0.01118369 48.758273 0.36160795 45.601562 1.0507812 L 56.435547 42.677734 L 94.59375 23.414062 C 93.2809 21.002562 91.756297 18.722705 90.039062 16.603516 C 89.945914 16.488775 89.84998 16.375732 89.755859 16.261719 C 89.628989 16.108408 89.503568 15.954348 89.375 15.802734 C 89.202283 15.599936 89.025723 15.399106 88.849609 15.199219 C 88.796969 15.139301 88.746484 15.077253 88.693359 15.017578 C 80.96569 6.3419024 69.916423 0.68543622 57.560547 0.060546875 C 57.537747 0.059576565 57.514747 0.057853525 57.492188 0.056640625 C 57.154272 0.039902565 56.814223 0.026796215 56.474609 0.017578125 C 56.406201 0.015880055 56.339892 0.014884765 56.271484 0.013671875 C 55.963406 0.006879585 55.654994 0.002438275 55.345703 0.001953125 z M 43.392578 1.5859375 C 36.129453 3.5751039 29.45694 7.3949831 23.935547 12.820312 C 15.414881 21.193005 10.662151 32.380731 10.554688 44.324219 C 10.535277 46.202768 10.641838 48.110112 10.869141 50.009766 L 48.869141 50.009766 C 49.496699 50.009766 50.005859 50.518684 50.005859 51.146484 L 50.005859 89.126953 C 51.61587 89.315681 53.258868 89.420519 54.904297 89.4375 C 55.04184 89.439 55.180816 89.439453 55.318359 89.439453 C 67.104412 89.439453 78.211374 84.896256 86.634766 76.619141 C 94.981017 68.417705 99.709145 57.513861 100 45.845703 L 55.679688 45.464844 C 55.614677 45.464602 55.550382 45.458446 55.488281 45.447266 C 55.466931 45.443366 55.448114 45.434538 55.427734 45.429688 C 55.386984 45.419987 55.345694 45.412507 55.306641 45.398438 C 55.283351 45.390237 55.262794 45.377128 55.240234 45.367188 C 55.206034 45.352387 55.171184 45.338263 55.138672 45.320312 C 55.115872 45.307943 55.095809 45.293377 55.074219 45.279297 C 55.044139 45.259647 55.012755 45.24083 54.984375 45.21875 C 54.963995 45.20225 54.945191 45.182013 54.925781 45.164062 C 54.899821 45.140532 54.873139 45.11971 54.849609 45.09375 C 54.831169 45.07362 54.815808 45.048934 54.798828 45.027344 C 54.777478 45.000414 54.755248 44.976126 54.736328 44.947266 C 54.720798 44.923256 54.709143 44.896084 54.695312 44.871094 C 54.679063 44.841254 54.662008 44.81254 54.648438 44.78125 C 54.636308 44.75384 54.629091 44.723693 54.619141 44.695312 C 54.609641 44.667412 54.597364 44.641901 54.589844 44.613281 L 43.392578 1.5859375 z M 95.628906 25.4375 L 60.382812 43.232422 L 95.732422 43.537109 L 99.998047 43.574219 C 99.995847 43.495619 99.994287 43.416245 99.992188 43.337891 C 99.983487 43.061349 99.972814 42.785823 99.958984 42.509766 C 99.954084 42.417586 99.948219 42.324603 99.943359 42.232422 C 99.925409 41.914398 99.905839 41.596836 99.880859 41.279297 C 99.877659 41.239517 99.874494 41.199697 99.871094 41.160156 C 99.431088 35.716635 97.988737 30.357048 95.628906 25.4375 z M 0 52.283203 C 0.41263073 77.658173 21.905038 99.143676 47.732422 99.998047 L 47.732422 90.126953 L 47.732422 52.283203 L 9.8710938 52.283203 L 0 52.283203 z "
     d="m 55.339844,1.5078125 c -0.01612,-6.72e-5 -0.07376,0.00195 -0.169922,0.00195 -2.563807,0.00606 -5.128209,0.3796568 -7.673828,0.8398438 L 57.421875,40.494141 92.402344,22.833984 c -1.082333,-1.828778 -2.200509,-3.63881 -3.53125,-5.28125 l -0.002,-0.002 c -0.07898,-0.09723 -0.171261,-0.206306 -0.273438,-0.330078 -0.131366,-0.158744 -0.252116,-0.305653 -0.367187,-0.441406 l -0.002,-0.002 c -0.161933,-0.190093 -0.331089,-0.38367 -0.505859,-0.582032 a 1.5057217,1.5057217 0 0 1 -0.002,-0.002 c -0.07776,-0.08852 -0.126917,-0.14746 -0.150391,-0.173828 C 80.098605,7.6334107 69.427733,2.1684797 57.484375,1.5644531 c -0.03797,-0.00182 -0.06256,-0.00362 -0.06641,-0.00391 h -0.0059 C 57.088468,1.5445584 56.762425,1.5322863 56.4375,1.5234375 h -0.0039 c -0.05783,-0.00141 -0.119835,-0.00267 -0.189453,-0.00391 a 1.5057217,1.5057217 0 0 1 -0.0059,0 c -0.3004,-0.00662 -0.598083,-0.011254 -0.894531,-0.011719 a 1.5057217,1.5057217 0 0 1 -0.0039,0 z M 42.34375,3.5351562 C 35.89837,5.5513997 29.95558,9.0155751 24.990234,13.894531 16.748172,21.993459 12.164493,32.785308 12.060547,44.337891 a 1.5057217,1.5057217 0 0 1 0,0.002 c -0.01419,1.373637 0.106837,2.770291 0.230469,4.164062 h 36.578125 c 1.441519,0 2.642578,1.200744 2.642578,2.642578 v 36.56836 c 1.131416,0.09832 2.263205,0.20498 3.408203,0.216797 0.12979,0.0014 0.2642,0.002 0.398437,0.002 11.399149,0 22.113807,-4.382253 30.261719,-12.388672 C 93.280992,67.977625 97.6673,58.031601 98.310547,47.337891 L 55.673828,46.970703 h -0.0078 c -0.153491,-0.001 -0.302209,-0.01525 -0.445313,-0.04102 a 1.5057217,1.5057217 0 0 1 -0.0039,-0.002 c -0.262604,-0.04797 -0.313583,-0.07529 -0.136719,-0.0332 a 1.5057217,1.5057217 0 0 1 -0.002,0 c 0.01208,0.0029 -0.08809,-0.0117 -0.271484,-0.07617 l -0.0098,-0.0039 c -0.1914,-0.06949 -0.24027,-0.10266 -0.154297,-0.06641 l -0.0098,-0.0039 c -0.01646,-0.0067 -0.09086,-0.03344 -0.21289,-0.09961 l -0.0098,-0.0059 c -0.116743,-0.06473 -0.176008,-0.109268 -0.158203,-0.09766 a 1.5057217,1.5057217 0 0 1 -0.002,-0.002 c 0.0029,0.0019 -0.0637,-0.03497 -0.189453,-0.132812 a 1.5057217,1.5057217 0 0 1 -0.02344,-0.01758 c -0.125754,-0.101813 -0.148063,-0.13105 -0.123047,-0.109375 l -0.0098,-0.0098 c 0.01515,0.01518 -0.04252,-0.02351 -0.169922,-0.164062 -0.131158,-0.145189 -0.162076,-0.201039 -0.115234,-0.142578 l -0.0039,-0.0039 c 0.01684,0.02194 -0.03801,-0.032 -0.138672,-0.185546 a 1.5057217,1.5057217 0 0 1 -0.0039,-0.0078 c -0.110296,-0.170522 -0.130297,-0.23205 -0.09375,-0.166016 a 1.5057217,1.5057217 0 0 1 -0.0059,-0.0078 c 0.0013,0.0024 -0.043,-0.06889 -0.101563,-0.201172 l -0.002,-0.0078 c -6.95e-4,-0.0016 -0.0013,-3.38e-4 -0.002,-0.002 -0.07632,-0.176613 -0.09209,-0.255182 -0.06836,-0.1875 a 1.5057217,1.5057217 0 0 1 -0.0059,-0.01367 c 0.02781,0.08167 -0.0066,0.02188 -0.06055,-0.183594 a 1.5057217,1.5057217 0 0 1 0,-0.0039 z m 52.464844,24.0019528 -28.208985,14.242188 29.146485,0.251953 2.675781,0.02344 c -0.01328,-0.219943 -0.02423,-0.44048 -0.04102,-0.654297 v -0.0039 c -0.0031,-0.03907 -0.007,-0.07553 -0.0098,-0.107422 a 1.5057217,1.5057217 0 0 1 0,-0.0078 c -0.383519,-4.744689 -1.663372,-9.384993 -3.5625,-13.744141 z M 1.6894531,53.789062 C 2.8978472,77.128453 22.445004,96.686941 46.226562,98.287109 V 90.126953 53.789062 H 9.8710938 Z"
     transform="matrix(1.5506693,0,0,1.5499182,-2.6197855,-2.336982)" /><g
     id="Layer_1"
     transform="matrix(1.4999999,0,0,1.4999999,1.1135648e-6,-7.4710261e-7)" /></svg>
