<?xml version="1.0" encoding="UTF-8" standalone="no"?>
<svg
   xmlns:dc="http://purl.org/dc/elements/1.1/"
   xmlns:cc="http://creativecommons.org/ns#"
   xmlns:rdf="http://www.w3.org/1999/02/22-rdf-syntax-ns#"
   xmlns:svg="http://www.w3.org/2000/svg"
   xmlns="http://www.w3.org/2000/svg"
   xmlns:sodipodi="http://sodipodi.sourceforge.net/DTD/sodipodi-0.dtd"
   xmlns:inkscape="http://www.inkscape.org/namespaces/inkscape"
   height="150"
   version="1.1"
   viewBox="0 0 150 150"
   width="150"
   xml:space="preserve"
   id="svg883"
   sodipodi:docname="feature11.svg"
   inkscape:version="1.0.1 (3bc2e813f5, 2020-09-07)"><metadata
     id="metadata889"><rdf:RDF><cc:Work
         rdf:about=""><dc:format>image/svg+xml</dc:format><dc:type
           rdf:resource="http://purl.org/dc/dcmitype/StillImage" /><dc:title></dc:title></cc:Work></rdf:RDF></metadata><defs
     id="defs887" /><sodipodi:namedview
     pagecolor="#ffffff"
     bordercolor="#666666"
     borderopacity="1"
     objecttolerance="10"
     gridtolerance="10"
     guidetolerance="10"
     inkscape:pageopacity="0"
     inkscape:pageshadow="2"
     inkscape:window-width="1294"
     inkscape:window-height="709"
     id="namedview885"
     showgrid="false"
     inkscape:zoom="1.7871019"
     inkscape:cx="82.697672"
     inkscape:cy="75.966986"
     inkscape:window-x="72"
     inkscape:window-y="22"
     inkscape:window-maximized="1"
     inkscape:current-layer="svg883"
     inkscape:document-rotation="0" /><g
     id="Layer_1"
     transform="matrix(1.5,0,0,1.5,-4.1676368e-7,-0.1700133)" /><path
     id="rect1760"
     style="fill:#ffffff;stroke:none;stroke-width:2.04238;stroke-linecap:round;stroke-linejoin:round"
     d="m 9.9709634,68.829988 h 7.9274786 c 4.867588,0 8.786261,4.04625 8.786261,9.07231 v 62.855382 c 0,5.02605 -3.918673,9.07232 -8.786261,9.07232 H 9.9709634 c -4.8675884,0 -8.7862604,-4.04627 -8.7862604,-9.07232 V 77.902298 c 0,-5.02606 3.918672,-9.07231 8.7862604,-9.07231 z"
     sodipodi:nodetypes="sssssssss" /><path
     id="rect1768"
     style="fill:#ffffff;stroke:none;stroke-width:1.92504;stroke-linecap:round;stroke-linejoin:round"
     d="M 64.404811,0.3400266 58.732861,3.6613704 58.685673,3.5770386 29.303523,20.77732 A 17.690243,17.938849 0 0 0 17.689067,16.372646 17.690243,17.938849 0 0 0 8.58237e-7,34.309201 17.690243,17.938849 0 0 0 17.689067,52.249 17.690243,17.938849 0 0 0 35.381279,34.309201 17.690243,17.938849 0 0 0 34.918842,30.241854 L 60.368697,15.341213 86.844098,61.840028 121.88877,41.324888 A 17.690243,17.938849 0 0 0 132.31093,44.769487 17.690243,17.938849 0 0 0 150,26.829693 17.690243,17.938849 0 0 0 132.31093,8.889892 17.690243,17.938849 0 0 0 114.62187,26.829693 17.690243,17.938849 0 0 0 115.4744,32.330667 L 90.82988,46.757754 Z" /><circle
     style="fill:#000000;stroke:none;stroke-width:1.43508;stroke-linecap:round;stroke-linejoin:round;stroke-miterlimit:4;stroke-dasharray:none"
     id="path1774"
     cx="24.970276"
     cy="41.911121"
     r="0" /><circle
     style="fill:#000000;stroke:none;stroke-width:1.43508;stroke-linecap:round;stroke-linejoin:round;stroke-miterlimit:4;stroke-dasharray:none"
     id="circle1776"
     cx="24.970276"
     cy="41.911121"
     r="0" /><circle
     style="fill:#000000;stroke:none;stroke-width:1.43508;stroke-linecap:round;stroke-linejoin:round;stroke-miterlimit:4;stroke-dasharray:none"
     id="circle1778"
     cx="24.970276"
     cy="41.911121"
     r="0" /><circle
     style="fill:#000000;stroke:none;stroke-width:1.43508;stroke-linecap:round;stroke-linejoin:round;stroke-miterlimit:4;stroke-dasharray:none"
     id="circle1780"
     cx="24.970276"
     cy="41.911121"
     r="0" /><circle
     style="fill:#000000;stroke:none;stroke-width:1.43508;stroke-linecap:round;stroke-linejoin:round;stroke-miterlimit:4;stroke-dasharray:none"
     id="circle1782"
     cx="24.970276"
     cy="41.911121"
     r="0" /><circle
     style="fill:#000000;stroke:none;stroke-width:1.43508;stroke-linecap:round;stroke-linejoin:round;stroke-miterlimit:4;stroke-dasharray:none"
     id="circle1784"
     cx="24.970276"
     cy="41.911121"
     r="0" /><circle
     style="fill:#000000;stroke:none;stroke-width:1.43508;stroke-linecap:round;stroke-linejoin:round;stroke-miterlimit:4;stroke-dasharray:none"
     id="circle1786"
     cx="24.970276"
     cy="41.911121"
     r="0" /><circle
     style="fill:#000000;stroke:none;stroke-width:1.43508;stroke-linecap:round;stroke-linejoin:round;stroke-miterlimit:4;stroke-dasharray:none"
     id="circle1788"
     cx="24.970276"
     cy="41.911121"
     r="0" /><path
     id="path1977"
     style="fill:#ffffff;stroke:none;stroke-width:2.05615;stroke-linecap:round;stroke-linejoin:round"
     d="m 91.390412,82.735063 h 7.927492 c 4.867586,0 8.786246,4.100946 8.786246,9.194941 v 48.705046 c 0,5.09399 -3.91866,9.19495 -8.786246,9.19495 h -7.927492 c -4.867582,0 -8.786254,-4.10096 -8.786254,-9.19495 V 91.930004 c 0,-5.093995 3.918672,-9.194941 8.786254,-9.194941 z"
     sodipodi:nodetypes="sssssssss" /><path
     id="path1979"
     style="fill:#ffffff;stroke:none;stroke-width:2.07506;stroke-linecap:round;stroke-linejoin:round"
     d="m 50.680688,44.829988 h 7.92748 c 4.867587,0 8.786261,4.176727 8.786261,9.36486 v 86.270292 c 0,5.18814 -3.918674,9.36486 -8.786261,9.36486 h -7.92748 c -4.867588,0 -8.78626,-4.17672 -8.78626,-9.36486 V 54.194848 c 0,-5.188133 3.918672,-9.36486 8.78626,-9.36486 z"
     sodipodi:nodetypes="sssssssss" /><path
     id="path1981"
     style="fill:#ffffff;stroke:none;stroke-width:2.04375;stroke-linecap:round;stroke-linejoin:round"
     d="m 132.10015,59.829988 h 7.92747 c 4.8676,0 8.78627,4.051654 8.78627,9.084426 v 71.831136 c 0,5.03278 -3.91867,9.08445 -8.78627,9.08445 h -7.92747 c -4.86759,0 -8.78626,-4.05167 -8.78626,-9.08445 V 68.914414 c 0,-5.032772 3.91867,-9.084426 8.78626,-9.084426 z"
     sodipodi:nodetypes="sssssssss" /></svg>
