<?xml version="1.0" encoding="UTF-8" standalone="no"?>
<svg
   xmlns:dc="http://purl.org/dc/elements/1.1/"
   xmlns:cc="http://creativecommons.org/ns#"
   xmlns:rdf="http://www.w3.org/1999/02/22-rdf-syntax-ns#"
   xmlns:svg="http://www.w3.org/2000/svg"
   xmlns="http://www.w3.org/2000/svg"
   xmlns:sodipodi="http://sodipodi.sourceforge.net/DTD/sodipodi-0.dtd"
   xmlns:inkscape="http://www.inkscape.org/namespaces/inkscape"
   version="1.1"
   id="svg1210"
   xml:space="preserve"
   width="400"
   height="587"
   viewBox="0 0 400 587"
   sodipodi:docname="interface1.svg"
   inkscape:version="1.0.2 (394de47547, 2021-03-26)"><metadata
     id="metadata1216"><rdf:RDF><cc:Work
         rdf:about=""><dc:format>image/svg+xml</dc:format><dc:type
           rdf:resource="http://purl.org/dc/dcmitype/StillImage" /><dc:title></dc:title></cc:Work></rdf:RDF></metadata><defs
     id="defs1214" /><sodipodi:namedview
     pagecolor="#ffffff"
     bordercolor="#666666"
     borderopacity="1"
     objecttolerance="10"
     gridtolerance="10"
     guidetolerance="10"
     inkscape:pageopacity="0"
     inkscape:pageshadow="2"
     inkscape:window-width="1608"
     inkscape:window-height="1013"
     id="namedview1212"
     showgrid="false"
     inkscape:zoom="0.62059549"
     inkscape:cx="199.33333"
     inkscape:cy="330.85953"
     inkscape:window-x="72"
     inkscape:window-y="0"
     inkscape:window-maximized="1"
     inkscape:current-layer="g1218"
     inkscape:document-rotation="0" /><g
     id="g1218"
     inkscape:groupmode="layer"
     inkscape:label="ink_ext_XXXXXX"
     transform="matrix(1.3333333,0,0,-1.3333333,0,633.50667)"><g
       id="g1220"
       transform="matrix(0.08852297,0,0,0.08734463,0,60.129507)"><path
         d="M 219.031,4751.3 H 2771.03 c 120.45,0 219.02,-98.56 219.02,-219.01 V 830.332 c 0,-120.473 -98.57,-219.062 -219.02,-219.062 H 219.031 C 98.5664,611.27 0,709.859 0,830.332 V 4532.29 c 0,120.45 98.5664,219.01 219.031,219.01"
         style="fill:#150b26;fill-opacity:1;fill-rule:evenodd;stroke:none"
         id="path1272" /><path
         d="M 148.145,4502.8355 H 2841.9 c 55.06,0 100.07,-45.01 100.07,-100.07 V 976.86474 c 0,-55.047 -45.01,-100.059 -100.07,-100.059 H 148.145 c -55.0591,0 -100.063,45.012 -100.063,100.059 V 4402.7655 c 0,55.06 45.0039,100.07 100.063,100.07"
         style="fill:#890bcc;fill-opacity:1;fill-rule:evenodd;stroke:none"
         id="path1274"
         sodipodi:nodetypes="csssssssc" /><path
         d="m 1495.05,3297.6 c -340.4,0 -616.327,-275.92 -616.327,-616.29 0,-340.4 275.927,-616.33 616.327,-616.33 340.36,0 616.29,275.93 616.29,616.33 0,340.37 -275.93,616.29 -616.29,616.29 z m 0,369.74 c 544.54,0 985.99,-441.48 985.99,-986.03 0,-544.58 -441.45,-986.02 -985.99,-986.02 -544.581,0 -986.027,441.44 -986.027,986.02 0,544.55 441.446,986.03 986.027,986.03 v 0"
         style="fill:#9a096b;fill-opacity:1;fill-rule:evenodd;stroke:none"
         id="path1276" /><path
         d="m 2281.61,2086.73 c -180.03,-237.78 -465.36,-391.44 -786.56,-391.44 -360.77,0 -676.222,193.75 -848.112,482.86 l 318.007,188.68 c 107.415,-180.74 304.585,-301.85 530.105,-301.85 200.77,0 379.11,96.05 491.63,244.65 l 294.93,-222.9"
         style="fill:#8260fe;fill-opacity:1;fill-rule:evenodd;stroke:none"
         id="path1278" /><path
         d="m 1015.87,4136.45 h 958.31 v 151.16 h -958.31 v -151.16"
         style="fill:#f9e0b8;fill-opacity:1;fill-rule:evenodd;stroke:none"
         id="path1280" /><path
         d="m 364.18,1379.14 h 282.758 v 112.5 H 364.18 v -112.5"
         style="fill:#f9e0b8;fill-opacity:1;fill-rule:evenodd;stroke:none;stroke-width:0.801349"
         id="path1282" /><path
         d="M 852.434,1379.14 H 2407.9 v 112.5 H 852.434 v -112.5"
         style="fill:#f9e0b8;fill-opacity:1;fill-rule:evenodd;stroke:none;stroke-width:0.801349"
         id="path1284" /><path
         d="m 364.18,1126.69 h 282.758 v 112.5 H 364.18 v -112.5"
         style="fill:#6c3d57;fill-opacity:1;fill-rule:evenodd;stroke:none;stroke-width:0.801349"
         id="path1286" /><path
         d="M 852.434,1126.69 H 2407.9 v 112.5 H 852.434 v -112.5"
         style="fill:#6c3d57;fill-opacity:1;fill-rule:evenodd;stroke:none;stroke-width:0.801349"
         id="path1288" /></g><path
       d="m 158.07738,370.19475 h 129.33599 c 6.10567,0 11.09967,-4.93064 11.09967,-10.95106 V 49.870243 c 0,-6.024318 -4.994,-10.955896 -11.09967,-10.955896 H 158.07738 c -6.10499,0 -11.09841,4.931578 -11.09841,10.955896 V 359.24369 c 0,6.02042 4.99342,10.95106 11.09841,10.95106"
       style="fill:#d0d0d0;fill-opacity:1;fill-rule:evenodd;stroke:none;stroke-width:0.0793321"
       id="path1947" /><path
       d="m 158.7409,355.81738 h 128.00561 c 3.7736,0 6.86042,-3.04886 6.86042,-6.76908 V 60.060876 c 0,-3.719674 -3.08682,-6.765201 -6.86042,-6.765201 H 158.7409 c -3.76955,0 -6.85617,3.045527 -6.85617,6.765201 V 349.0483 c 0,3.72022 3.08662,6.76908 6.85617,6.76908"
       style="fill:#3062b5;fill-opacity:1;fill-rule:evenodd;stroke:none;stroke-width:0.0793321"
       id="path1949" /><path
       d="m 160.05994,355.81738 h 125.36802 c 4.49639,0 8.17499,-3.6328 8.17499,-8.06933 V 336.6236 H 151.88473 v 11.12445 c 0,4.43653 3.6781,8.06933 8.17521,8.06933 z M 293.60295,73.77154 V 61.365782 c 0,-4.440661 -3.6786,-8.070107 -8.17499,-8.070107 H 160.05994 c -4.49711,0 -8.17521,3.629446 -8.17521,8.070107 V 73.77154 h 141.71822 v 0"
       style="fill:#1ba6f2;fill-opacity:1;fill-rule:evenodd;stroke:none;stroke-width:0.0793321"
       id="path1951" /><path
       d="m 222.93611,279.48534 c 4.09249,0 8.18362,0 12.27651,0 0,-22.71679 0,-45.4428 0,-68.16471 -4.09289,0 -8.18402,0 -12.27651,0 0,22.72191 0,45.44792 0,68.16471 z M 200.43617,257.7948 c 4.09181,0 8.1839,0 12.27574,0 0,-15.49105 0,-30.98211 0,-46.47417 -4.09184,0 -8.18393,0 -12.27574,0 0,15.49206 0,30.98312 0,46.47417 z m -22.49728,-21.69362 h 12.27944 v -24.78055 h -12.27944 z m 67.49162,65.08388 h 12.2822 v -89.86443 h -12.2822 v 89.86443 0"
       style="fill:#f9e0b8;fill-opacity:1;fill-rule:evenodd;stroke:none;stroke-width:0.0773918"
       id="path1953" /><path
       d="m 197.27828,311.29908 h 50.93504 v 10.77142 h -50.93504 v -10.77142"
       style="fill:#6c3d57;fill-opacity:1;fill-rule:evenodd;stroke:none;stroke-width:0.0793321"
       id="path1955" /><path
       d="m 197.27828,183.44945 h 50.93504 v 10.77064 h -50.93504 v -10.77064"
       style="fill:#6c3d57;fill-opacity:1;fill-rule:evenodd;stroke:none;stroke-width:0.0793321"
       id="path1957" /><path
       d="m 222.97385,174.82082 c 4.12272,0 8.24407,0 12.36719,0 0,-26.942 0,-53.89125 0,-80.834398 -4.12312,0 -8.24447,0 -12.36719,0 0,26.943148 0,53.892398 0,80.834398 z m -22.66613,-25.72383 c 4.12206,0 8.24437,0 12.36642,0 0,-18.37022 0,-36.74161 0,-55.110568 -4.12205,0 -8.24436,0 -12.36642,0 0,18.368958 0,36.740348 0,55.110568 z m -22.66338,12.78007 h 12.37011 V 93.986422 h -12.37011 z m 67.99004,-2.18775 h 12.37289 V 93.986422 h -12.37289 v 65.702888 0"
       style="fill:#f9e0b8;fill-opacity:1;fill-rule:evenodd;stroke:none;stroke-width:0.0845845"
       id="path1959" /></g></svg>
