<?xml version="1.0" encoding="UTF-8" standalone="no"?>
<svg
   xmlns:dc="http://purl.org/dc/elements/1.1/"
   xmlns:cc="http://creativecommons.org/ns#"
   xmlns:rdf="http://www.w3.org/1999/02/22-rdf-syntax-ns#"
   xmlns:svg="http://www.w3.org/2000/svg"
   xmlns="http://www.w3.org/2000/svg"
   xmlns:sodipodi="http://sodipodi.sourceforge.net/DTD/sodipodi-0.dtd"
   xmlns:inkscape="http://www.inkscape.org/namespaces/inkscape"
   version="1.1"
   id="svg1210"
   xml:space="preserve"
   width="470"
   height="690"
   viewBox="0 0 470 690"
   sodipodi:docname="interface1.svg"
   inkscape:version="1.0.1 (3bc2e813f5, 2020-09-07)"><metadata
     id="metadata1216"><rdf:RDF><cc:Work
         rdf:about=""><dc:format>image/svg+xml</dc:format><dc:type
           rdf:resource="http://purl.org/dc/dcmitype/StillImage" /><dc:title></dc:title></cc:Work></rdf:RDF></metadata><defs
     id="defs1214" /><sodipodi:namedview
     pagecolor="#ffffff"
     bordercolor="#666666"
     borderopacity="1"
     objecttolerance="10"
     gridtolerance="10"
     guidetolerance="10"
     inkscape:pageopacity="0"
     inkscape:pageshadow="2"
     inkscape:window-width="1294"
     inkscape:window-height="709"
     id="namedview1212"
     showgrid="false"
     inkscape:zoom="0.62059549"
     inkscape:cx="199.33333"
     inkscape:cy="330.85953"
     inkscape:window-x="72"
     inkscape:window-y="22"
     inkscape:window-maximized="1"
     inkscape:current-layer="g1218"
     inkscape:document-rotation="0" /><g
     id="g1218"
     inkscape:groupmode="layer"
     inkscape:label="ink_ext_XXXXXX"
     transform="matrix(1.3333333,0,0,-1.3333333,0,633.50667)"><g
       id="g1220"
       transform="matrix(0.11789101,0,0,0.11632175,0,-77.54947)"><path
         d="M 219.031,4751.3 H 2771.03 c 120.45,0 219.02,-98.56 219.02,-219.01 V 830.332 c 0,-120.473 -98.57,-219.062 -219.02,-219.062 H 219.031 C 98.5664,611.27 0,709.859 0,830.332 V 4532.29 c 0,120.45 98.5664,219.01 219.031,219.01"
         style="fill:#150b26;fill-opacity:1;fill-rule:evenodd;stroke:none"
         id="path1272" /><path
         d="M 148.145,4571.59 H 2841.9 c 55.06,0 100.07,-45.01 100.07,-100.07 V 891.059 C 2941.97,836.012 2896.96,791 2841.9,791 H 148.145 C 93.0859,791 48.082,836.012 48.082,891.059 V 4471.52 c 0,55.06 45.0039,100.07 100.063,100.07"
         style="fill:#890bcc;fill-opacity:1;fill-rule:evenodd;stroke:none"
         id="path1274" /><path
         d="m 1495.05,3297.6 c -340.4,0 -616.327,-275.92 -616.327,-616.29 0,-340.4 275.927,-616.33 616.327,-616.33 340.36,0 616.29,275.93 616.29,616.33 0,340.37 -275.93,616.29 -616.29,616.29 z m 0,369.74 c 544.54,0 985.99,-441.48 985.99,-986.03 0,-544.58 -441.45,-986.02 -985.99,-986.02 -544.581,0 -986.027,441.44 -986.027,986.02 0,544.55 441.446,986.03 986.027,986.03 v 0"
         style="fill:#9a096b;fill-opacity:1;fill-rule:evenodd;stroke:none"
         id="path1276" /><path
         d="m 2281.61,2086.73 c -180.03,-237.78 -465.36,-391.44 -786.56,-391.44 -360.77,0 -676.222,193.75 -848.112,482.86 l 318.007,188.68 c 107.415,-180.74 304.585,-301.85 530.105,-301.85 200.77,0 379.11,96.05 491.63,244.65 l 294.93,-222.9"
         style="fill:#8260fe;fill-opacity:1;fill-rule:evenodd;stroke:none"
         id="path1278" /><path
         d="m 1015.87,4136.45 h 958.31 v 151.16 h -958.31 v -151.16"
         style="fill:#f9e0b8;fill-opacity:1;fill-rule:evenodd;stroke:none"
         id="path1280" /><path
         d="m 364.18,1379.14 h 282.758 v 112.5 H 364.18 v -112.5"
         style="fill:#f9e0b8;fill-opacity:1;fill-rule:evenodd;stroke:none;stroke-width:0.801349"
         id="path1282" /><path
         d="M 852.434,1379.14 H 2407.9 v 112.5 H 852.434 v -112.5"
         style="fill:#f9e0b8;fill-opacity:1;fill-rule:evenodd;stroke:none;stroke-width:0.801349"
         id="path1284" /><path
         d="m 364.18,1126.69 h 282.758 v 112.5 H 364.18 v -112.5"
         style="fill:#6c3d57;fill-opacity:1;fill-rule:evenodd;stroke:none;stroke-width:0.801349"
         id="path1286" /><path
         d="M 852.434,1126.69 H 2407.9 v 112.5 H 852.434 v -112.5"
         style="fill:#6c3d57;fill-opacity:1;fill-rule:evenodd;stroke:none;stroke-width:0.801349"
         id="path1288" /></g><path
       d="m 165.05723,398.81475 h 172.244 c 8.13126,0 14.78206,-6.56641 14.78206,-14.58414 V -27.779379 c 0,-8.022923 -6.6508,-14.59058 -14.78206,-14.59058 h -172.244 c -8.13036,0 -14.78038,6.567657 -14.78038,14.59058 V 384.23061 c 0,8.01773 6.65002,14.58414 14.78038,14.58414"
       style="fill:#d0d0d0;fill-opacity:1;fill-rule:evenodd;stroke:none;stroke-width:0.105651"
       id="path1947" /><path
       d="m 165.94088,379.66759 h 170.47226 c 5.02551,0 9.1364,-4.06033 9.1364,-9.01476 V -14.207941 c 0,-4.953699 -4.11089,-9.009598 -9.1364,-9.009598 H 165.94088 c -5.02012,0 -9.13075,4.055899 -9.13075,9.009598 V 370.65283 c 0,4.95443 4.11063,9.01476 9.13075,9.01476"
       style="fill:#3062b5;fill-opacity:1;fill-rule:evenodd;stroke:none;stroke-width:0.105651"
       id="path1949" /><path
       d="m 167.69752,379.66759 h 166.95962 c 5.9881,0 10.8871,-4.83799 10.8871,-10.74637 V 354.10616 H 156.81013 v 14.81506 c 0,5.90838 4.89834,10.74637 10.88739,10.74637 z M 345.54424,4.0513198 V -12.470125 c 0,-5.913878 -4.899,-10.747414 -10.8871,-10.747414 H 167.69752 c -5.98905,0 -10.88739,4.833536 -10.88739,10.747414 V 4.0513198 h 188.73411 v 0"
       style="fill:#1ba6f2;fill-opacity:1;fill-rule:evenodd;stroke:none;stroke-width:0.105651"
       id="path1951" /><path
       d="m 251.43325,278.01193 c 5.45019,0 10.89858,0 16.34931,0 0,-30.25322 0,-60.51872 0,-90.77876 -5.45073,0 -10.89912,0 -16.34931,0 0,30.26004 0,60.52554 0,90.77876 z m -29.96445,-28.8865 c 5.44931,0 10.89896,0 16.3483,0 0,-20.63031 0,-41.26062 0,-61.89226 -5.44934,0 -10.89899,0 -16.3483,0 0,20.63164 0,41.26195 0,61.89226 z m -29.96088,-28.89061 h 16.35322 v -33.00165 h -16.35322 z m 89.88238,86.67586 h 16.35689 V 187.23317 H 281.3903 v 119.67751 0"
       style="fill:#f9e0b8;fill-opacity:1;fill-rule:evenodd;stroke:none;stroke-width:0.103067"
       id="path1953" /><path
       d="m 217.26327,320.38008 h 67.83305 v 14.3449 h -67.83305 v -14.3449"
       style="fill:#6c3d57;fill-opacity:1;fill-rule:evenodd;stroke:none;stroke-width:0.105651"
       id="path1955" /><path
       d="m 217.26327,150.11555 h 67.83305 v 14.34386 h -67.83305 v -14.34386"
       style="fill:#6c3d57;fill-opacity:1;fill-rule:evenodd;stroke:none;stroke-width:0.105651"
       id="path1957" /><path
       d="m 251.4835,138.62432 c 5.49046,0 10.97909,0 16.47009,0 0,-35.88017 0,-71.770002 0,-107.651708 -5.491,0 -10.97963,0 -16.47009,0 0,35.881706 0,71.771538 0,107.651708 z m -30.18576,-34.25787 c 5.48959,0 10.97949,0 16.46905,0 0,-24.464653 0,-48.930866 0,-73.393838 -5.48956,0 -10.97946,0 -16.46905,0 0,24.462972 0,48.929185 0,73.393838 z m -30.1821,17.01994 h 16.47397 V 30.972612 h -16.47397 z m 90.54616,-2.91355 h 16.47767 V 30.972612 H 281.6618 v 87.500228 0"
       style="fill:#f9e0b8;fill-opacity:1;fill-rule:evenodd;stroke:none;stroke-width:0.112646"
       id="path1959" /></g></svg>
