<?xml version="1.0" encoding="UTF-8" standalone="no"?>
<svg
   xmlns:dc="http://purl.org/dc/elements/1.1/"
   xmlns:cc="http://creativecommons.org/ns#"
   xmlns:rdf="http://www.w3.org/1999/02/22-rdf-syntax-ns#"
   xmlns:svg="http://www.w3.org/2000/svg"
   xmlns="http://www.w3.org/2000/svg"
   xmlns:sodipodi="http://sodipodi.sourceforge.net/DTD/sodipodi-0.dtd"
   xmlns:inkscape="http://www.inkscape.org/namespaces/inkscape"
   version="1.1"
   id="svg1210"
   xml:space="preserve"
   width="350"
   height="520"
   viewBox="0 0 350 520"
   sodipodi:docname="interface1.svg"
   inkscape:version="1.0.1 (3bc2e813f5, 2020-09-07)"><metadata
     id="metadata1216"><rdf:RDF><cc:Work
         rdf:about=""><dc:format>image/svg+xml</dc:format><dc:type
           rdf:resource="http://purl.org/dc/dcmitype/StillImage" /><dc:title></dc:title></cc:Work></rdf:RDF></metadata><defs
     id="defs1214" /><sodipodi:namedview
     pagecolor="#ffffff"
     bordercolor="#666666"
     borderopacity="1"
     objecttolerance="10"
     gridtolerance="10"
     guidetolerance="10"
     inkscape:pageopacity="0"
     inkscape:pageshadow="2"
     inkscape:window-width="1294"
     inkscape:window-height="709"
     id="namedview1212"
     showgrid="false"
     inkscape:zoom="0.62059549"
     inkscape:cx="199.33333"
     inkscape:cy="271.70763"
     inkscape:window-x="72"
     inkscape:window-y="22"
     inkscape:window-maximized="1"
     inkscape:current-layer="g1218" /><g
     id="g1218"
     inkscape:groupmode="layer"
     inkscape:label="ink_ext_XXXXXX"
     transform="matrix(1.3333333,0,0,-1.3333333,0,633.50667)"><g
       id="g1220"
       transform="matrix(0.08779118,0,0,0.08766277,0,58.61791)"><path
         d="M 219.031,4751.3 H 2771.03 c 120.45,0 219.02,-98.56 219.02,-219.01 V 830.332 c 0,-120.473 -98.57,-219.062 -219.02,-219.062 H 219.031 C 98.5664,611.27 0,709.859 0,830.332 V 4532.29 c 0,120.45 98.5664,219.01 219.031,219.01"
         style="fill:#150b26;fill-opacity:1;fill-rule:evenodd;stroke:none"
         id="path1272" /><path
         d="M 148.145,4571.59 H 2841.9 c 55.06,0 100.07,-45.01 100.07,-100.07 V 891.059 C 2941.97,836.012 2896.96,791 2841.9,791 H 148.145 C 93.0859,791 48.082,836.012 48.082,891.059 V 4471.52 c 0,55.06 45.0039,100.07 100.063,100.07"
         style="fill:#890bcc;fill-opacity:1;fill-rule:evenodd;stroke:none"
         id="path1274" /><path
         d="m 1495.05,3297.6 c -340.4,0 -616.327,-275.92 -616.327,-616.29 0,-340.4 275.927,-616.33 616.327,-616.33 340.36,0 616.29,275.93 616.29,616.33 0,340.37 -275.93,616.29 -616.29,616.29 z m 0,369.74 c 544.54,0 985.99,-441.48 985.99,-986.03 0,-544.58 -441.45,-986.02 -985.99,-986.02 -544.581,0 -986.027,441.44 -986.027,986.02 0,544.55 441.446,986.03 986.027,986.03 v 0"
         style="fill:#9a096b;fill-opacity:1;fill-rule:evenodd;stroke:none"
         id="path1276" /><path
         d="m 2281.61,2086.73 c -180.03,-237.78 -465.36,-391.44 -786.56,-391.44 -360.77,0 -676.222,193.75 -848.112,482.86 l 318.007,188.68 c 107.415,-180.74 304.585,-301.85 530.105,-301.85 200.77,0 379.11,96.05 491.63,244.65 l 294.93,-222.9"
         style="fill:#8260fe;fill-opacity:1;fill-rule:evenodd;stroke:none"
         id="path1278" /><path
         d="m 1015.87,4136.45 h 958.31 v 151.16 h -958.31 v -151.16"
         style="fill:#f9e0b8;fill-opacity:1;fill-rule:evenodd;stroke:none"
         id="path1280" /><path
         d="m 364.18,1379.14 h 282.758 v 112.5 H 364.18 v -112.5"
         style="fill:#f9e0b8;fill-opacity:1;fill-rule:evenodd;stroke:none;stroke-width:0.801349"
         id="path1282" /><path
         d="M 852.434,1379.14 H 2407.9 v 112.5 H 852.434 v -112.5"
         style="fill:#f9e0b8;fill-opacity:1;fill-rule:evenodd;stroke:none;stroke-width:0.801349"
         id="path1284" /><path
         d="m 364.18,1126.69 h 282.758 v 112.5 H 364.18 v -112.5"
         style="fill:#6c3d57;fill-opacity:1;fill-rule:evenodd;stroke:none;stroke-width:0.801349"
         id="path1286" /><path
         d="M 852.434,1126.69 H 2407.9 v 112.5 H 852.434 v -112.5"
         style="fill:#6c3d57;fill-opacity:1;fill-rule:evenodd;stroke:none;stroke-width:0.801349"
         id="path1288" /></g><path
       d="m 122.91497,417.61708 h 128.26684 c 6.05519,0 11.00786,-4.94859 11.00786,-10.99097 V 96.125809 c 0,-6.046263 -4.95267,-10.995802 -11.00786,-10.995802 H 122.91497 c -6.05453,0 -11.00668,4.949539 -11.00668,10.995802 V 406.62611 c 0,6.04238 4.95215,10.99097 11.00668,10.99097"
       style="fill:#d0d0d0;fill-opacity:1;fill-rule:evenodd;stroke:none;stroke-width:0.0791465"
       id="path1947" /><path
       d="m 123.573,403.18733 h 126.94745 c 3.74242,0 6.80367,-3.05994 6.80367,-6.79373 V 106.35357 c 0,-3.73323 -3.06125,-6.789853 -6.80367,-6.789853 H 123.573 c -3.73838,0 -6.7995,3.056623 -6.7995,6.789853 V 396.3936 c 0,3.73379 3.06112,6.79373 6.7995,6.79373"
       style="fill:#3062b5;fill-opacity:1;fill-rule:evenodd;stroke:none;stroke-width:0.0791465"
       id="path1949" /><path
       d="m 124.88115,403.18733 h 124.33163 c 4.45923,0 8.10739,-3.646 8.10739,-8.0987 V 383.92365 H 116.7735 v 11.16498 c 0,4.4527 3.64771,8.0987 8.10765,8.0987 z M 257.32017,120.11416 v -12.45095 c 0,-4.45682 -3.64816,-8.099493 -8.10739,-8.099493 H 124.88115 c -4.45994,0 -8.10765,3.642673 -8.10765,8.099493 v 12.45095 h 140.54667 v 0"
       style="fill:#1ba6f2;fill-opacity:1;fill-rule:evenodd;stroke:none;stroke-width:0.0791465"
       id="path1951" /><path
       d="m 187.23753,326.57728 c 4.05866,0 8.11596,0 12.17503,0 0,-22.79955 0,-45.60832 0,-68.41301 -4.05907,0 -8.11637,0 -12.17503,0 0,22.80469 0,45.61346 0,68.41301 z m -22.31395,-21.76956 c 4.058,0 8.11625,0 12.17427,0 0,-15.54747 0,-31.09496 0,-46.64345 -4.05802,0 -8.11627,0 -12.17427,0 0,15.54849 0,31.09598 0,46.64345 z M 142.61229,283.0351 h 12.17794 v -24.87083 h -12.17794 z m 66.93368,65.32092 h 12.18066 v -90.19175 h -12.18066 v 90.19175 0"
       style="fill:#f9e0b8;fill-opacity:1;fill-rule:evenodd;stroke:none;stroke-width:0.0772111"
       id="path1953" /><path
       d="m 161.7918,358.50688 h 50.51397 v 10.81065 H 161.7918 v -10.81065"
       style="fill:#6c3d57;fill-opacity:1;fill-rule:evenodd;stroke:none;stroke-width:0.0791465"
       id="path1955" /><path
       d="m 161.7918,230.19158 h 50.51397 v 10.80985 H 161.7918 v -10.80985"
       style="fill:#6c3d57;fill-opacity:1;fill-rule:evenodd;stroke:none;stroke-width:0.0791465"
       id="path1957" /><path
       d="m 187.27496,221.5315 c 4.08863,0 8.17592,0 12.26495,0 0,-27.04011 0,-54.08751 0,-81.12883 -4.08903,0 -8.17632,0 -12.26495,0 0,27.04132 0,54.08872 0,81.12883 z M 164.7962,195.71398 c 4.08799,0 8.17621,0 12.26419,0 0,-18.4371 0,-36.87542 0,-55.31131 -4.08798,0 -8.1762,0 -12.26419,0 0,18.43589 0,36.87421 0,55.31131 z m -22.47606,12.82663 H 154.588 v -68.13794 h -12.26786 z m 67.42802,-2.19575 h 12.27062 v -65.94219 h -12.27062 v 65.94219 0"
       style="fill:#f9e0b8;fill-opacity:1;fill-rule:evenodd;stroke:none;stroke-width:0.0843878"
       id="path1959" /></g></svg>
