<?xml version="1.0" encoding="UTF-8" standalone="no"?>
<svg
   xmlns:dc="http://purl.org/dc/elements/1.1/"
   xmlns:cc="http://creativecommons.org/ns#"
   xmlns:rdf="http://www.w3.org/1999/02/22-rdf-syntax-ns#"
   xmlns:svg="http://www.w3.org/2000/svg"
   xmlns="http://www.w3.org/2000/svg"
   xmlns:sodipodi="http://sodipodi.sourceforge.net/DTD/sodipodi-0.dtd"
   xmlns:inkscape="http://www.inkscape.org/namespaces/inkscape"
   version="1.1"
   id="svg2785"
   xml:space="preserve"
   width="670"
   height="480"
   viewBox="0 0 670 480"
   sodipodi:docname="laptop.svg"
   inkscape:version="1.0.1 (0767f8302a, 2020-10-17)"><metadata
     id="metadata2791"><rdf:RDF><cc:Work
         rdf:about=""><dc:format>image/svg+xml</dc:format><dc:type
           rdf:resource="http://purl.org/dc/dcmitype/StillImage" /><dc:title></dc:title></cc:Work></rdf:RDF></metadata><defs
     id="defs2789" /><sodipodi:namedview
     pagecolor="#ffffff"
     bordercolor="#666666"
     borderopacity="1"
     objecttolerance="10"
     gridtolerance="10"
     guidetolerance="10"
     inkscape:pageopacity="0"
     inkscape:pageshadow="2"
     inkscape:window-width="1528"
     inkscape:window-height="837"
     id="namedview2787"
     showgrid="false"
     inkscape:zoom="0.6833172"
     inkscape:cx="388.09332"
     inkscape:cy="467.27587"
     inkscape:window-x="72"
     inkscape:window-y="26"
     inkscape:window-maximized="1"
     inkscape:current-layer="g2793" /><g
     id="g2793"
     inkscape:groupmode="layer"
     inkscape:label="ink_ext_XXXXXX"
     transform="matrix(1.3333333,0,0,-1.3333333,0,707.81333)"><g
       id="g3505"
       transform="translate(-1.5617968e-4,0.00101112)"><path
         d="m 451.49459,294.97511 51.00558,0.24494 -224.79863,108.42324 109.17828,-78.41574 64.61477,-30.25244"
         style="fill:#949595;fill-opacity:1;fill-rule:evenodd;stroke:none;stroke-width:0.0865882"
         id="path2847" /><path
         d="m 216.00956,304.03086 c -14.5544,4.43928 -28.61764,8.7257 -42.26654,12.89051 -13.19918,4.02845 -25.96503,7.93616 -38.38647,11.72575 -7.46063,2.27653 -19.42544,1.55736 -26.88952,-1.64595 C 94.630814,321.0636 79.946761,314.75862 64.333302,308.06018 47.674594,300.91442 29.887255,293.27531 10.856131,285.10637 -0.50272496,280.23106 -3.5546069,273.17563 4.6046533,269.51633 32.778022,256.88292 63.360563,243.16466 96.604087,228.25732 132.9862,211.94376 172.8729,194.06416 216.90642,174.32408 c 14.29285,-6.40921 33.72519,-3.63933 42.35632,5.93236 16.72448,18.53885 31.7709,35.19723 45.31709,50.20793 12.30318,13.6314 23.5265,26.07373 33.79943,37.45378 5.57108,6.17036 -1.18432,14.22117 -14.5708,18.11064 -18.53462,5.38516 -36.45722,10.59574 -53.72983,15.60828 -4.72084,1.37061 -9.60223,1.9291 -14.94112,1.6998 -8.06227,-0.3483 -16.15304,-0.67836 -24.30337,-1.02231 -5.44506,-0.23104 -10.31782,0.34135 -14.82458,1.7163"
         style="fill:#df8c16;fill-opacity:1;fill-rule:evenodd;stroke:none;stroke-width:0.0865882"
         id="path2849" /><path
         d="m 197.86942,202.61354 c -35.59141,15.16009 -68.41542,29.15456 -98.772414,42.0911 -28.137961,11.99154 -54.382235,23.1753 -78.831659,33.59037 12.774311,5.74996 24.969674,11.23935 36.642112,16.48206 11.148389,5.00733 21.827112,9.8036 32.081485,14.40704 23.276166,-8.1203 48.070696,-16.76782 74.433656,-25.95734 28.17828,-9.8201 58.36176,-20.34374 90.75503,-31.62565 -8.23233,-7.10146 -16.8531,-14.5712 -25.921,-22.45698 -9.56771,-8.32181 -19.67059,-17.16911 -30.38721,-26.5306"
         style="fill:#fbf7df;fill-opacity:1;fill-rule:evenodd;stroke:none;stroke-width:0.0865882"
         id="path2851" /><path
         d="m 129.85193,250.34169 c -16.27734,6.55686 -31.896936,12.86011 -46.927132,18.92189 -14.44581,5.82639 -28.35471,11.4313 -41.747849,16.83904 -7.992619,3.22762 -5.985076,9.45443 4.013272,13.74432 16.803034,7.21003 32.572214,13.97449 47.393948,20.3368 13.946711,5.98621 27.104461,11.63281 39.538841,16.97193 6.72777,2.88801 17.98388,3.51426 25.27792,1.43228 24.83683,-7.09104 51.20928,-14.61636 79.18298,-22.60203 29.80109,-8.50769 61.59789,-17.58081 95.57772,-27.28192 10.8271,-3.09038 16.40424,-9.49438 12.04594,-14.32365 -9.74983,-10.8042 -20.38185,-22.57685 -32.01001,-35.46562 -12.77534,-14.1621 -26.89901,-29.81468 -42.5514,-47.1575 -9.89313,-10.96227 -32.85336,-14.19598 -50.01979,-6.72711 -23.49715,10.22138 -45.83157,19.94073 -67.03951,29.18236 -5.74804,2.50583 -8.99884,5.80815 -9.96735,10.00684 -1.40702,6.1 -2.68369,11.97938 -3.96554,17.65985 -0.82263,3.64714 -3.71607,6.41442 -8.80204,8.46252"
         style="fill:#fbca07;fill-opacity:1;fill-rule:evenodd;stroke:none;stroke-width:0.0865882"
         id="path2853" /><path
         d="m 296.59178,307.37227 c 13.19832,3.29276 25.95123,6.47261 38.3295,9.563 11.96825,2.98702 23.54462,5.88719 34.80764,8.69877 6.76576,1.68764 17.61444,0.43429 24.38537,-2.84806 12.54488,-6.08175 25.86231,-12.537 40.01965,-19.39873 15.10684,-7.31861 31.23831,-15.14185 48.49452,-23.50796 10.30056,-4.99343 13.06969,-11.54509 5.66949,-14.45221 -25.54724,-10.03724 -53.28096,-20.93698 -83.42647,-32.77998 -32.9932,-12.96174 -69.16296,-27.1664 -109.09369,-42.85024 -12.96266,-5.09158 -30.58401,-1.59905 -38.41236,7.51317 -15.16468,17.6555 -28.80755,33.51827 -41.09259,47.8124 -11.15513,12.98171 -21.33311,24.82993 -30.64962,35.66712 -5.0523,5.87678 1.07382,12.83579 13.21299,15.68819 16.80735,3.95114 33.0588,7.77374 48.72242,11.44868 4.28146,1.00494 8.70794,1.26638 13.55222,0.78779 7.30784,-0.72004 14.64503,-1.42706 22.03834,-2.15059 4.93663,-0.48292 9.35362,-0.21019 13.44259,0.80865"
         style="fill:#4ba6ce;fill-opacity:1;fill-rule:evenodd;stroke:none;stroke-width:0.0865882"
         id="path2855" /><path
         d="m 313.04177,214.49216 c 32.27415,11.95418 62.04071,22.99289 89.56727,33.1943 25.51703,9.45616 49.31629,18.27653 71.48842,26.48977 -11.58499,5.85767 -22.6443,11.44868 -33.22972,16.79215 -10.10805,5.102 -19.79228,9.98947 -29.09153,14.67977 -21.10695,-6.1912 -43.59156,-12.78455 -67.49699,-19.78786 -25.55242,-7.48711 -52.92447,-15.51013 -82.29913,-24.10814 7.46409,-6.85566 15.2838,-14.06396 23.50491,-21.67093 8.67515,-8.0291 17.83542,-16.55936 27.55677,-25.58906"
         style="fill:#fbf7df;fill-opacity:1;fill-rule:evenodd;stroke:none;stroke-width:0.0865882"
         id="path2857" /><path
         d="m 374.7208,254.34755 c 14.7607,5.12546 28.92494,10.05549 42.55658,14.79529 13.09819,4.55481 25.71038,8.9385 37.8556,13.16672 7.24915,2.52321 5.42779,8.27143 -3.63839,12.66555 -15.23719,7.38462 -29.53694,14.31323 -42.97955,20.82927 -12.64587,6.13127 -24.57614,11.91337 -35.85556,17.38278 -6.09764,2.95663 -16.30669,4.09185 -22.92225,2.57098 -22.51914,-5.17931 -46.43666,-10.67478 -71.80177,-16.50725 -27.02763,-6.21205 -55.8602,-12.83927 -86.67555,-19.92423 -9.81543,-2.25829 -14.87378,-7.78242 -10.92291,-12.38326 8.84347,-10.28826 18.48367,-21.50068 29.02765,-33.77363 11.58673,-13.48636 24.39142,-28.39196 38.58673,-44.90702 8.97036,-10.44027 29.79418,-14.52778 45.36025,-8.61973 21.30548,8.08555 41.56045,15.77417 60.79425,23.0867 5.21027,1.98121 8.15809,4.81363 9.03683,8.57109 1.27408,5.46072 2.43509,10.72949 3.59522,15.81499 0.74581,3.26671 3.37166,5.63097 7.98287,7.23175"
         style="fill:#62c3e8;fill-opacity:1;fill-rule:evenodd;stroke:none;stroke-width:0.0865882"
         id="path2859" /><path
         d="m 450.93783,295.2435 c -15.03002,7.28473 -29.14419,14.12475 -42.42279,20.56088 -12.64587,6.13127 -24.57614,11.91424 -35.85556,17.38278 -6.09764,2.95663 -16.30669,4.09185 -22.92225,2.57011 -22.51914,-5.17844 -46.43666,-10.67478 -71.80177,-16.50638 l -8.56725,-1.96906 -1.87918,-110.09438 23.63439,1.62337 128.40777,84.52095 31.40664,1.91173"
         style="fill:#3d8ab2;fill-opacity:1;fill-rule:evenodd;stroke:none;stroke-width:0.0865882"
         id="path2861" /><path
         d="m 70.207803,305.49093 197.281227,-98.30348 133.79586,83.2068 2.47393,9.31198 -193.20986,70.36667 -144.999411,-54.52822 4.658254,-10.05375"
         style="fill:#26201e;fill-opacity:1;fill-rule:evenodd;stroke:none;stroke-width:0.0865882"
         id="path2863" /><path
         d="m 244.95867,362.88197 c -13.59539,4.14657 -26.73069,8.1507 -39.47928,12.04191 -12.32734,3.76093 -24.25072,7.41155 -35.85384,10.95186 -6.9686,2.1254 -18.14271,1.45399 -25.11478,-1.53825 -12.92295,-5.54671 -26.63832,-11.43391 -41.22293,-17.69112 -15.56003,-6.67499 -32.172037,-13.81033 -49.94781,-21.43901 -10.611307,-4.55394 -13.461245,-11.14468 -5.841786,-14.56165 26.316782,-11.80045 54.881516,-24.61452 85.931646,-38.53777 33.98242,-15.23739 71.23982,-31.93747 112.36522,-50.3773 13.3511,-5.98621 31.50245,-3.39786 39.56473,5.54238 15.61958,17.31589 29.67419,32.87553 42.32783,46.89605 11.48832,12.73156 21.97273,24.35308 31.56805,34.98269 5.20337,5.76386 -1.10575,13.28224 -13.61006,16.91548 -17.31145,5.03079 -34.05148,9.89828 -50.1838,14.57902 -4.41181,1.27941 -8.96778,1.80229 -13.95707,1.58776 -7.52969,-0.32485 -15.087,-0.6332 -22.70041,-0.95457 -5.08597,-0.2154 -9.63502,0.31877 -13.84571,1.60252"
         style="fill:#87b027;fill-opacity:1;fill-rule:evenodd;stroke:none;stroke-width:0.0865882"
         id="path2865" /><path
         d="m 228.01493,268.15528 c -33.24353,14.15949 -63.90349,27.2324 -92.25613,39.316 -26.28096,11.1994 -50.79573,21.64574 -73.631749,31.3729 11.932433,5.37126 23.322604,10.49759 34.224982,15.39461 10.413627,4.67727 20.388757,9.15738 29.965967,13.45682 21.74052,-7.58526 44.89929,-15.66213 69.52119,-24.24451 26.3198,-9.17301 54.51274,-19.00267 84.7696,-29.53934 -7.68937,-6.6333 -15.74216,-13.60969 -24.21015,-20.97606 -8.93756,-7.77287 -18.37233,-16.03562 -28.38371,-24.78042"
         style="fill:#fbf7df;fill-opacity:1;fill-rule:evenodd;stroke:none;stroke-width:0.0865882"
         id="path2867" /><path
         d="m 164.48261,312.73484 c -15.2018,6.12432 -29.78986,12.01238 -43.83066,17.67375 -13.4918,5.44162 -26.482085,10.67825 -38.993292,15.72814 -7.465982,3.01395 -5.58887,8.83079 3.749564,12.83753 15.693998,6.73405 30.421898,13.0538 44.266748,18.99658 13.02654,5.59014 25.31504,10.86326 36.93197,15.85148 6.28237,2.69692 16.797,3.28234 23.60937,1.33674 23.19761,-6.62288 47.83245,-13.65225 73.9589,-21.10983 27.83558,-7.94659 57.53653,-16.42126 89.27292,-25.48223 10.11323,-2.88627 15.32264,-8.86727 11.25179,-13.37951 -9.10675,-10.0911 -19.03785,-21.08899 -29.89776,-33.12482 -11.93373,-13.22838 -25.12514,-27.84909 -39.74428,-44.048 -9.24228,-10.23875 -30.68845,-13.25965 -46.72065,-6.28326 -21.94511,9.54736 -42.80864,18.6257 -62.6182,27.25846 -5.36737,2.33994 -8.40323,5.42424 -9.30787,9.34586 -1.31552,5.69784 -2.50846,11.18897 -3.70485,16.49509 -0.76738,3.40655 -3.47179,5.99055 -8.2237,7.90402"
         style="fill:#9ac421;fill-opacity:1;fill-rule:evenodd;stroke:none;stroke-width:0.0865882"
         id="path2869" /><path
         d="M 65.549549,315.54468 267.01513,214.66587 403.75882,299.70623 208.98398,381.54763 65.549549,315.54468"
         style="fill:#463d3b;fill-opacity:1;fill-rule:evenodd;stroke:none;stroke-width:0.0865882"
         id="path2871" /><path
         d="M 444.66065,460.50797 403.75882,299.70623 208.98398,381.5485 237.76649,530.859 444.66065,460.50797"
         style="fill:#d7c9c4;fill-opacity:1;fill-rule:evenodd;stroke:none;stroke-width:0.0865882"
         id="path2873" /><path
         d="M 243.35571,520.63762 217.72041,386.26833 398.50797,310.3011 435.42614,455.56404 243.35571,520.63762"
         style="fill:#4ba6ce;fill-opacity:1;fill-rule:evenodd;stroke:none;stroke-width:0.0865882"
         id="path2875" /><path
         d="m 219.74117,396.86667 -2.02076,-10.59834 7.50121,-3.15206 186.817,-19.57505 11.92769,46.92993 z m 10.87544,57.00192 -6.55513,-34.35819 209.02884,26.85805 2.33582,9.19559 -105.45359,35.72706 -99.35594,-37.42251 v 0"
         style="fill:#58b6dc;fill-opacity:1;fill-rule:evenodd;stroke:none;stroke-width:0.0865882"
         id="path2877" /><path
         d="m 148.17161,347.28759 57.30778,27.63629 178.85227,-75.09257 -58.18048,-33.60079 -177.97957,81.05707"
         style="fill:#26201e;fill-opacity:1;fill-rule:evenodd;stroke:none;stroke-width:0.0865882"
         id="path2879" /><path
         d="m 158.32627,304.29404 35.67171,17.20124 51.51141,-23.44455 -34.02904,-19.6541 -53.15408,25.89741"
         style="fill:#26201e;fill-opacity:1;fill-rule:evenodd;stroke:none;stroke-width:0.0865882"
         id="path2881" /></g></g></svg>
