<?xml version="1.0" encoding="UTF-8" standalone="no"?>
<svg
   xmlns:dc="http://purl.org/dc/elements/1.1/"
   xmlns:cc="http://creativecommons.org/ns#"
   xmlns:rdf="http://www.w3.org/1999/02/22-rdf-syntax-ns#"
   xmlns:svg="http://www.w3.org/2000/svg"
   xmlns="http://www.w3.org/2000/svg"
   xmlns:sodipodi="http://sodipodi.sourceforge.net/DTD/sodipodi-0.dtd"
   xmlns:inkscape="http://www.inkscape.org/namespaces/inkscape"
   width="670"
   height="480"
   version="1.1"
   viewBox="0 0 670 480"
   xml:space="preserve"
   id="svg50"
   sodipodi:docname="laptop.svg"
   inkscape:version="1.0.2 (394de47547, 2021-03-26)"><metadata
     id="metadata56"><rdf:RDF><cc:Work
         rdf:about=""><dc:format>image/svg+xml</dc:format><dc:type
           rdf:resource="http://purl.org/dc/dcmitype/StillImage" /></cc:Work></rdf:RDF></metadata><defs
     id="defs54" /><sodipodi:namedview
     pagecolor="#ffffff"
     bordercolor="#666666"
     borderopacity="1"
     objecttolerance="10"
     gridtolerance="10"
     guidetolerance="10"
     inkscape:pageopacity="0"
     inkscape:pageshadow="2"
     inkscape:window-width="1528"
     inkscape:window-height="837"
     id="namedview52"
     showgrid="false"
     inkscape:zoom="1.3313433"
     inkscape:cx="335"
     inkscape:cy="240"
     inkscape:window-x="72"
     inkscape:window-y="26"
     inkscape:window-maximized="1"
     inkscape:current-layer="svg50" /><path
     d="m 601.97141,314.51182 68.0063,-0.32658 -299.72584,-144.55639 145.56969,104.55205 86.15118,40.335"
     fill="#949595"
     id="path10"
     style="fill-rule:evenodd;stroke-width:1.3333" /><path
     d="m 288.00592,302.44545 c -19.40484,-5.91892 -38.15637,-11.63397 -56.35459,-17.18757 -17.59822,-5.37107 -34.61913,-10.58133 -51.18005,-15.63428 -9.94722,-3.03525 -25.89935,-2.07648 -35.85244,2.19462 -18.44754,7.9166 -38.02571,16.32359 -58.843859,25.25403 -22.211445,9.5275 -45.926852,19.71284 -71.300884,30.60457 -15.14495513,6.50024 -19.2141867,15.9076 -8.3351254,20.78615 37.5630614,16.84358 78.3393744,35.13512 122.6622684,55.01062 48.50812,21.75146 101.68946,45.58953 160.39599,71.90887 19.05686,8.54539 44.96554,4.85228 56.47325,-7.90967 22.29811,-24.71805 42.36028,-46.92816 60.42116,-66.94232 16.40359,-18.17422 31.36722,-34.76447 45.06421,-49.93742 7.42794,-8.227 -1.57903,-18.96086 -19.42752,-24.1474 -24.71271,-7.18009 -48.60812,-14.12765 -71.63821,-20.81015 -6.29424,-1.82742 -12.80261,-2.57206 -19.92083,-2.26634 -10.74947,0.46439 -21.5368,0.90446 -32.40319,1.36303 -7.25995,0.30805 -13.75699,-0.45512 -19.76618,-2.28834"
     fill="#df8c16"
     id="path12"
     style="fill-rule:evenodd;stroke-width:1.3333" /><path
     d="M 263.81986,437.66874 C 216.36638,417.45591 172.60214,398.79638 132.12716,381.54881 94.61076,365.55987 59.619635,350.64958 27.02045,336.76326 c 17.031574,-7.66648 33.292501,-14.98496 48.854778,-21.97545 14.863629,-6.67623 29.101942,-13.07114 42.773602,-19.20885 31.03389,10.82679 64.09306,22.35677 99.24285,34.60846 37.56973,13.09314 77.81405,27.12466 121.00364,42.16695 -10.97613,9.46843 -22.47011,19.42751 -34.56047,29.94192 -12.75661,11.09545 -26.22734,22.89143 -40.51499,35.37378"
     fill="#fbf7df"
     id="path14"
     style="fill-rule:evenodd;stroke-width:1.3333" /><path
     d="m 173.1288,374.03033 c -21.70213,-8.74232 -42.52827,-17.14624 -62.56777,-25.2287 -19.260854,-7.76834 -37.805724,-15.24096 -55.662611,-22.45144 -10.656533,-4.30336 -7.979934,-12.60555 5.350933,-18.32488 22.40344,-9.61309 43.428248,-18.63153 63.190418,-27.11532 18.59554,-7.9814 36.13777,-15.51028 52.71735,-22.62877 8.97018,-3.85057 23.97807,-4.68561 33.70316,-1.90968 33.11517,9.45443 68.27696,19.48751 105.57469,30.13524 39.73368,11.34332 82.12862,23.44075 127.43415,36.37509 14.43564,4.12043 21.87145,12.65889 16.06093,19.09819 -12.99941,14.40498 -27.17532,30.10192 -42.67893,47.28682 -17.03291,18.8822 -35.86444,39.75234 -56.73325,62.87576 -13.19047,14.61564 -43.8029,18.92753 -66.69167,8.96924 -31.32855,-13.62766 -61.1078,-26.58733 -89.38443,-38.90836 -7.66381,-3.34098 -11.9981,-7.74407 -13.28953,-13.34233 -1.87596,-8.13313 -3.57818,-15.9716 -5.2872,-23.54608 -1.09682,-4.86268 -4.95468,-8.55232 -11.73571,-11.28305"
     fill="#fbca07"
     id="path16"
     style="fill-rule:evenodd;stroke-width:1.3333" /><path
     d="m 395.44324,297.99223 c 17.59689,-4.39029 34.60047,-8.62992 51.10539,-12.75035 15.95693,-3.98257 31.39255,-7.8494 46.4095,-11.59811 9.02085,-2.25008 23.48475,-0.57904 32.51252,3.79737 16.72625,8.10887 34.48181,16.71558 53.35867,25.86469 20.14216,9.75789 41.64963,20.18883 64.65838,31.34322 13.73433,6.6577 17.42624,15.39294 7.55915,19.26885 -34.06182,13.38233 -71.03956,27.9153 -111.23189,43.70557 -43.98956,17.28224 -92.21503,36.22043 -145.44969,57.13191 -17.28357,6.78863 -40.77765,2.13194 -51.21472,-10.01735 -20.2195,-23.54075 -38.40971,-44.68955 -54.7893,-63.74774 -14.87296,-17.3089 -28.44329,-33.10584 -40.86565,-47.55481 -6.73623,-7.83554 1.4317,-17.11424 17.6169,-20.91681 22.40877,-5.26801 44.07756,-10.36468 64.96104,-15.26496 5.70852,-1.33983 11.61024,-1.68849 18.06888,-1.05036 9.74349,0.96003 19.52618,1.90276 29.38327,2.8674 6.58197,0.64388 12.47115,0.28025 17.92355,-1.07817"
     fill="#4ba6ce"
     id="path18"
     style="fill-rule:evenodd;stroke-width:1.3333" /><path
     d="m 417.37602,421.82913 c 43.03093,-15.93827 82.71927,-30.65656 119.41968,-44.25756 34.02182,-12.60795 65.75303,-24.36872 95.31496,-35.31911 -15.44629,-7.81008 -30.19125,-15.26496 -44.30556,-22.38878 -13.477,-6.80249 -26.38868,-13.319 -38.78837,-19.57284 -28.14196,8.25473 -58.12121,17.04624 -89.99375,26.38334 -34.06848,9.98255 -70.56357,20.67948 -109.72925,32.14319 9.95188,9.14071 20.37815,18.75154 31.33921,28.89395 11.56665,10.7052 23.77941,22.07811 36.74175,34.11781"
     fill="#fbf7df"
     id="path20"
     style="fill-rule:evenodd;stroke-width:1.3333" /><path
     d="m 499.61397,368.68379 c 19.68084,-6.83382 38.5657,-13.40633 56.74125,-19.72617 17.46356,-6.07291 34.27914,-11.9177 50.4734,-17.55556 9.66536,-3.36418 7.23689,-11.02826 -4.85108,-16.88758 -20.31549,-9.84588 -39.38168,-19.08352 -57.30523,-27.7713 -16.86091,-8.17487 -32.76718,-15.88361 -47.80681,-23.17676 -8.12993,-3.94203 -21.74212,-5.45559 -30.5619,-3.42791 -30.02458,6.90556 -61.91445,14.23298 -95.73361,22.00878 -36.03643,8.28246 -74.47813,17.11824 -115.56511,26.56467 -13.08687,3.01099 -19.8315,10.37627 -14.56363,16.51025 11.79104,13.717 24.64471,28.66729 38.70303,45.03088 15.44895,17.98088 32.52052,37.85505 51.44805,59.8745 11.96023,13.91965 39.72434,19.37018 60.47848,11.49265 28.40596,-10.78053 55.41195,-21.03148 81.05664,-30.7819 6.9469,-2.64153 10.8772,-6.41797 12.04877,-11.42785 1.69876,-7.28075 3.24672,-14.30497 4.79348,-21.08614 0.99439,-4.35549 4.49549,-7.50781 10.6436,-9.64215"
     fill="#62c3e8"
     id="path22"
     style="fill-rule:evenodd;stroke-width:1.3333" /><path
     d="m 601.23809,314.16516 c -20.0395,-9.71269 -38.85769,-18.83286 -56.56258,-27.41398 -16.86091,-8.17487 -32.76718,-15.88494 -47.80681,-23.17676 -8.12993,-3.94203 -21.74212,-5.45559 -30.5619,-3.42671 -30.02458,6.90436 -61.91445,14.23298 -95.73361,22.00745 l -11.42264,2.6254 -2.50554,146.783 31.51121,-2.16448 171.20905,-112.69185 41.87496,-2.54887"
     fill="#3d8ab2"
     id="path24"
     style="fill-rule:evenodd;stroke-width:1.3333" /><path
     d="m 93.608118,300.49883 263.033422,131.06739 178.39554,-110.93989 3.29845,-12.41569 -257.60689,-93.82032 -193.3285,72.70218 6.210911,13.405"
     fill="#26201e"
     id="path26"
     style="fill-rule:evenodd;stroke-width:1.3333" /><path
     d="m 326.60496,223.98075 c -18.12621,-5.52867 -35.64044,-10.86733 -52.63735,-16.0556 -16.43559,-5.01441 -32.33386,-9.88189 -47.80414,-14.6023 -9.29123,-2.8338 -24.19006,-1.93862 -33.48583,2.05088 -17.23023,7.39541 -35.51644,15.24495 -54.96262,23.58741 -20.74615,8.89978 -42.894932,18.41287 -66.595673,28.58462 -14.147646,6.07171 -17.947551,14.85963 -7.788872,19.41551 35.088456,15.73294 73.174175,32.81918 114.573135,51.38272 45.3082,20.31549 94.98429,42.5816 149.82292,67.16765 17.80089,7.9814 42.00162,4.53042 52.75202,-7.38968 20.82614,-23.08742 39.56434,-43.83357 56.43592,-62.52644 15.31695,-16.97557 29.2966,-32.46985 42.08961,-46.64283 6.9377,-7.68501 -1.47436,-17.70889 -18.14621,-22.55277 -23.08076,-6.70757 -45.4002,-13.1974 -66.91033,-19.43818 -5.88225,-1.70583 -11.95676,-2.40301 -18.60887,-2.11702 -10.03934,0.43313 -20.11549,0.84425 -30.26591,1.27273 -6.78116,0.2872 -12.84634,-0.42501 -18.46087,-2.13661"
     fill="#87b027"
     id="path28"
     style="fill-rule:evenodd;stroke-width:1.3333;fill:#690159;fill-opacity:1" /><path
     d="M 304.00552,350.27092 C 259.6813,331.39273 218.80365,313.9625 181.0006,297.8509 145.96014,282.91927 113.27429,268.99029 82.827054,256.02128 c 15.908936,-7.16156 31.096556,-13.99699 45.632196,-20.52616 13.88498,-6.23624 27.18465,-12.20956 39.95366,-17.94221 28.98728,10.11348 59.86384,20.88214 92.69235,32.32586 35.09246,12.23036 72.68219,25.3367 113.02384,39.38434 -10.25227,8.84418 -20.9888,18.14622 -32.27919,27.9673 -11.9165,10.36361 -24.49539,21.3808 -37.84439,33.03918"
     fill="#fbf7df"
     id="path30"
     style="fill-rule:evenodd;stroke-width:1.3333" /><path
     d="m 219.30098,290.84574 c -20.26883,-8.16553 -39.71901,-16.0156 -58.43988,-23.56474 -17.98888,-7.25529 -35.30845,-14.23698 -51.98936,-20.97015 -9.954421,-4.01856 -7.45168,-11.7741 4.99934,-17.1169 20.92481,-8.97844 40.56165,-17.4049 59.02119,-25.3287 17.3689,-7.45328 33.75249,-14.48364 49.24143,-21.13414 8.37633,-3.59578 22.39545,-4.37629 31.47788,-1.78222 30.9299,8.83031 63.77441,18.20221 98.60954,28.14596 37.11374,10.5952 76.71408,21.89412 119.02769,33.97515 13.48366,3.84831 20.43016,11.82277 15.00229,17.83956 -12.14209,13.45433 -25.38336,28.11796 -39.863,44.16556 -15.9116,17.63689 -33.49916,37.13107 -52.99068,58.7292 -12.32276,13.65166 -40.91631,17.67955 -62.29311,8.37752 -29.25926,-12.72955 -57.07724,-24.83404 -83.48858,-36.34309 -7.15635,-3.11979 -11.20398,-7.23209 -12.41022,-12.46089 -1.75395,-7.59688 -3.34458,-14.91829 -4.93961,-21.99278 -1.02315,-4.54202 -4.62895,-7.98727 -10.96466,-10.53841"
     fill="#9ac421"
     id="path32"
     style="fill-rule:evenodd;stroke-width:1.3333;fill:#970159;fill-opacity:1" /><path
     d="M 87.397607,287.09917 356.01756,421.60247 538.333,308.21864 278.64616,199.10003 87.41094,287.10183"
     fill="#463d3b"
     id="path34"
     style="fill-rule:evenodd;stroke-width:1.3333" /><path
     d="M 592.86497,93.810667 538.33033,308.20531 278.64349,199.08537 317.01987,0.0103454 592.8663,93.809334"
     fill="#d7c9c4"
     id="path36"
     style="fill-rule:evenodd;stroke-width:1.3333" /><path
     d="M 324.47168,13.639338 290.29253,192.79486 531.33984,294.08166 580.56261,100.4065 324.47568,13.643338"
     fill="#4ba6ce"
     id="path38"
     style="fill-rule:evenodd;stroke-width:1.3333" /><path
     d="m 292.97913,178.66188 -2.69433,14.13031 10.00135,4.2027 249.08711,26.09934 15.9036,-62.57176 z m 14.49964,-76.00077 -8.73991,45.80952 278.6997,-35.80977 3.11432,-12.26049 -140.59649,-47.63481 -132.47135,49.89609"
     fill="#58b6dc"
     id="path40"
     style="fill-rule:evenodd;stroke-width:1.3333" /><path
     d="m 197.55485,244.76689 76.40876,-36.84708 238.4607,100.1215 -77.57139,44.80021 -237.30073,-108.07329"
     fill="#26201e"
     id="path42"
     style="fill-rule:evenodd;stroke-width:1.3333" /><path
     d="m 211.10118,302.09879 47.56148,-22.93409 68.67961,31.25922 -45.37086,26.20468 -70.87023,-34.52847"
     fill="#26201e"
     id="path44"
     style="fill-rule:evenodd;stroke-width:1.3333" /></svg>
