<?xml version="1.0" encoding="UTF-8" standalone="no"?>
<svg
   xmlns:dc="http://purl.org/dc/elements/1.1/"
   xmlns:cc="http://creativecommons.org/ns#"
   xmlns:rdf="http://www.w3.org/1999/02/22-rdf-syntax-ns#"
   xmlns:svg="http://www.w3.org/2000/svg"
   xmlns="http://www.w3.org/2000/svg"
   xmlns:sodipodi="http://sodipodi.sourceforge.net/DTD/sodipodi-0.dtd"
   xmlns:inkscape="http://www.inkscape.org/namespaces/inkscape"
   width="180"
   height="60"
   viewBox="0 0 47.625001 15.875001"
   version="1.1"
   id="svg8"
   inkscape:version="1.0.1 (0767f8302a, 2020-10-17)"
   sodipodi:docname="logo.svg">
  <defs
     id="defs2" />
  <sodipodi:namedview
     id="base"
     pagecolor="#ffffff"
     bordercolor="#666666"
     borderopacity="1.0"
     inkscape:pageopacity="0.0"
     inkscape:pageshadow="2"
     inkscape:zoom="4.5625"
     inkscape:cx="97.590364"
     inkscape:cy="27.078934"
     inkscape:document-units="mm"
     inkscape:current-layer="text515"
     inkscape:document-rotation="0"
     showgrid="false"
     units="px"
     inkscape:window-width="1528"
     inkscape:window-height="837"
     inkscape:window-x="72"
     inkscape:window-y="26"
     inkscape:window-maximized="1" />
  <metadata
     id="metadata5">
    <rdf:RDF>
      <cc:Work
         rdf:about="">
        <dc:format>image/svg+xml</dc:format>
        <dc:type
           rdf:resource="http://purl.org/dc/dcmitype/StillImage" />
        <dc:title />
      </cc:Work>
    </rdf:RDF>
  </metadata>
  <g
     inkscape:label="Layer 1"
     inkscape:groupmode="layer"
     id="layer1">
    <g
       id="g105"
       transform="matrix(0.06735118,0.02500028,-0.02500028,0.06735118,3.5016754,-1.7672893)"
       style="fill:#ffffff;fill-opacity:1">
      <path
         d="m 98.176,81.001 c 0,1.006 0.819,1.823 1.824,1.823 h 43.086 c 1,0 1.825,-0.817 1.825,-1.823 v -1.153 c 0,-1.004 -0.825,-1.828 -1.825,-1.828 H 100 c -1.004,0 -1.824,0.823 -1.824,1.828 z"
         fill="#5e889e"
         id="path83"
         style="fill:#ffffff;fill-opacity:1" />
      <path
         d="m 100,69.118 h 43.086 c 1,0 1.825,-0.823 1.825,-1.823 v -1.157 c 0,-1 -0.825,-1.824 -1.825,-1.824 H 100 c -1.004,0 -1.824,0.823 -1.824,1.824 v 1.157 c 0,0.999 0.82,1.823 1.824,1.823 z"
         fill="#5e889e"
         id="path85"
         style="fill:#ffffff;fill-opacity:1" />
      <path
         d="m 156.999,14.894 h -24.018 c 0.004,0.152 0.021,0.301 0.021,0.453 v 13.225 h 19.439 c 2.509,0 4.558,2.047 4.558,4.558 v 116.716 l -36.472,36.476 H 47.559 c -2.509,0 -4.558,-2.053 -4.558,-4.558 V 33.129 c 0,-2.511 2.049,-4.558 4.558,-4.558 H 67.003 V 15.347 c 0,-0.152 0.012,-0.301 0.02,-0.453 H 43 c -7.522,0 -13.678,6.156 -13.678,13.678 v 157.75 C 29.323,193.844 35.479,200 43,200 h 113.999 c 7.526,0 13.679,-6.156 13.679,-13.679 V 28.572 c 0,-7.523 -6.153,-13.678 -13.679,-13.678 z"
         fill="#5e889e"
         id="path87"
         style="fill:#ffffff;fill-opacity:1" />
      <path
         d="m 55.624,94.317 c 0,0.999 0.821,1.822 1.826,1.822 h 85.637 c 1,0 1.825,-0.823 1.825,-1.822 v -1.159 c 0,-1 -0.825,-1.824 -1.825,-1.824 H 57.449 c -1.004,0 -1.826,0.823 -1.826,1.824 v 1.159 z"
         fill="#5e889e"
         id="path89"
         style="fill:#ffffff;fill-opacity:1" />
      <path
         d="m 57.449,82.824 h 28.57 c 1.004,0 1.826,-0.817 1.826,-1.823 v -28.57 c 0,-1.006 -0.821,-1.824 -1.826,-1.824 h -28.57 c -1.004,0 -1.826,0.817 -1.826,1.824 v 28.57 c 0.001,1.006 0.822,1.823 1.826,1.823 z"
         fill="#5e889e"
         id="path91"
         style="fill:#ffffff;fill-opacity:1" />
      <path
         d="m 125.085,149.846 c -1.162,0 -2.334,0.447 -3.224,1.338 -0.891,0.886 -1.334,2.057 -1.334,3.224 v 25.466 l 30.027,-30.027 h -25.469 z"
         fill="#5e889e"
         id="path93"
         style="fill:#ffffff;fill-opacity:1" />
      <path
         d="m 55.624,108.022 c 0,1.004 0.821,1.821 1.826,1.821 h 85.637 c 1,0 1.825,-0.817 1.825,-1.821 v -1.15 c 0,-1.009 -0.825,-1.83 -1.825,-1.83 H 57.449 c -1.004,0 -1.826,0.821 -1.826,1.83 v 1.15 z"
         fill="#5e889e"
         id="path95"
         style="fill:#ffffff;fill-opacity:1" />
      <path
         d="M 143.086,50.607 H 100 c -1.004,0 -1.824,0.817 -1.824,1.824 v 1.152 c 0,1.004 0.819,1.828 1.824,1.828 h 43.086 c 1,0 1.825,-0.823 1.825,-1.828 v -1.152 c 0,-1.006 -0.825,-1.824 -1.825,-1.824 z"
         fill="#5e889e"
         id="path97"
         style="fill:#ffffff;fill-opacity:1" />
      <path
         d="m 55.624,121.729 c 0,1.004 0.821,1.825 1.826,1.825 h 85.637 c 1,0 1.825,-0.821 1.825,-1.825 v -1.151 c 0,-1.004 -0.825,-1.825 -1.825,-1.825 H 57.449 c -1.004,0 -1.826,0.821 -1.826,1.825 v 1.151 z"
         fill="#5e889e"
         id="path99"
         style="fill:#ffffff;fill-opacity:1" />
      <path
         d="m 55.624,135.436 c 0,1.004 0.821,1.83 1.826,1.83 h 40.992 c 1.004,0 1.825,-0.826 1.825,-1.83 v -1.15 c 0,-1.001 -0.821,-1.826 -1.825,-1.826 H 57.449 c -1.004,0 -1.826,0.825 -1.826,1.826 v 1.15 z"
         fill="#5e889e"
         id="path101"
         style="fill:#ffffff;fill-opacity:1" />
      <path
         d="m 73.386,31.761 h 53.232 c 0.464,0 0.927,-0.181 1.285,-0.541 0.355,-0.354 0.54,-0.817 0.54,-1.281 V 15.347 c 0,-1.63 -0.632,-3.263 -1.874,-4.511 -1.246,-1.248 -2.879,-1.87 -4.511,-1.87 H 108.963 C 108.964,4.013 104.952,0 100,0 95.05,0 91.037,4.013 91.037,8.966 H 77.944 c -1.634,0 -3.265,0.622 -4.515,1.87 -1.238,1.249 -1.871,2.881 -1.871,4.511 V 29.94 c 0,0.463 0.185,0.927 0.539,1.281 0.358,0.36 0.821,0.54 1.289,0.54 z M 100,4.79 c 2.308,0 4.178,1.87 4.178,4.176 0,2.305 -1.87,4.176 -4.178,4.176 -2.306,0 -4.174,-1.871 -4.174,-4.176 0,-2.306 1.868,-4.176 4.174,-4.176 z"
         fill="#5e889e"
         id="path103"
         style="fill:#ffffff;fill-opacity:1" />
    </g>
    <g
       aria-label="Дневник "
       id="text515"
       style="font-style:normal;font-variant:normal;font-weight:bold;font-stretch:normal;font-size:6.87395px;line-height:1.25;font-family:Roboto;-inkscape-font-specification:'Roboto Bold';letter-spacing:-0.235432px;word-spacing:0px;fill:#4d7bcc;fill-opacity:1;stroke-width:0.171849">
      <path
         d="M 20.561538,9.5475631 H 19.755997 V 8.3459644 H 16.53719 v 1.2015987 h -0.818967 l -0.02685,-1.8795957 h 0.392701 Q 16.376081,7.3860281 16.550615,6.8490007 16.725149,6.3086169 16.775496,5.6272635 L 16.90304,3.4590156 h 3.081194 v 4.2089518 h 0.620938 z M 17.044009,7.6679674 h 2.094407 V 4.1437255 h -1.426479 l -0.08055,1.3761325 q -0.09062,1.379489 -0.587374,2.1481094 z"
         style="font-style:normal;font-variant:normal;font-weight:bold;font-stretch:normal;font-family:Roboto;-inkscape-font-specification:'Roboto Bold';fill:#ffffff;fill-opacity:1;stroke-width:0.171849"
         id="path922" />
      <path
         d="m 24.004743,8.3459644 h -0.81561 V 6.8792085 H 21.77608 V 8.3459644 H 20.96047 V 4.714317 h 0.81561 v 1.5137458 h 1.413053 V 4.714317 h 0.81561 z"
         style="font-style:normal;font-variant:normal;font-weight:bold;font-stretch:normal;font-family:Roboto;-inkscape-font-specification:'Roboto Bold';fill:#ffffff;fill-opacity:1;stroke-width:0.171849"
         id="path924" />
      <path
         d="m 26.236281,8.4130928 q -0.775333,0 -1.258658,-0.486681 Q 24.497655,7.4363744 24.497655,6.6241205 V 6.5234279 q 0,-0.5437402 0.208098,-0.9700057 0.211455,-0.4296218 0.59073,-0.6679277 0.379276,-0.2383059 0.845819,-0.2383059 0.741769,0 1.144539,0.4732553 0.406127,0.4732554 0.406127,1.339212 v 0.3289292 h -2.37299 q 0.03692,0.4497604 0.298722,0.7115613 0.265157,0.2618008 0.664571,0.2618008 0.560522,0 0.912947,-0.4531168 l 0.439691,0.4195526 q -0.218168,0.3255728 -0.584017,0.5068195 -0.362494,0.1778903 -0.815611,0.1778903 z m -0.09734,-3.1114021 q -0.335642,0 -0.54374,0.2349494 -0.204742,0.2349495 -0.261801,0.6545021 h 1.554023 V 6.1307266 Q 26.860576,5.7212433 26.66926,5.5131452 26.477944,5.3016907 26.138945,5.3016907 Z"
         style="font-style:normal;font-variant:normal;font-weight:bold;font-stretch:normal;font-family:Roboto;-inkscape-font-specification:'Roboto Bold';fill:#ffffff;fill-opacity:1;stroke-width:0.171849"
         id="path926" />
      <path
         d="M 28.152314,8.3459644 V 4.714317 h 1.473469 q 0.745126,0 1.13447,0.2618008 0.389345,0.2584445 0.389345,0.7451255 0,0.2517316 -0.157752,0.4531168 -0.154395,0.1980288 -0.459829,0.3054343 0.35578,0.073841 0.563878,0.2987215 0.208099,0.2248802 0.208099,0.5303145 0,0.5068195 -0.37592,0.7719768 -0.372562,0.2651572 -1.074054,0.2651572 z m 0.815611,-1.54731 v 0.9028772 h 0.892808 q 0.62765,0 0.62765,-0.4497604 0,-0.4531168 -0.63772,-0.4531168 z m 0,-0.5840172 h 0.671284 q 0.694779,0 0.694779,-0.4094834 0,-0.4296219 -0.657859,-0.4430475 h -0.708204 z"
         style="font-style:normal;font-variant:normal;font-weight:bold;font-stretch:normal;font-family:Roboto;-inkscape-font-specification:'Roboto Bold';fill:#ffffff;fill-opacity:1;stroke-width:0.171849"
         id="path928" />
      <path
         d="m 34.847892,8.3459644 h -0.81561 V 6.8792085 H 32.619229 V 8.3459644 H 31.803618 V 4.714317 h 0.815611 v 1.5137458 h 1.413053 V 4.714317 h 0.81561 z"
         style="font-style:normal;font-variant:normal;font-weight:bold;font-stretch:normal;font-family:Roboto;-inkscape-font-specification:'Roboto Bold';fill:#ffffff;fill-opacity:1;stroke-width:0.171849"
         id="path930" />
      <path
         d="m 37.747357,4.714317 h 0.812254 V 8.3459644 H 37.747357 V 5.9226285 L 36.324235,8.3459644 H 35.511981 V 4.714317 h 0.812254 v 2.4233359 z"
         style="font-style:normal;font-variant:normal;font-weight:bold;font-stretch:normal;font-family:Roboto;-inkscape-font-specification:'Roboto Bold';fill:#ffffff;fill-opacity:1;stroke-width:0.171849"
         id="path932" />
      <path
         d="M 40.482356,6.9094163 H 40.069517 V 8.3459644 H 39.253906 V 4.714317 h 0.815611 v 1.4499738 h 0.359137 l 1.00357,-1.4499738 h 1.006926 l -1.312361,1.738626 1.423123,1.8930214 h -1.060629 z"
         style="font-style:normal;font-variant:normal;font-weight:bold;font-stretch:normal;font-family:Roboto;-inkscape-font-specification:'Roboto Bold';fill:#ffffff;fill-opacity:1;stroke-width:0.171849"
         id="path934" />
    </g>
    <g
       aria-label="инвестора "
       id="text126"
       style="font-style:normal;font-variant:normal;font-weight:bold;font-stretch:normal;font-size:6.87395px;line-height:1.25;font-family:Roboto;-inkscape-font-specification:'Roboto Bold';letter-spacing:-0.235432px;word-spacing:0px;fill:#ffffff;fill-opacity:1;stroke-width:0.171849">
      <path
         d="m 17.969992,10.300667 h 0.812253 v 3.631647 h -0.812253 v -2.423336 l -1.423123,2.423336 h -0.812254 v -3.631647 h 0.812254 v 2.423335 z"
         style="font-style:normal;font-variant:normal;font-weight:bold;font-stretch:normal;font-family:Roboto;-inkscape-font-specification:'Roboto Bold';fill:#ffffff;fill-opacity:1;stroke-width:0.171849"
         id="path937" />
      <path
         d="m 22.490608,13.932314 h -0.81561 v -1.466756 h -1.413053 v 1.466756 h -0.815611 v -3.631647 h 0.815611 v 1.513745 h 1.413053 v -1.513745 h 0.81561 z"
         style="font-style:normal;font-variant:normal;font-weight:bold;font-stretch:normal;font-family:Roboto;-inkscape-font-specification:'Roboto Bold';fill:#ffffff;fill-opacity:1;stroke-width:0.171849"
         id="path939" />
      <path
         d="m 23.184905,13.932314 v -3.631647 h 1.473468 q 0.745126,0 1.134471,0.2618 0.389345,0.258445 0.389345,0.745126 0,0.251731 -0.157752,0.453117 -0.154396,0.198028 -0.45983,0.305434 0.355781,0.07384 0.563879,0.298721 0.208098,0.224881 0.208098,0.530315 0,0.506819 -0.375919,0.771977 -0.372563,0.265157 -1.074055,0.265157 z m 0.81561,-1.54731 v 0.902877 h 0.892808 q 0.627651,0 0.627651,-0.44976 0,-0.453117 -0.63772,-0.453117 z m 0,-0.584017 h 0.671284 q 0.694779,0 0.694779,-0.409484 0,-0.429622 -0.657858,-0.443047 h -0.708205 z"
         style="font-style:normal;font-variant:normal;font-weight:bold;font-stretch:normal;font-family:Roboto;-inkscape-font-specification:'Roboto Bold';fill:#ffffff;fill-opacity:1;stroke-width:0.171849"
         id="path941" />
      <path
         d="m 28.403656,13.999442 q -0.775333,0 -1.258658,-0.486681 Q 26.66503,13.022724 26.66503,12.21047 v -0.100693 q 0,-0.54374 0.208098,-0.970005 0.211455,-0.429622 0.59073,-0.667928 0.379276,-0.238306 0.845818,-0.238306 0.741769,0 1.14454,0.473255 0.406127,0.473256 0.406127,1.339212 v 0.32893 h -2.37299 q 0.03692,0.44976 0.298721,0.711561 0.265158,0.261801 0.664572,0.261801 0.560522,0 0.912946,-0.453117 l 0.439691,0.419552 q -0.218167,0.325573 -0.584017,0.50682 -0.362493,0.17789 -0.81561,0.17789 z M 28.30632,10.88804 q -0.335642,0 -0.54374,0.23495 -0.204742,0.234949 -0.261801,0.654502 h 1.554023 v -0.06042 Q 29.02795,11.307593 28.836634,11.099495 28.645318,10.88804 28.30632,10.88804 Z"
         style="font-style:normal;font-variant:normal;font-weight:bold;font-stretch:normal;font-family:Roboto;-inkscape-font-specification:'Roboto Bold';fill:#ffffff;fill-opacity:1;stroke-width:0.171849"
         id="path943" />
      <path
         d="m 31.749525,13.348297 q 0.305434,0 0.50682,-0.177891 0.201385,-0.17789 0.214811,-0.439691 h 0.76862 q -0.01343,0.338999 -0.211454,0.634364 -0.198029,0.292008 -0.537028,0.463186 -0.338998,0.171177 -0.7317,0.171177 -0.761907,0 -1.208311,-0.493394 -0.446404,-0.493393 -0.446404,-1.362706 v -0.08391 q 0,-0.829036 0.443047,-1.325786 0.443048,-0.500107 1.208312,-0.500107 0.647789,0 1.053916,0.379276 0.409484,0.375919 0.429622,0.990144 h -0.76862 q -0.01343,-0.312147 -0.214811,-0.513533 -0.198029,-0.201385 -0.50682,-0.201385 -0.396057,0 -0.610868,0.288652 -0.214811,0.285296 -0.218168,0.869313 v 0.130901 q 0,0.59073 0.211455,0.882738 0.214811,0.288653 0.617581,0.288653 z"
         style="font-style:normal;font-variant:normal;font-weight:bold;font-stretch:normal;font-family:Roboto;-inkscape-font-specification:'Roboto Bold';fill:#ffffff;fill-opacity:1;stroke-width:0.171849"
         id="path945" />
      <path
         d="m 36.47824,10.948456 h -1.178103 v 2.983858 h -0.815611 v -2.983858 h -1.164678 v -0.647789 h 3.158392 z"
         style="font-style:normal;font-variant:normal;font-weight:bold;font-stretch:normal;font-family:Roboto;-inkscape-font-specification:'Roboto Bold';fill:#ffffff;fill-opacity:1;stroke-width:0.171849"
         id="path947" />
      <path
         d="m 36.531459,12.082926 q 0,-0.533671 0.211455,-0.959936 0.211454,-0.429622 0.594086,-0.657859 0.382632,-0.231593 0.879383,-0.231593 0.735056,0 1.191529,0.473255 0.45983,0.473256 0.49675,1.255302 l 0.0034,0.191316 q 0,0.537027 -0.208098,0.959936 -0.204742,0.422909 -0.59073,0.654502 -0.382632,0.231593 -0.886096,0.231593 -0.76862,0 -1.231806,-0.510176 -0.45983,-0.513532 -0.45983,-1.366063 z m 0.815611,0.07048 q 0,0.560522 0.231593,0.879382 0.231593,0.315504 0.644432,0.315504 0.41284,0 0.641077,-0.322217 0.231593,-0.322216 0.231593,-0.943154 0,-0.550453 -0.238306,-0.872669 -0.234949,-0.322217 -0.641076,-0.322217 -0.399414,0 -0.634364,0.31886 -0.234949,0.315504 -0.234949,0.946511 z"
         style="font-style:normal;font-variant:normal;font-weight:bold;font-stretch:normal;font-family:Roboto;-inkscape-font-specification:'Roboto Bold';fill:#ffffff;fill-opacity:1;stroke-width:0.171849"
         id="path949" />
      <path
         d="m 43.542541,12.153411 q 0,0.842461 -0.382632,1.345925 -0.382632,0.500106 -1.027065,0.500106 -0.597442,0 -0.95658,-0.392701 v 1.721844 h -0.81561 v -5.027918 h 0.751838 l 0.03356,0.369206 q 0.359137,-0.436335 0.976718,-0.436335 0.664572,0 1.040491,0.49675 0.379275,0.493394 0.379275,1.372777 z m -0.812254,-0.07048 q 0,-0.54374 -0.218167,-0.8626 -0.214811,-0.31886 -0.617581,-0.31886 -0.500107,0 -0.718275,0.41284 v 1.611082 q 0.221524,0.422909 0.724987,0.422909 0.389345,0 0.607513,-0.312147 0.221523,-0.315504 0.221523,-0.953224 z"
         style="font-style:normal;font-variant:normal;font-weight:bold;font-stretch:normal;font-family:Roboto;-inkscape-font-specification:'Roboto Bold';fill:#ffffff;fill-opacity:1;stroke-width:0.171849"
         id="path951" />
      <path
         d="m 46.16678,13.932314 q -0.0537,-0.104049 -0.09398,-0.338999 -0.389345,0.406127 -0.953223,0.406127 -0.547097,0 -0.892808,-0.312147 -0.345712,-0.312147 -0.345712,-0.771977 0,-0.58066 0.429622,-0.889451 0.432979,-0.312147 1.235163,-0.312147 h 0.500107 v -0.238306 q 0,-0.28194 -0.157752,-0.449761 -0.157752,-0.171177 -0.479968,-0.171177 -0.278583,0 -0.456473,0.14097 -0.177891,0.137613 -0.177891,0.352424 h -0.81561 q 0,-0.298722 0.198029,-0.557166 0.198029,-0.261801 0.537027,-0.409483 0.342355,-0.147683 0.761908,-0.147683 0.63772,0 1.016995,0.322216 0.379276,0.31886 0.389345,0.899521 v 1.637934 q 0,0.490037 0.137613,0.782046 v 0.05706 z M 45.270616,13.34494 q 0.241662,0 0.453116,-0.117474 0.214811,-0.117475 0.322217,-0.315504 v -0.68471 h -0.439691 q -0.453117,0 -0.681354,0.157752 -0.228236,0.157752 -0.228236,0.446404 0,0.234949 0.154395,0.375919 0.157752,0.137613 0.419553,0.137613 z"
         style="font-style:normal;font-variant:normal;font-weight:bold;font-stretch:normal;font-family:Roboto;-inkscape-font-specification:'Roboto Bold';fill:#ffffff;fill-opacity:1;stroke-width:0.171849"
         id="path953" />
    </g>
  </g>
</svg>
