<?xml version="1.0" encoding="UTF-8" standalone="no"?>
<svg
   xmlns:dc="http://purl.org/dc/elements/1.1/"
   xmlns:cc="http://creativecommons.org/ns#"
   xmlns:rdf="http://www.w3.org/1999/02/22-rdf-syntax-ns#"
   xmlns:svg="http://www.w3.org/2000/svg"
   xmlns="http://www.w3.org/2000/svg"
   xmlns:sodipodi="http://sodipodi.sourceforge.net/DTD/sodipodi-0.dtd"
   xmlns:inkscape="http://www.inkscape.org/namespaces/inkscape"
   width="200"
   height="60"
   viewBox="0 0 52.916668 15.875001"
   version="1.1"
   id="svg8"
   inkscape:version="1.0.1 (3bc2e813f5, 2020-09-07)"
   sodipodi:docname="logo.svg">
  <defs
     id="defs2" />
  <sodipodi:namedview
     id="base"
     pagecolor="#ffffff"
     bordercolor="#666666"
     borderopacity="1.0"
     inkscape:pageopacity="0.0"
     inkscape:pageshadow="2"
     inkscape:zoom="4.5625"
     inkscape:cx="61.171458"
     inkscape:cy="27.078934"
     inkscape:document-units="mm"
     inkscape:current-layer="layer1"
     inkscape:document-rotation="0"
     showgrid="false"
     units="px"
     inkscape:window-width="1294"
     inkscape:window-height="704"
     inkscape:window-x="72"
     inkscape:window-y="27"
     inkscape:window-maximized="1" />
  <metadata
     id="metadata5">
    <rdf:RDF>
      <cc:Work
         rdf:about="">
        <dc:format>image/svg+xml</dc:format>
        <dc:type
           rdf:resource="http://purl.org/dc/dcmitype/StillImage" />
        <dc:title></dc:title>
      </cc:Work>
    </rdf:RDF>
  </metadata>
  <g
     inkscape:label="Layer 1"
     inkscape:groupmode="layer"
     id="layer1">
    <g
       id="g105"
       transform="matrix(0.06735118,0.02500028,-0.02500028,0.06735118,2.8862834,-1.8471205)"
       style="fill:#4d7bcc;fill-opacity:1">
      <path
         d="m 98.176,81.001 c 0,1.006 0.819,1.823 1.824,1.823 h 43.086 c 1,0 1.825,-0.817 1.825,-1.823 v -1.153 c 0,-1.004 -0.825,-1.828 -1.825,-1.828 H 100 c -1.004,0 -1.824,0.823 -1.824,1.828 z"
         fill="#5e889e"
         id="path83"
         style="fill:#4d7bcc;fill-opacity:1" />
      <path
         d="m 100,69.118 h 43.086 c 1,0 1.825,-0.823 1.825,-1.823 v -1.157 c 0,-1 -0.825,-1.824 -1.825,-1.824 H 100 c -1.004,0 -1.824,0.823 -1.824,1.824 v 1.157 c 0,0.999 0.82,1.823 1.824,1.823 z"
         fill="#5e889e"
         id="path85"
         style="fill:#4d7bcc;fill-opacity:1" />
      <path
         d="m 156.999,14.894 h -24.018 c 0.004,0.152 0.021,0.301 0.021,0.453 v 13.225 h 19.439 c 2.509,0 4.558,2.047 4.558,4.558 v 116.716 l -36.472,36.476 H 47.559 c -2.509,0 -4.558,-2.053 -4.558,-4.558 V 33.129 c 0,-2.511 2.049,-4.558 4.558,-4.558 H 67.003 V 15.347 c 0,-0.152 0.012,-0.301 0.02,-0.453 H 43 c -7.522,0 -13.678,6.156 -13.678,13.678 v 157.75 C 29.323,193.844 35.479,200 43,200 h 113.999 c 7.526,0 13.679,-6.156 13.679,-13.679 V 28.572 c 0,-7.523 -6.153,-13.678 -13.679,-13.678 z"
         fill="#5e889e"
         id="path87"
         style="fill:#4d7bcc;fill-opacity:1" />
      <path
         d="m 55.624,94.317 c 0,0.999 0.821,1.822 1.826,1.822 h 85.637 c 1,0 1.825,-0.823 1.825,-1.822 v -1.159 c 0,-1 -0.825,-1.824 -1.825,-1.824 H 57.449 c -1.004,0 -1.826,0.823 -1.826,1.824 v 1.159 z"
         fill="#5e889e"
         id="path89"
         style="fill:#4d7bcc;fill-opacity:1" />
      <path
         d="m 57.449,82.824 h 28.57 c 1.004,0 1.826,-0.817 1.826,-1.823 v -28.57 c 0,-1.006 -0.821,-1.824 -1.826,-1.824 h -28.57 c -1.004,0 -1.826,0.817 -1.826,1.824 v 28.57 c 0.001,1.006 0.822,1.823 1.826,1.823 z"
         fill="#5e889e"
         id="path91"
         style="fill:#4d7bcc;fill-opacity:1" />
      <path
         d="m 125.085,149.846 c -1.162,0 -2.334,0.447 -3.224,1.338 -0.891,0.886 -1.334,2.057 -1.334,3.224 v 25.466 l 30.027,-30.027 h -25.469 z"
         fill="#5e889e"
         id="path93"
         style="fill:#4d7bcc;fill-opacity:1" />
      <path
         d="m 55.624,108.022 c 0,1.004 0.821,1.821 1.826,1.821 h 85.637 c 1,0 1.825,-0.817 1.825,-1.821 v -1.15 c 0,-1.009 -0.825,-1.83 -1.825,-1.83 H 57.449 c -1.004,0 -1.826,0.821 -1.826,1.83 v 1.15 z"
         fill="#5e889e"
         id="path95"
         style="fill:#4d7bcc;fill-opacity:1" />
      <path
         d="M 143.086,50.607 H 100 c -1.004,0 -1.824,0.817 -1.824,1.824 v 1.152 c 0,1.004 0.819,1.828 1.824,1.828 h 43.086 c 1,0 1.825,-0.823 1.825,-1.828 v -1.152 c 0,-1.006 -0.825,-1.824 -1.825,-1.824 z"
         fill="#5e889e"
         id="path97"
         style="fill:#4d7bcc;fill-opacity:1" />
      <path
         d="m 55.624,121.729 c 0,1.004 0.821,1.825 1.826,1.825 h 85.637 c 1,0 1.825,-0.821 1.825,-1.825 v -1.151 c 0,-1.004 -0.825,-1.825 -1.825,-1.825 H 57.449 c -1.004,0 -1.826,0.821 -1.826,1.825 v 1.151 z"
         fill="#5e889e"
         id="path99"
         style="fill:#4d7bcc;fill-opacity:1" />
      <path
         d="m 55.624,135.436 c 0,1.004 0.821,1.83 1.826,1.83 h 40.992 c 1.004,0 1.825,-0.826 1.825,-1.83 v -1.15 c 0,-1.001 -0.821,-1.826 -1.825,-1.826 H 57.449 c -1.004,0 -1.826,0.825 -1.826,1.826 v 1.15 z"
         fill="#5e889e"
         id="path101"
         style="fill:#4d7bcc;fill-opacity:1" />
      <path
         d="m 73.386,31.761 h 53.232 c 0.464,0 0.927,-0.181 1.285,-0.541 0.355,-0.354 0.54,-0.817 0.54,-1.281 V 15.347 c 0,-1.63 -0.632,-3.263 -1.874,-4.511 -1.246,-1.248 -2.879,-1.87 -4.511,-1.87 H 108.963 C 108.964,4.013 104.952,0 100,0 95.05,0 91.037,4.013 91.037,8.966 H 77.944 c -1.634,0 -3.265,0.622 -4.515,1.87 -1.238,1.249 -1.871,2.881 -1.871,4.511 V 29.94 c 0,0.463 0.185,0.927 0.539,1.281 0.358,0.36 0.821,0.54 1.289,0.54 z M 100,4.79 c 2.308,0 4.178,1.87 4.178,4.176 0,2.305 -1.87,4.176 -4.178,4.176 -2.306,0 -4.174,-1.871 -4.174,-4.176 0,-2.306 1.868,-4.176 4.174,-4.176 z"
         fill="#5e889e"
         id="path103"
         style="fill:#4d7bcc;fill-opacity:1" />
    </g>
    <text
       xml:space="preserve"
       style="font-style:normal;font-variant:normal;font-weight:bold;font-stretch:normal;font-size:6.87395px;line-height:1.25;font-family:sans-serif;-inkscape-font-specification:'sans-serif Bold';letter-spacing:-0.235432px;word-spacing:0px;fill:#4d7bcc;stroke-width:0.171849;fill-opacity:1;"
       x="14.945086"
       y="8.8616667"
       id="text515"><tspan
         sodipodi:role="line"
         id="tspan513"
         x="14.945086"
         y="8.8616667"
         style="font-style:normal;font-variant:normal;font-weight:bold;font-stretch:normal;font-family:sans-serif;-inkscape-font-specification:'sans-serif Bold';fill:#4d7bcc;stroke-width:0.171849;fill-opacity:1;">ДНЕВНИК</tspan></text>
    <text
       xml:space="preserve"
       style="font-style:normal;font-variant:normal;font-weight:bold;font-stretch:normal;font-size:5.73348px;line-height:1.25;font-family:sans-serif;-inkscape-font-specification:'sans-serif Bold';letter-spacing:-0.196373px;word-spacing:0px;fill:#4d7bcc;stroke-width:0.143338;fill-opacity:1;"
       x="14.796565"
       y="14.304812"
       id="text519"><tspan
         sodipodi:role="line"
         id="tspan517"
         x="14.796565"
         y="14.304812"
         style="font-style:normal;font-variant:normal;font-weight:bold;font-stretch:normal;font-family:sans-serif;-inkscape-font-specification:'sans-serif Bold';fill:#4d7bcc;stroke-width:0.143338;fill-opacity:1;">ИНВЕСТОРА</tspan></text>
  </g>
</svg>
