<?xml version="1.0" encoding="UTF-8" standalone="no"?>
<svg
   xmlns:dc="http://purl.org/dc/elements/1.1/"
   xmlns:cc="http://creativecommons.org/ns#"
   xmlns:rdf="http://www.w3.org/1999/02/22-rdf-syntax-ns#"
   xmlns:svg="http://www.w3.org/2000/svg"
   xmlns="http://www.w3.org/2000/svg"
   xmlns:sodipodi="http://sodipodi.sourceforge.net/DTD/sodipodi-0.dtd"
   xmlns:inkscape="http://www.inkscape.org/namespaces/inkscape"
   width="670"
   height="480"
   version="1.1"
   viewBox="0 0 670 480"
   xml:space="preserve"
   id="svg960"
   sodipodi:docname="man.svg"
   inkscape:version="1.0.2 (394de47547, 2021-03-26)"><metadata
     id="metadata966"><rdf:RDF><cc:Work
         rdf:about=""><dc:format>image/svg+xml</dc:format><dc:type
           rdf:resource="http://purl.org/dc/dcmitype/StillImage" /></cc:Work></rdf:RDF></metadata><defs
     id="defs964" /><sodipodi:namedview
     pagecolor="#ffffff"
     bordercolor="#666666"
     borderopacity="1"
     objecttolerance="10"
     gridtolerance="10"
     guidetolerance="10"
     inkscape:pageopacity="0"
     inkscape:pageshadow="2"
     inkscape:window-width="1528"
     inkscape:window-height="837"
     id="namedview962"
     showgrid="false"
     inkscape:zoom="1.425"
     inkscape:cx="335"
     inkscape:cy="240"
     inkscape:window-x="72"
     inkscape:window-y="26"
     inkscape:window-maximized="1"
     inkscape:current-layer="svg960" /><path
     d="m 327.33848,5.374228 c 142.8231,0 258.60687,115.785102 258.60687,258.606872 0,53.45599 -16.22359,103.12408 -44.00823,144.34305 H 112.73451 C 84.945876,367.09852 68.724948,317.43043 68.724948,263.9811 68.724948,121.158 184.51005,5.374228 327.33182,5.374228"
     fill="#58b6dc"
     id="path918"
     style="fill-rule:evenodd;stroke-width:1.3333" /><path
     d="m 548.09296,122.05131 h 26.45534 c 48.2668,0 80.63265,39.49235 71.92487,87.75781 l -27.23932,151.00955 c -0.36132,2.00129 -2.29327,3.64258 -4.29856,3.64258 H 446.71283 c -2.00528,0 -3.34925,-1.64129 -2.98659,-3.64258 l 32.0112,-177.46223 c 6.08385,-33.71782 38.64303,-61.3038 72.36086,-61.3038"
     fill="#77405e"
     id="path920"
     style="fill-rule:evenodd;stroke-width:1.3333;fill:#a82c23;fill-opacity:1" /><path
     d="m 545.3197,122.05131 h 0.003 c 48.26679,0 80.63265,39.49235 71.92487,87.75781 l -27.23666,151.00955 c -0.36399,2.00129 -2.29594,3.64258 -4.29856,3.64258 H 417.47623 c -1.99995,0 -3.34658,-1.64129 -2.98126,-3.64258 l 27.23532,-151.00955 c 8.70912,-48.26546 55.32262,-87.75781 103.58674,-87.75781"
     fill="#925678"
     id="path922"
     style="fill-rule:evenodd;stroke-width:1.3333;fill:#cc2c23;fill-opacity:1" /><path
     d="m 528.22679,351.15225 c 14.28898,0 27.88064,-6.15851 37.29907,-16.90224 9.41843,-10.7424 13.74499,-25.02471 11.87437,-39.18969 l -6.91849,-79.76734 c -1.20797,-13.91165 -9.21044,-26.32734 -21.37947,-33.17117 -12.17169,-6.84383 -26.93799,-7.23315 -39.45234,-1.03864 l -23.67408,10.16908 -41.88962,1.45463 -19.30218,-7.28382 c -27.02999,-10.19708 -57.55856,-2.01995 -75.86744,20.33016 l -58.17321,78.01405 c -9.91042,13.29033 -11.13172,31.14722 -3.13059,45.66152 8.00247,14.51431 23.75541,23.01143 40.28166,21.72346 h 200.32832"
     fill="#cc2c23"
     id="path924"
     style="fill-rule:evenodd;stroke-width:1.3333;fill:#970159;fill-opacity:1" /><path
     d="M 538.06655,196.59611 516.84041,169.1048 c -4.85321,-6.28384 -11.90237,-9.47043 -19.83017,-8.95977 l -62.4771,4.01989 c -8.67179,0.55732 -15.92627,4.2759 -21.45013,10.98373 l -32.00454,38.88836 104.18806,13.67433 52.80002,-31.11523"
     fill="#cc2c23"
     id="path926"
     style="fill-rule:evenodd;stroke-width:1.3333;fill:#970159;fill-opacity:1" /><path
     d="m 414.44297,110.93159 h 63.16242 l 14.64764,55.70794 -40.68165,17.15957 -21.47013,-13.31433 -15.65828,-59.55318"
     fill="#fbc6a4"
     id="path928"
     style="fill-rule:evenodd;stroke-width:1.3333" /><path
     d="m 414.44297,110.93159 h 39.54301 c 8.39846,7.58381 13.72633,18.88753 13.72633,31.51654 0,16.57159 -9.17177,30.86457 -22.41411,37.46173 l -15.19695,-9.42509 -15.65828,-59.55318"
     fill="#f89b7c"
     id="path930"
     style="fill-rule:evenodd;stroke-width:1.3333" /><path
     d="m 403.05659,59.052886 h 80.01 l -7.41048,63.773074 c -2.55727,22.00345 -22.6501,40.00566 -44.65222,40.00566 -22.00478,0 -37.91105,-18.00221 -35.35645,-40.00566 l 7.40915,-63.773074"
     fill="#fbc6a4"
     id="path932"
     style="fill-rule:evenodd;stroke-width:1.3333" /><path
     d="M 18.283543,351.15225 H 651.69437 c 7.31182,0 13.297,5.98652 13.297,13.297 v 0.003 c 0,7.31048 -5.98518,13.29433 -13.297,13.29433 H 18.283543 c -7.313951,0 -13.296601,-5.98385 -13.296601,-13.29433 v -0.003 c 0,-7.31048 5.98265,-13.297 13.296601,-13.297"
     fill="#fbc6a4"
     id="path934"
     style="fill-rule:evenodd;stroke-width:1.3333" /><path
     d="m 271.56654,474.6425 h 251.54038 l 99.9975,-96.88825 H 31.572544 L 271.56654,474.6425"
     fill="#a49585"
     id="path936"
     style="fill-rule:evenodd;stroke-width:1.3333" /><path
     d="M 31.576544,398.51107 623.10842,438.93939 V 377.75025 H 31.576544 v 20.76082"
     fill="#463c3b"
     id="path938"
     style="fill-rule:evenodd;stroke-width:1.3333" /><path
     d="m 423.74941,143.18412 h -1.4613 c -6.75717,0 -12.26503,-5.5092 -12.26503,-12.2637 v -3.9559 h 25.99135 v 3.9559 c 0,6.7545 -5.51053,12.2637 -12.26502,12.2637"
     fill="#ffffff"
     id="path940"
     style="fill-rule:evenodd;stroke-width:1.3333" /><path
     d="m 453.88199,474.6425 h 69.23293 l 99.9975,-96.88825 H 453.87665 v 96.88825"
     fill="#463c3b"
     id="path942"
     style="fill-rule:evenodd;stroke-width:1.3333" /><path
     d="m 383.11042,241.84832 v 37.53772 l -8.47179,1.05731 c -7.41314,0.92664 -13.96498,5.27187 -17.69955,11.74104 -3.73458,6.47184 -4.2239,14.31564 -1.3173,21.19947 l -13.545,-18.38221 c -8.05846,-10.93839 -8.87444,-25.61269 -2.07995,-37.38439 C 346.79,245.85088 359.907,239.22038 373.412,240.73101 l 9.69842,1.11731"
     fill="#fbc6a4"
     id="path944"
     style="fill-rule:evenodd;stroke-width:1.3333" /><path
     d="m 443.65557,257.98125 c 14.7463,-12.0397 31.83788,-18.09422 49.16011,-17.4129 l -0.57065,50.4014 -17.21557,11.55572 c -16.10893,10.81306 -35.15246,10.81306 -51.26139,0 0,-23.24209 8.22913,-35.07779 19.8875,-44.54422"
     fill="#fbc6a4"
     id="path946"
     style="fill-rule:evenodd;stroke-width:1.3333" /><path
     d="m 399.35002,90.932089 -6.45184,-37.393732 c -2.00262,-11.605043 3.44258,-23.227419 13.64232,-29.113939 10.19708,-5.889186 22.98343,-4.794546 32.03254,2.741265 l 37.55372,7.614476 c 4.54522,0.919977 8.09447,4.471889 9.01578,9.014442 l 3.73457,2.277276 c 5.80386,3.541245 7.80647,11.017058 4.54922,16.987576 l -10.89573,66.598337 -7.76514,-1.87462 c -5.3652,-1.29464 -9.55709,-5.4852 -10.85439,-10.85306 l 1.10664,-24.235398 -17.16357,-0.365325 0.77331,-20.943476 -9.40776,2.185279 c -12.45303,2.893261 -25.39804,2.92526 -37.86439,0.09466 l -2.00528,17.266235"
     fill="#463c3b"
     id="path948"
     style="fill-rule:evenodd;stroke-width:1.3333" /><path
     d="m 470.98822,80.62568 c 7.07716,1.19597 11.49972,9.947751 9.87709,19.55018 -1.62262,9.60242 -8.67178,16.41959 -15.7476,15.22362 -7.07716,-1.19464 -11.49972,-9.94642 -9.87709,-19.551514 1.62262,-9.602426 8.67178,-16.418256 15.7476,-15.222286"
     fill="#fbc6a4"
     id="path950"
     style="fill-rule:evenodd;stroke-width:1.3333" /><path
     d="m 128.02613,244.50158 h 107.61465 c 8.91844,0 18.09421,7.29715 20.39415,16.21426 l 19.11686,74.22882 c 2.29594,8.92244 -3.11992,16.21559 -12.0357,16.21559 H 155.49745 c -8.91445,0 -18.09289,-7.29315 -20.39149,-16.21559 l -19.11953,-74.22882 c -2.29514,-8.91711 3.11979,-16.21426 12.03877,-16.21426"
     fill="#463c3b"
     id="path952"
     style="fill-rule:evenodd;stroke-width:1.3333" /><path
     d="m 265.59336,297.83358 9.55843,37.11108 c 2.29594,8.92244 -3.11992,16.21559 -12.0357,16.21559 H 155.49745 c -8.91445,0 -18.09289,-7.29315 -20.39149,-16.21559 l -9.55817,-37.11108 h 140.04984"
     fill="#2e2825"
     id="path954"
     style="fill-rule:evenodd;stroke-width:1.3333" /><path
     d="m 125.54753,297.83358 h 140.04983 l -11.27972,30.6779 c -4.58255,12.45702 -18.52087,22.64877 -30.98056,22.64877 h -94.74563 c -12.45649,0 -18.90086,-10.19175 -14.32097,-22.64877 l 11.28091,-30.6779"
     fill="#766764"
     id="path956"
     style="fill-rule:evenodd;stroke-width:1.3333" /></svg>
