<?xml version="1.0" encoding="UTF-8" standalone="no"?>
<svg
   xmlns:dc="http://purl.org/dc/elements/1.1/"
   xmlns:cc="http://creativecommons.org/ns#"
   xmlns:rdf="http://www.w3.org/1999/02/22-rdf-syntax-ns#"
   xmlns:svg="http://www.w3.org/2000/svg"
   xmlns="http://www.w3.org/2000/svg"
   xmlns:sodipodi="http://sodipodi.sourceforge.net/DTD/sodipodi-0.dtd"
   xmlns:inkscape="http://www.inkscape.org/namespaces/inkscape"
   version="1.1"
   id="svg2785"
   xml:space="preserve"
   width="670"
   height="480"
   viewBox="0 0 670 480"
   sodipodi:docname="man.svg"
   inkscape:version="1.0.2 (394de47547, 2021-03-26)"><metadata
     id="metadata2791"><rdf:RDF><cc:Work
         rdf:about=""><dc:format>image/svg+xml</dc:format><dc:type
           rdf:resource="http://purl.org/dc/dcmitype/StillImage" /><dc:title></dc:title></cc:Work></rdf:RDF></metadata><defs
     id="defs2789" /><sodipodi:namedview
     pagecolor="#ffffff"
     bordercolor="#666666"
     borderopacity="1"
     objecttolerance="10"
     gridtolerance="10"
     guidetolerance="10"
     inkscape:pageopacity="0"
     inkscape:pageshadow="2"
     inkscape:window-width="1528"
     inkscape:window-height="837"
     id="namedview2787"
     showgrid="false"
     inkscape:zoom="0.48317823"
     inkscape:cx="569.14832"
     inkscape:cy="378.67601"
     inkscape:window-x="72"
     inkscape:window-y="26"
     inkscape:window-maximized="1"
     inkscape:current-layer="g2793"
     inkscape:document-rotation="0" /><g
     id="g2793"
     inkscape:groupmode="layer"
     inkscape:label="ink_ext_XXXXXX"
     transform="matrix(1.3333333,0,0,-1.3333333,0,707.81333)"><path
       d="m 245.51201,526.83551 c 107.123,0 193.964,-86.841 193.964,-193.964 0,-40.093 -12.168,-77.345 -33.007,-108.265 H 84.556008 c -20.8418,30.92 -33.007803,68.172 -33.007803,108.265 0,107.123 86.840805,193.964 193.963805,193.964"
       style="fill:#58b6dc;fill-opacity:1;fill-rule:evenodd;stroke:none;stroke-width:0.1"
       id="path1181" /><path
       d="m 411.08001,439.33151 h 19.842 c 36.201,0 60.476,-29.62 53.945,-65.82 l -20.43,-113.256 c -0.271,-1.501 -1.72,-2.732 -3.224,-2.732 h -126.174 c -1.504,0 -2.512,1.231 -2.24,2.732 l 24.009,133.097 c 4.563,25.289 28.983,45.979 54.272,45.979"
       style="fill:#77405e;fill-opacity:1;fill-rule:evenodd;stroke:none;stroke-width:0.1"
       id="path1183" /><path
       d="m 409.00201,439.33151 h 0.002 c 36.201,0 60.476,-29.62 53.945,-65.82 l -20.428,-113.256 c -0.273,-1.501 -1.722,-2.732 -3.224,-2.732 h -126.178 c -1.5,0 -2.51,1.231 -2.236,2.732 l 20.427,113.256 c 6.532,36.2 41.493,65.82 77.692,65.82"
       style="fill:#925678;fill-opacity:1;fill-rule:evenodd;stroke:none;stroke-width:0.1"
       id="path1185" /><path
       d="m 396.18301,267.49851 c 10.717,0 20.911,4.619 27.975,12.677 7.064,8.057 10.309,18.769 8.906,29.393 l -5.189,59.827 c -0.906,10.434 -6.908,19.746 -16.035,24.879 -9.129,5.133 -20.204,5.425 -29.59,0.779 l -17.756,-7.627 -31.418,-1.091 -14.477,5.463 c -20.273,7.648 -43.17,1.515 -56.902,-15.248 l -43.631,-58.512 c -7.433,-9.968 -8.349,-23.361 -2.348,-34.247 6.002,-10.886 17.817,-17.259 30.212,-16.293 h 150.253"
       style="fill:#e67066;fill-opacity:1;fill-rule:evenodd;stroke:none;stroke-width:0.1"
       id="path1187" /><path
       d="m 403.55801,383.41651 -15.92,20.619 c -3.64,4.713 -8.927,7.103 -14.873,6.72 l -46.859,-3.015 c -6.504,-0.418 -11.945,-3.207 -16.088,-8.238 l -24.004,-29.167 78.143,-10.256 39.601,23.337"
       style="fill:#e67066;fill-opacity:1;fill-rule:evenodd;stroke:none;stroke-width:0.1"
       id="path1189" /><path
       d="m 310.83801,447.66651 h 47.373 l 10.986,-41.782 -30.512,-12.87 -16.103,9.986 -11.744,44.666"
       style="fill:#fbc6a4;fill-opacity:1;fill-rule:evenodd;stroke:none;stroke-width:0.1"
       id="path1191" /><path
       d="m 310.83801,447.66651 h 29.658 c 6.299,-5.688 10.295,-14.166 10.295,-23.638 0,-12.429 -6.879,-23.149 -16.811,-28.097 l -11.398,7.069 -11.744,44.666"
       style="fill:#f89b7c;fill-opacity:1;fill-rule:evenodd;stroke:none;stroke-width:0.1"
       id="path1193" /><path
       d="m 302.29501,486.58451 h 60.009 l -5.558,-47.831 c -1.918,-16.503 -16.988,-30.005 -33.49,-30.005 v 0 c -16.504,0 -28.434,13.502 -26.518,30.005 l 5.557,47.831"
       style="fill:#fbc6a4;fill-opacity:1;fill-rule:evenodd;stroke:none;stroke-width:0.1"
       id="path1195" /><path
       d="M 13.712665,267.49851 H 488.78701 c 5.484,0 9.973,-4.49 9.973,-9.973 v -0.002 c 0,-5.483 -4.489,-9.971 -9.973,-9.971 H 13.712665 c -5.48555,0 -9.97266,4.488 -9.97266,9.971 v 0.002 c 0,5.483 4.48711,9.973 9.97266,9.973"
       style="fill:#fbc6a4;fill-opacity:1;fill-rule:evenodd;stroke:none;stroke-width:0.1"
       id="path1197" /><path
       d="m 203.68301,174.88451 h 188.659 l 75,72.668 H 23.683005 l 180.000005,-72.668"
       style="fill:#df8c16;fill-opacity:1;fill-rule:evenodd;stroke:none;stroke-width:0.1"
       id="path1199"
       sodipodi:nodetypes="ccccc" /><path
       d="m 23.683005,231.98151 443.659005,-30.322 v 45.893 H 23.683005 v -15.571"
       style="fill:#fbca07;fill-opacity:1;fill-rule:evenodd;stroke:none;stroke-width:0.1"
       id="path1201" /><path
       d="m 317.82401,423.48051 h -1.096 c -5.068,0 -9.199,4.132 -9.199,9.198 v 2.967 h 19.494 v -2.967 c 0,-5.066 -4.133,-9.198 -9.199,-9.198"
       style="fill:#ffffff;fill-opacity:1;fill-rule:evenodd;stroke:none;stroke-width:0.1"
       id="path1203" /><path
       d="m 340.41601,174.88451 h 51.926 l 75,72.668 h -126.926 v -72.668"
       style="fill:#fbca07;fill-opacity:1;fill-rule:evenodd;stroke:none;stroke-width:0.1"
       id="path1205"
       sodipodi:nodetypes="ccccc" /><path
       d="m 287.33601,349.48251 v -28.154 l -6.354,-0.793 c -5.56,-0.695 -10.474,-3.954 -13.275,-8.806 -2.801,-4.854 -3.168,-10.737 -0.988,-15.9 l -10.159,13.787 c -6.044,8.204 -6.656,19.21 -1.56,28.039 5.095,8.825 14.933,13.798 25.062,12.665 l 7.274,-0.838"
       style="fill:#fbc6a4;fill-opacity:1;fill-rule:evenodd;stroke:none;stroke-width:0.1"
       id="path1207" /><path
       d="m 332.75401,337.38151 c 11.06,9.03 23.879,13.571 36.871,13.06 l -0.428,-37.802 -12.912,-8.667 c -12.082,-8.11 -26.365,-8.11 -38.447,0 0,17.432 6.172,26.309 14.916,33.409"
       style="fill:#fbc6a4;fill-opacity:1;fill-rule:evenodd;stroke:none;stroke-width:0.1"
       id="path1209" /><path
       d="m 299.51701,462.66851 -4.839,28.046 c -1.502,8.704 2.582,17.421 10.232,21.836 7.648,4.417 17.238,3.596 24.025,-2.056 l 28.166,-5.711 c 3.409,-0.69 6.071,-3.354 6.762,-6.761 l 2.801,-1.708 c 4.353,-2.656 5.855,-8.263 3.412,-12.741 l -8.172,-49.95 -5.824,1.406 c -4.024,0.971 -7.168,4.114 -8.141,8.14 l 0.83,18.177 -12.873,0.274 0.58,15.708 -7.056,-1.639 c -9.34,-2.17 -19.049,-2.194 -28.399,-0.071 l -1.504,-12.95"
       style="fill:#463c3b;fill-opacity:1;fill-rule:evenodd;stroke:none;stroke-width:0.1"
       id="path1211" /><path
       d="m 353.25201,470.40151 c 5.308,-0.897 8.625,-7.461 7.408,-14.663 -1.217,-7.202 -6.504,-12.315 -11.811,-11.418 -5.308,0.896 -8.625,7.46 -7.408,14.664 1.217,7.202 6.504,12.314 11.811,11.417"
       style="fill:#fbc6a4;fill-opacity:1;fill-rule:evenodd;stroke:none;stroke-width:0.1"
       id="path1213" /><path
       d="m 96.021608,347.49451 h 80.713402 c 6.689,0 13.571,-5.473 15.296,-12.161 l 14.338,-55.673 c 1.722,-6.692 -2.34,-12.162 -9.027,-12.162 h -80.716 c -6.686,0 -13.57,5.47 -15.2938,12.162 l -14.339902,55.673 c -1.7214,6.688 2.3399,12.161 9.0293,12.161"
       style="fill:#463c3b;fill-opacity:1;fill-rule:evenodd;stroke:none;stroke-width:0.1"
       id="path1215" /><path
       d="m 199.20001,307.49451 7.169,-27.834 c 1.722,-6.692 -2.34,-12.162 -9.027,-12.162 h -80.716 c -6.686,0 -13.57,5.47 -15.2938,12.162 l -7.168802,27.834 H 199.20001"
       style="fill:#2e2825;fill-opacity:1;fill-rule:evenodd;stroke:none;stroke-width:0.1"
       id="path1217" /><path
       d="M 94.163408,307.49451 H 199.20001 l -8.46,-23.009 c -3.437,-9.343 -13.891,-16.987 -23.236,-16.987 H 96.443508 c -9.3426,0 -14.1765,7.644 -10.741,16.987 l 8.4609,23.009"
       style="fill:#766764;fill-opacity:1;fill-rule:evenodd;stroke:none;stroke-width:0.1"
       id="path1219" /></g></svg>
