<?xml version="1.0" encoding="UTF-8" standalone="no"?>
<svg
   xmlns:dc="http://purl.org/dc/elements/1.1/"
   xmlns:cc="http://creativecommons.org/ns#"
   xmlns:rdf="http://www.w3.org/1999/02/22-rdf-syntax-ns#"
   xmlns:svg="http://www.w3.org/2000/svg"
   xmlns="http://www.w3.org/2000/svg"
   xmlns:sodipodi="http://sodipodi.sourceforge.net/DTD/sodipodi-0.dtd"
   xmlns:inkscape="http://www.inkscape.org/namespaces/inkscape"
   width="670"
   height="480"
   version="1.1"
   viewBox="0 0 670 480"
   xml:space="preserve"
   id="svg1595"
   sodipodi:docname="man2.svg"
   inkscape:version="1.0.2 (394de47547, 2021-03-26)"><metadata
     id="metadata1601"><rdf:RDF><cc:Work
         rdf:about=""><dc:format>image/svg+xml</dc:format><dc:type
           rdf:resource="http://purl.org/dc/dcmitype/StillImage" /></cc:Work></rdf:RDF></metadata><defs
     id="defs1599" /><sodipodi:namedview
     pagecolor="#ffffff"
     bordercolor="#666666"
     borderopacity="1"
     objecttolerance="10"
     gridtolerance="10"
     guidetolerance="10"
     inkscape:pageopacity="0"
     inkscape:pageshadow="2"
     inkscape:window-width="1528"
     inkscape:window-height="837"
     id="namedview1597"
     showgrid="false"
     inkscape:zoom="1.0076272"
     inkscape:cx="335"
     inkscape:cy="240"
     inkscape:window-x="72"
     inkscape:window-y="26"
     inkscape:window-maximized="1"
     inkscape:current-layer="svg1595" /><path
     d="m 374.86214,68.385082 c -9.00782,0 -16.35569,-11.785708 -16.35569,-26.233224 0,-14.449301 7.34787,-26.232331 16.35569,-26.232331 9.0105,0 16.35927,11.78303 16.35927,26.232331 0,14.447516 -7.34877,26.233224 -16.35927,26.233224"
     fill="#2e2825"
     id="path1549"
     style="fill-rule:evenodd;stroke-width:0.892924" /><path
     d="m 500.19301,99.440991 c -47.81521,0 -95.34647,49.657309 -106.15978,110.910129 -10.81331,61.25283 19.17734,110.91014 66.99165,110.91014 47.8161,0 95.34646,-49.65642 106.15977,-110.91014 10.816,-61.25639 -19.17644,-110.910129 -66.99164,-110.910129"
     fill="#2e2825"
     id="path1551"
     style="fill-rule:evenodd;stroke-width:0.892924" /><path
     d="m 386.13978,95.771072 c -61.2555,5.079848 -98.80208,69.461478 -83.86971,143.805468 14.93952,74.34041 76.70578,130.48303 137.96574,125.41122 61.25729,-5.07985 98.80208,-69.46148 83.86703,-143.80546 C 509.166,146.84277 447.39885,90.699262 386.14603,95.780001"
     fill="#cc2c23"
     id="path1553"
     style="fill-rule:evenodd;stroke-width:0.892924;fill:#970159;fill-opacity:1" /><path
     d="M 383.59495,256.70283 C 248.84373,227.46848 117.8428,250.26029 90.992568,307.61112 64.143226,364.96097 151.6132,435.1475 286.36441,464.39078 421.11563,493.62333 552.11656,470.83117 578.96679,413.4798 605.81613,356.13084 518.34526,285.94342 383.59495,256.70908"
     fill="#a49585"
     id="path1555"
     style="fill-rule:evenodd;stroke-width:0.892924" /><path
     d="m 435.44706,376.74757 -171.6647,-84.77245 c -6.44602,-3.18059 -12.97419,-1.20902 -19.23895,2.31536 l -89.3728,50.29128 c -2.92075,1.64477 -3.79225,5.18075 -3.45026,8.51493 0.34289,3.33686 2.1582,6.04777 5.11021,7.6345 l 177.14726,95.22145 c 7.16929,3.85386 14.72075,1.30367 21.30874,-3.47883 l 82.96071,-60.22507 c 2.59663,-1.88496 3.07255,-5.30218 2.50108,-8.45956 -0.57058,-3.1556 -2.43054,-5.62543 -5.30665,-7.04607"
     fill="#463c3b"
     id="path1557"
     style="fill-rule:evenodd;stroke-width:0.892924" /><path
     d="m 386.28265,416.28091 -37.50104,27.22347 c -2.40554,1.74656 -7.69165,4.12264 -13.10188,0.6313 L 173.12286,356.88536 c -1.68942,-0.90721 -2.65199,-2.58323 -2.58234,-4.49944 0.0688,-1.91532 1.15098,-3.51812 2.90111,-4.29943 L 214.384,329.79851 c 2.30642,-1.29742 6.17814,-3.37258 8.89084,-2.03409 l 162.29793,80.14979 c 1.58405,0.7813 2.56627,2.22159 2.71449,3.98154 0.15091,1.76085 -0.57504,3.34579 -2.00551,4.38516"
     fill="#2e2825"
     id="path1559"
     style="fill-rule:evenodd;stroke-width:0.892924" /><path
     d="M 333.98407,455.95443 291.10048,371.98561 C 285.50542,361.02943 277.76912,353.20027 267.071,347.12927 L 109.85381,257.93595 c -6.14332,-3.48508 -8.84263,1.53494 -5.21914,9.16319 l 36.33219,76.47183 c 3.58063,7.53717 8.52475,13.20546 15.87263,17.15754 l 177.14726,95.22145"
     fill="#766764"
     id="path1561"
     style="fill-rule:evenodd;stroke-width:0.892924" /><path
     d="m 349.3513,360.10346 -17.64419,12.81079 c -1.13312,0.82149 -3.61991,1.94032 -6.16564,0.29734 l -41.77725,-20.12026 c -1.72781,-0.83221 -1.50458,-3.10738 0.1509,-4.1396 l 19.62112,-12.2277 c 1.0858,-0.61166 3.71278,-0.46968 4.98966,0.16162 l 40.49144,19.2818 c 0.75006,0.35717 1.20813,1.04651 1.27778,1.87425 0.0705,0.82864 -0.26967,1.57423 -0.94382,2.06176"
     fill="#2e2825"
     id="path1563"
     style="fill-rule:evenodd;stroke-width:0.892924" /><path
     d="m 402.94462,351.01349 c -13.33136,-2.02515 -24.13932,2.67163 -24.13932,10.49365 0,7.82202 10.80796,15.80655 24.13932,17.83349 13.33046,2.02515 24.13753,-2.67074 24.13753,-10.49544 0,-7.82201 -10.80707,-15.80476 -24.13753,-17.8317"
     fill="#f28f61"
     id="path1565"
     style="fill-rule:evenodd;stroke-width:0.892924" /><path
     d="m 440.38493,106.57546 c 235.47308,64.61379 144.68053,319.49725 -17.10039,270.24355 -12.03841,-3.66456 -15.35116,-17.43346 -8.51761,-20.43904 75.96643,-33.4418 112.56205,-68.98019 96.62335,-168.36981 -9.92932,-22.43473 -33.18375,-59.93666 -71.00088,-81.43292"
     fill="#cc2c23"
     id="path1567"
     style="fill-rule:evenodd;stroke-width:0.892924;fill:#970159;fill-opacity:1" /><path
     d="m 369.29923,104.28064 c -9.78556,4.24764 -15.83423,11.18656 -15.83423,19.8256 0,17.36559 24.42416,35.02496 54.55232,39.44404 30.12816,4.41908 54.55143,-6.07635 54.55143,-23.44194 0,-10.1338 -8.31849,-20.36761 -21.23553,-28.01193 -8.41849,-4.98252 -13.72425,-12.555412 -15.53063,-22.170421 l -5.50131,-29.287025 -40.69681,3.989586 2.41446,16.8977 c 1.3885,9.723053 -3.7101,18.84428 -12.7197,22.75439"
     fill="#f89b7c"
     id="path1569"
     style="fill-rule:evenodd;stroke-width:0.892924" /><path
     d="m 369.29923,104.28064 c -3.736,1.62244 -6.92731,3.6351 -9.44357,5.98706 6.1835,6.3728 14.35286,10.17309 23.59731,10.17309 18.32281,0 35.0705,-14.93149 41.46294,-35.234799 l -4.61463,-24.567027 -40.69681,3.989586 2.41446,16.8977 c 1.3885,9.723053 -3.7101,18.84428 -12.7197,22.75439"
     fill="#d96639"
     id="path1571"
     style="fill-rule:evenodd;stroke-width:0.892924" /><path
     d="m 397.66743,15.800768 c -21.94451,0 -41.63259,21.412326 -43.97474,47.826813 -2.34214,26.414488 13.54924,47.826809 35.49196,47.826809 21.9454,0 41.63349,-21.412321 43.97474,-47.826809 2.34214,-26.414487 -13.54745,-47.826813 -35.49196,-47.826813"
     fill="#f5a682"
     id="path1573"
     style="fill-rule:evenodd;stroke-width:0.892924" /><path
     d="m 364.62923,100.26248 c -99.80215,9.35963 -151.52033,105.01683 -100.13253,202.55096 6.00223,11.39371 25.6305,1.74031 20.11937,-6.17814 -15.87084,-22.81244 -13.50638,-54.27998 14.90469,-76.50666 -1.3376,-46.17222 17.36827,-101.62371 65.1049,-119.86616"
     fill="#cc2c23"
     id="path1575"
     style="fill-rule:evenodd;stroke-width:0.892924;fill:#970159;fill-opacity:1" /><path
     d="m 283.28382,237.75497 c 3.94316,-6.25226 9.31231,-12.2161 16.23337,-17.629 l -3.30204,-41.79243 -12.94651,59.4375 0.0152,-0.0161"
     fill="#89201c"
     id="path1577"
     style="fill-rule:evenodd;stroke-width:0.892924;fill:#690159;fill-opacity:1" /><path
     d="m 286.81981,297.7952 c -9.87753,-4.745 -19.39164,-3.66456 -21.2525,2.41269 -1.86174,6.07992 4.63607,14.8529 14.5136,19.60058 9.87663,4.745 19.39342,3.66456 21.25338,-2.41268 1.85996,-6.07993 -4.63785,-14.85469 -14.51448,-19.60059"
     fill="#f28f61"
     id="path1579"
     style="fill-rule:evenodd;stroke-width:0.892924" /><path
     d="m 497.85905,297.50389 c 5.37389,-20.54529 5.32362,-41.09238 -0.47414,-61.63857 -6.50138,16.86735 -13.00277,33.73469 -19.50415,50.60024 l 8.9e-4,0.0125 c 6.92195,3.54402 13.58228,7.22465 19.96133,11.02583 h 0.0161"
     fill="#89201c"
     id="path1581"
     style="fill-rule:evenodd;stroke-width:0.892924;fill:#690159;fill-opacity:1" /><path
     d="m 423.7944,75.099873 c -9.00961,0 -16.35748,-11.784815 -16.35748,-26.232331 0,-14.449302 7.34787,-26.233224 16.35748,-26.233224 9.00961,0 16.35837,11.783922 16.35837,26.233224 0,14.447516 -7.34876,26.232331 -16.35837,26.232331"
     fill="#2e2825"
     id="path1583"
     style="fill-rule:evenodd;stroke-width:0.892924" /><path
     d="m 422.02641,81.073537 c -5.71382,0 -10.3731,-6.324583 -10.3731,-14.081417 0,-7.755047 4.65928,-14.081416 10.3731,-14.081416 5.71204,0 10.37131,6.326369 10.37131,14.081416 0,7.756834 -4.65927,14.081417 -10.37131,14.081417"
     fill="#f5a682"
     id="path1585"
     style="fill-rule:evenodd;stroke-width:0.892924" /><path
     d="m 390.88121,44.383276 c -20.59977,0 -37.40282,-9.320344 -37.40282,-20.747097 0,-11.42586 16.80305,-20.746204 37.40282,-20.746204 20.60155,0 37.40371,9.320344 37.40371,20.746204 0,11.426753 -16.80216,20.747097 -37.40371,20.747097"
     fill="#2e2825"
     id="path1587"
     style="fill-rule:evenodd;stroke-width:0.892924" /><path
     d="m 452.82337,438.96565 c -13.62335,0 -24.73579,-6.09332 -24.73579,-13.5662 0,-7.4711 11.11244,-13.56441 24.73579,-13.56441 13.62513,0 24.73758,6.09331 24.73758,13.56441 0,7.47288 -11.11245,13.5662 -24.73758,13.5662"
     fill="#463c3b"
     id="path1589"
     style="fill-rule:evenodd;stroke-width:0.892924" /></svg>
