<?xml version="1.0" encoding="UTF-8" standalone="no"?>
<svg
   xmlns:dc="http://purl.org/dc/elements/1.1/"
   xmlns:cc="http://creativecommons.org/ns#"
   xmlns:rdf="http://www.w3.org/1999/02/22-rdf-syntax-ns#"
   xmlns:svg="http://www.w3.org/2000/svg"
   xmlns="http://www.w3.org/2000/svg"
   xmlns:sodipodi="http://sodipodi.sourceforge.net/DTD/sodipodi-0.dtd"
   xmlns:inkscape="http://www.inkscape.org/namespaces/inkscape"
   enable-background="new 0 0 56.693 56.693"
   height="150"
   id="Layer_1"
   version="1.1"
   viewBox="0 0 240 150"
   width="240"
   xml:space="preserve"
   sodipodi:docname="mobile1.svg"
   inkscape:version="1.0.1 (3bc2e813f5, 2020-09-07)"><metadata
     id="metadata17"><rdf:RDF><cc:Work
         rdf:about=""><dc:format>image/svg+xml</dc:format><dc:type
           rdf:resource="http://purl.org/dc/dcmitype/StillImage" /><dc:title></dc:title></cc:Work></rdf:RDF></metadata><defs
     id="defs15"><marker
       style="overflow:visible"
       id="marker2754"
       refX="0"
       refY="0"
       orient="auto"
       inkscape:stockid="Arrow1Lstart"
       inkscape:isstock="true"><path
         transform="matrix(0.8,0,0,0.8,10,0)"
         style="fill-rule:evenodd;stroke:#000000;stroke-width:1pt"
         d="M 0,0 5,-5 -12.5,0 5,5 Z"
         id="path2752" /></marker><marker
       style="overflow:visible"
       id="Arrow1Lstart"
       refX="0"
       refY="0"
       orient="auto"
       inkscape:stockid="Arrow1Lstart"
       inkscape:isstock="true"><path
         transform="matrix(0.8,0,0,0.8,10,0)"
         style="fill-rule:evenodd;stroke:#000000;stroke-width:1pt"
         d="M 0,0 5,-5 -12.5,0 5,5 Z"
         id="path862" /></marker><marker
       style="overflow:visible"
       id="DotL"
       refX="0"
       refY="0"
       orient="auto"
       inkscape:stockid="DotL"
       inkscape:isstock="true"><path
         transform="matrix(0.8,0,0,0.8,5.92,0.8)"
         style="fill:#ffffff;fill-opacity:1;fill-rule:evenodd;stroke:#ffffff;stroke-width:1pt;stroke-opacity:1"
         d="m -2.5,-1 c 0,2.76 -2.24,5 -5,5 -2.76,0 -5,-2.24 -5,-5 0,-2.76 2.24,-5 5,-5 2.76,0 5,2.24 5,5 z"
         id="path923" /></marker><linearGradient
       gradientUnits="userSpaceOnUse"
       id="SVGID_1_"
       x1="3.3999658"
       x2="22.568413"
       y1="7.8420377"
       y2="16.780432"><stop
         offset="0"
         style="stop-color:#FFFFFF;stop-opacity:0.2"
         id="stop2029" /><stop
         offset="1"
         style="stop-color:#FFFFFF;stop-opacity:0"
         id="stop2031" /></linearGradient></defs><sodipodi:namedview
     pagecolor="#ffffff"
     bordercolor="#666666"
     borderopacity="1"
     objecttolerance="10"
     gridtolerance="10"
     guidetolerance="10"
     inkscape:pageopacity="0"
     inkscape:pageshadow="2"
     inkscape:window-width="1294"
     inkscape:window-height="709"
     id="namedview13"
     showgrid="false"
     inkscape:zoom="3.4673713"
     inkscape:cx="125.50041"
     inkscape:cy="82.742555"
     inkscape:window-x="72"
     inkscape:window-y="22"
     inkscape:window-maximized="1"
     inkscape:current-layer="Layer_1" /><path
     style="fill:none;stroke:#fefefe;stroke-width:1.30378;stroke-linecap:butt;stroke-linejoin:miter;stroke-miterlimit:4;stroke-dasharray:2.60755, 1.30377999999999994;stroke-dashoffset:0;stroke-opacity:1"
     d="M 182.56971,133.20032 H 58.432"
     id="path854" /><path
     style="fill:none;stroke:#ffffff;stroke-width:1.2438;stroke-linecap:butt;stroke-linejoin:miter;stroke-miterlimit:4;stroke-dasharray:2.48761, 1.24380000000000002;stroke-dashoffset:0;stroke-opacity:1"
     d="M 176.54847,41.887337 H 58"
     id="path856" /><path
     style="fill:none;stroke:#ffffff;stroke-width:1;stroke-linecap:butt;stroke-linejoin:miter;stroke-miterlimit:4;stroke-dasharray:3, 1;stroke-dashoffset:0;stroke-opacity:1"
     d="M 58.932474,133.20032 V 41.580944"
     id="path858" /><path
     style="fill:none;stroke:#ffffff;stroke-width:1;stroke-linecap:butt;stroke-linejoin:miter;stroke-miterlimit:4;stroke-dasharray:4, 1;stroke-dashoffset:0;stroke-opacity:1;marker-start:url(#DotL)"
     d="M 6.324286,85.091478 H 57.63808"
     id="path860" /><g
     id="g1287"
     transform="matrix(2.3208879,0,0,2.3208879,171.6941,5.9079852)"><path
       d="m 5,8.978 c -1.104,0 -2,0.896 -2,2 v 8 c 0,1.104 0.896,2 2,2 1.104,0 2,-0.896 2,-2 v -8 c 0,-1.105 -0.896,-2 -2,-2 z"
       fill="#85c808"
       id="path1279" /><path
       d="m 27,8.978 c -1.104,0 -2,0.896 -2,2 v 8 c 0,1.104 0.896,2 2,2 1.104,0 2,-0.896 2,-2 v -8 c 0,-1.105 -0.896,-2 -2,-2 z"
       fill="#85c808"
       id="path1281" /><path
       d="m 8,24.978 h 2 v 5 c 0,1.104 0.896,2 2,2 1.104,0 2,-0.896 2,-2 v -5 h 4 v 5 c 0,1.104 0.896,2 2,2 1.104,0 2,-0.896 2,-2 v -5 h 2 v -15 H 8 Z"
       fill="#85c808"
       id="path1283" /><path
       d="M 20.723,2.53 21.75,0.751 C 21.889,0.511 21.807,0.206 21.566,0.067 21.328,-0.072 21.021,0.01 20.883,0.251 L 19.882,1.985 C 18.732,1.345 17.41,0.978 16,0.978 c -1.409,0 -2.731,0.367 -3.882,1.008 L 11.116,0.25 C 10.977,0.011 10.673,-0.071 10.432,0.067 10.194,0.205 10.112,0.51 10.249,0.75 l 1.028,1.78 C 9.294,3.986 8,6.328 8,8.978 H 24 C 24,6.328 22.706,3.986 20.723,2.53 Z M 13,5.978 c -0.553,0 -1,-0.447 -1,-1 0,-0.553 0.447,-1 1,-1 0.553,0 1,0.447 1,1 0,0.553 -0.447,1 -1,1 z m 6,0 c -0.553,0 -1,-0.447 -1,-1 0,-0.553 0.447,-1 1,-1 0.553,0 1,0.447 1,1 0,0.553 -0.447,1 -1,1 z"
       fill="#85c808"
       id="path1285" /></g><g
     id="g1289"
     transform="matrix(2.3208879,0,0,2.3208879,66.856244,-100.99817)" /><g
     id="g1291"
     transform="matrix(2.3208879,0,0,2.3208879,66.856244,-100.99817)" /><g
     id="g1293"
     transform="matrix(2.3208879,0,0,2.3208879,66.856244,-100.99817)" /><g
     id="g1295"
     transform="matrix(2.3208879,0,0,2.3208879,66.856244,-100.99817)" /><g
     id="g1297"
     transform="matrix(2.3208879,0,0,2.3208879,66.856244,-100.99817)" /><g
     id="g1299"
     transform="matrix(2.3208879,0,0,2.3208879,66.856244,-100.99817)" /><g
     id="g2036"
     transform="matrix(2.65512,0,0,2.65512,176.96687,84.13356)"><path
       d="m 18.003138,12.500002 c 0,-2.151489 1.238462,-4.0093995 3.038805,-4.9132086 -1.607129,-1.505188 -3.672108,-1.586792 -4.039002,-1.586792 -0.975288,0 -1.671225,0.2641602 -2.34372,0.5195312 -0.651495,0.2475586 -1.266851,0.480957 -2.157162,0.480957 -0.890311,0 -1.505666,-0.2333984 -2.157161,-0.480957 C 9.6724024,6.2641615 8.9764652,6.0000014 8.0011768,6.0000014 7.3867984,6.0000014 2,6.1962905 2,13.00049 c 0,5.563965 3.7971311,10.999512 6.0011768,10.999512 1.3493853,0 2.1254172,-0.31543 2.8106102,-0.59375 0.535261,-0.217285 0.998242,-0.405273 1.690272,-0.405273 0.692031,0 1.155012,0.187988 1.690273,0.405761 0.685193,0.277832 1.461224,0.593262 2.810121,0.593262 1.544126,0 3.742967,-2.671021 4.997547,-6.181763 -2.368322,-0.613525 -3.996862,-2.758545 -3.996862,-5.318237 z"
       fill="#1a1a1a"
       id="path2018" /><path
       d="M 12.002262,6 C 14.931899,5.4000001 17.031868,2.9851143 17.00264,-1.4e-6 14.073001,0.5999985 11.973033,3.0148842 12.002262,6 Z"
       fill="#1a1a1a"
       id="XMLID_1339_" /><path
       d="m 8.0011768,6.2500014 c 0.9752884,0 1.6712255,0.2641602 2.3437212,0.5195312 0.651495,0.2475586 1.26685,0.480957 2.157161,0.480957 0.890311,0 1.505667,-0.2333984 2.157162,-0.480957 0.672495,-0.2553711 1.368432,-0.5195312 2.34372,-0.5195312 0.353647,0 2.281759,0.088867 3.860132,1.4424438 0.0608,-0.033447 0.116722,-0.074463 0.178869,-0.1056519 -1.607128,-1.505188 -3.672107,-1.586792 -4.039001,-1.586792 -0.975288,0 -1.671226,0.2641602 -2.34372,0.5195312 -0.651495,0.2475586 -1.266851,0.480957 -2.157162,0.480957 -0.890311,0 -1.505666,-0.2333984 -2.157161,-0.480957 C 9.6724023,6.2641614 8.9764651,6.0000013 8.0011767,6.0000013 7.3867984,6.0000014 2,6.1962905 2,13.00049 2,13.04639 2.00519,13.09192 2.00568,13.137758 2.068192,6.4504409 7.3904029,6.2500014 8.0011793,6.2500014 Z"
       fill="#ffffff"
       opacity="0.1"
       id="path2021" /><path
       d="m 17.002453,23.750002 c -1.348897,0 -2.124928,-0.31543 -2.810121,-0.593262 -0.535261,-0.217773 -0.998242,-0.405761 -1.690273,-0.405761 -0.69203,0 -1.155011,0.187988 -1.690272,0.405273 -0.685193,0.27832 -1.4612249,0.59375 -2.8106101,0.59375 -2.1858535,0 -5.9337196,-5.34668 -5.9954996,-10.862244 C 2.005311,12.927248 2,12.960512 2,13.00049 c 0,5.563965 3.7971311,10.999512 6.0011768,10.999512 1.3493853,0 2.1254172,-0.31543 2.8106102,-0.59375 0.535261,-0.217285 0.998242,-0.405273 1.690272,-0.405273 0.692031,0 1.155012,0.187988 1.690273,0.405761 0.685193,0.277832 1.461224,0.593262 2.810121,0.593262 1.544126,0 3.742967,-2.671021 4.997547,-6.181763 -0.02906,-0.0075 -0.05531,-0.02142 -0.08419,-0.02942 -1.271488,3.400208 -3.402078,5.961182 -4.913362,5.961182 z"
       opacity="0.2"
       id="path2023" /><path
       d="m 16.9795,0.4421892 c -0.2064,2.7311401 -2.230799,4.7339478 -4.974196,5.3046875 -0.0027,0.086548 -0.0039,0.1655393 -0.003,0.2531247 2.84211,-0.5820923 4.903543,-2.8775632 4.997494,-5.7393188 -0.0087,0.0467571 -0.0054,0.125549 -0.02026,0.1815066 z"
       opacity="0.2"
       id="path2025" /><path
       d="m 12.005304,5.7342291 c 0.01163,-0.065202 0.02608,-0.2464743 0.04042,-0.3561025 0.0104,-0.1377368 0.02537,-0.2731414 0.04478,-0.4061723 0.365456,-2.5056813 2.303373,-4.1691899 4.909272,-4.7112713 0.0027,-0.0865479 0.0037,-0.1730957 0.0029,-0.2606812 -2.843025,0.5822142 -4.904601,2.8711289 -4.997332,5.7342273 z"
       fill="#ffffff"
       opacity="0.1"
       id="path2027" /><linearGradient
       gradientUnits="userSpaceOnUse"
       id="linearGradient2657"
       x1="3.3999658"
       x2="22.568413"
       y1="7.8420377"
       y2="16.780432"><stop
         offset="0"
         style="stop-color:#FFFFFF;stop-opacity:0.2"
         id="stop2653" /><stop
         offset="1"
         style="stop-color:#FFFFFF;stop-opacity:0"
         id="stop2655" /></linearGradient><path
       d="m 18.003138,12.500002 c 0,-2.151489 1.238462,-4.0093995 3.038805,-4.9132086 -1.607129,-1.505188 -3.672108,-1.586792 -4.039002,-1.586792 -0.975288,0 -1.671225,0.2641602 -2.34372,0.5195312 -0.651495,0.2475586 -1.266851,0.480957 -2.157162,0.480957 -0.890311,0 -1.505666,-0.2333984 -2.157161,-0.480957 C 9.6724024,6.2641615 8.9764652,6.0000014 8.0011768,6.0000014 7.3867984,6.0000014 2,6.1962905 2,13.00049 c 0,5.563965 3.7971311,10.999512 6.0011768,10.999512 1.3493853,0 2.1254172,-0.31543 2.8106102,-0.59375 0.535261,-0.217285 0.998242,-0.405273 1.690272,-0.405273 0.692031,0 1.155012,0.187988 1.690273,0.405761 0.685193,0.277832 1.461224,0.593262 2.810121,0.593262 1.544126,0 3.742967,-2.671021 4.997547,-6.181763 -2.368322,-0.613525 -3.996862,-2.758545 -3.996862,-5.318237 z M 17.002636,1.7e-6 c -2.929651,0.5999756 -5.029612,3.0148926 -5.00037,6 2.929652,-0.6000369 5.029611,-3.0148926 5.00037,-6 z"
       fill="url(#SVGID_1_)"
       id="path2034"
       style="fill:url(#SVGID_1_)" /></g><g
     id="g2038"
     transform="matrix(2.8853708,0,0,2.8853708,96.799528,-43.813336)" /><g
     id="g2040"
     transform="matrix(2.8853708,0,0,2.8853708,96.799528,-43.813336)" /><g
     id="g2042"
     transform="matrix(2.8853708,0,0,2.8853708,96.799528,-43.813336)" /><g
     id="g2044"
     transform="matrix(2.8853708,0,0,2.8853708,96.799528,-43.813336)" /><g
     id="g2046"
     transform="matrix(2.8853708,0,0,2.8853708,96.799528,-43.813336)" /><g
     id="g2048"
     transform="matrix(2.8853708,0,0,2.8853708,96.799528,-43.813336)" /><g
     id="g2050"
     transform="matrix(2.8853708,0,0,2.8853708,96.799528,-43.813336)" /><g
     id="g2052"
     transform="matrix(2.8853708,0,0,2.8853708,96.799528,-43.813336)" /><g
     id="g2054"
     transform="matrix(2.8853708,0,0,2.8853708,96.799528,-43.813336)" /><g
     id="g2056"
     transform="matrix(2.8853708,0,0,2.8853708,96.799528,-43.813336)" /><g
     id="g2058"
     transform="matrix(2.8853708,0,0,2.8853708,96.799528,-43.813336)" /><g
     id="g2060"
     transform="matrix(2.8853708,0,0,2.8853708,96.799528,-43.813336)" /><g
     id="g2062"
     transform="matrix(2.8853708,0,0,2.8853708,96.799528,-43.813336)" /><g
     id="g2064"
     transform="matrix(2.8853708,0,0,2.8853708,96.799528,-43.813336)" /><g
     id="g2066"
     transform="matrix(2.8853708,0,0,2.8853708,96.799528,-43.813336)" /><text
     xml:space="preserve"
     style="font-size:40px;line-height:1.25;font-family:'Carrois Gothic';-inkscape-font-specification:'Carrois Gothic'"
     x="71.200005"
     y="164.27136"
     id="text2800"><tspan
       sodipodi:role="line"
       id="tspan2798"
       x="71.200005"
       y="164.27136" /></text><g
     aria-label="Anroid"
     id="text2804"
     style="font-size:40px;line-height:1.25;font-family:Roboto;-inkscape-font-specification:Roboto;fill:#ffffff"
     transform="matrix(0.30533228,0,0,0.30533228,65.515034,-22.9363)"><path
       d="m 137.03921,192.58992 h -11.91407 l -2.67578,7.42188 h -3.86718 l 10.85937,-28.4375 h 3.28125 l 10.87891,28.4375 h -3.84766 z m -10.78125,-3.08594 h 9.66797 l -4.84375,-13.30078 z"
       id="path2806"
       style="fill:#ffffff" /><path
       d="m 150.28139,178.87898 0.11719,2.65625 q 2.42188,-3.04687 6.32813,-3.04687 6.69922,0 6.75781,7.55859 v 13.96485 h -3.61328 v -13.98438 q -0.0195,-2.28516 -1.05469,-3.37891 -1.01562,-1.09375 -3.18359,-1.09375 -1.75782,0 -3.08594,0.9375 -1.32813,0.9375 -2.07031,2.46094 v 15.0586 h -3.61328 v -21.13282 z"
       id="path2808"
       style="fill:#ffffff" /><path
       d="m 179.14858,182.12117 q -0.82031,-0.13672 -1.77734,-0.13672 -3.55469,0 -4.82422,3.02735 v 15 h -3.61328 v -21.13282 h 3.51562 l 0.0586,2.44141 q 1.77734,-2.83203 5.03906,-2.83203 1.05469,0 1.60156,0.27344 z"
       id="path2810"
       style="fill:#ffffff" /><path
       d="m 181.12124,189.25008 q 0,-3.10547 1.21094,-5.58594 1.23046,-2.48047 3.39843,-3.82813 2.1875,-1.34765 4.98047,-1.34765 4.31641,0 6.97266,2.98828 2.67578,2.98828 2.67578,7.94922 v 0.2539 q 0,3.08594 -1.19141,5.54688 -1.17187,2.44141 -3.3789,3.80859 -2.1875,1.36719 -5.03907,1.36719 -4.29687,0 -6.97265,-2.98828 -2.65625,-2.98828 -2.65625,-7.91016 z m 3.63281,0.42968 q 0,3.51563 1.62109,5.64454 1.64063,2.1289 4.375,2.1289 2.75391,0 4.375,-2.14844 1.6211,-2.16796 1.6211,-6.05468 0,-3.47657 -1.66016,-5.625 -1.64062,-2.16797 -4.375,-2.16797 -2.67578,0 -4.3164,2.1289 -1.64063,2.12891 -1.64063,6.09375 z"
       id="path2812"
       style="fill:#ffffff" /><path
       d="m 208.81655,200.0118 h -3.61328 v -21.13282 h 3.61328 z m -3.90625,-26.73829 q 0,-0.8789 0.52734,-1.48437 0.54688,-0.60547 1.60157,-0.60547 1.05468,0 1.60156,0.60547 0.54687,0.60547 0.54687,1.48437 0,0.87891 -0.54687,1.46485 -0.54688,0.58594 -1.60156,0.58594 -1.05469,0 -1.60157,-0.58594 -0.52734,-0.58594 -0.52734,-1.46485 z"
       id="path2814"
       style="fill:#ffffff" /><path
       d="m 213.71889,189.26961 q 0,-4.86328 2.30469,-7.8125 2.30469,-2.96875 6.03516,-2.96875 3.71094,0 5.8789,2.53906 V 170.0118 h 3.61329 v 30 h -3.32032 l -0.17578,-2.26563 q -2.16797,2.65625 -6.03515,2.65625 -3.67188,0 -5.9961,-3.00781 -2.30469,-3.00781 -2.30469,-7.85156 z m 3.61329,0.41015 q 0,3.59375 1.48437,5.625 1.48438,2.03125 4.10156,2.03125 3.4375,0 5.01953,-3.08593 v -9.70703 q -1.62109,-2.98829 -4.98046,-2.98829 -2.65625,0 -4.14063,2.05079 -1.48437,2.05078 -1.48437,6.07421 z"
       id="path2816"
       style="fill:#ffffff" /></g><text
     xml:space="preserve"
     style="font-size:11.8939px;line-height:1.25;font-family:Roboto;-inkscape-font-specification:Roboto;fill:#ffffff;stroke-width:0.297348"
     x="110.95116"
     y="129.28862"
     id="text2821"><tspan
       sodipodi:role="line"
       id="tspan2819"
       x="110.95116"
       y="129.28862"
       style="fill:#ffffff;stroke-width:0.297348">ios</tspan></text></svg>
