<?xml version="1.0" encoding="UTF-8" standalone="no"?>
<svg
   xmlns:dc="http://purl.org/dc/elements/1.1/"
   xmlns:cc="http://creativecommons.org/ns#"
   xmlns:rdf="http://www.w3.org/1999/02/22-rdf-syntax-ns#"
   xmlns:svg="http://www.w3.org/2000/svg"
   xmlns="http://www.w3.org/2000/svg"
   xmlns:sodipodi="http://sodipodi.sourceforge.net/DTD/sodipodi-0.dtd"
   xmlns:inkscape="http://www.inkscape.org/namespaces/inkscape"
   enable-background="new 0 0 56.693 56.693"
   height="133"
   id="Layer_1"
   version="1.1"
   viewBox="0 0 223 133"
   width="223"
   xml:space="preserve"
   sodipodi:docname="mobile1.svg"
   inkscape:version="1.0.2 (394de47547, 2021-03-26)"><metadata
     id="metadata17"><rdf:RDF><cc:Work
         rdf:about=""><dc:format>image/svg+xml</dc:format><dc:type
           rdf:resource="http://purl.org/dc/dcmitype/StillImage" /><dc:title /></cc:Work></rdf:RDF></metadata><defs
     id="defs15"><marker
       style="overflow:visible"
       id="marker2754"
       refX="0"
       refY="0"
       orient="auto"
       inkscape:stockid="Arrow1Lstart"
       inkscape:isstock="true"><path
         transform="matrix(0.8,0,0,0.8,10,0)"
         style="fill-rule:evenodd;stroke:#000000;stroke-width:1pt"
         d="M 0,0 5,-5 -12.5,0 5,5 Z"
         id="path2752" /></marker><marker
       style="overflow:visible"
       id="Arrow1Lstart"
       refX="0"
       refY="0"
       orient="auto"
       inkscape:stockid="Arrow1Lstart"
       inkscape:isstock="true"><path
         transform="matrix(0.8,0,0,0.8,10,0)"
         style="fill-rule:evenodd;stroke:#000000;stroke-width:1pt"
         d="M 0,0 5,-5 -12.5,0 5,5 Z"
         id="path862" /></marker><marker
       style="overflow:visible"
       id="DotL"
       refX="0"
       refY="0"
       orient="auto"
       inkscape:stockid="DotL"
       inkscape:isstock="true"><path
         transform="matrix(0.8,0,0,0.8,5.92,0.8)"
         style="fill:#ffffff;fill-opacity:1;fill-rule:evenodd;stroke:#ffffff;stroke-width:1pt;stroke-opacity:1"
         d="m -2.5,-1 c 0,2.76 -2.24,5 -5,5 -2.76,0 -5,-2.24 -5,-5 0,-2.76 2.24,-5 5,-5 2.76,0 5,2.24 5,5 z"
         id="path923" /></marker><linearGradient
       gradientUnits="userSpaceOnUse"
       id="SVGID_1_"
       x1="3.3999658"
       x2="22.568413"
       y1="7.8420377"
       y2="16.780432"><stop
         offset="0"
         style="stop-color:#FFFFFF;stop-opacity:0.2"
         id="stop2029" /><stop
         offset="1"
         style="stop-color:#FFFFFF;stop-opacity:0"
         id="stop2031" /></linearGradient><linearGradient
       gradientUnits="userSpaceOnUse"
       id="linearGradient2657"
       x1="3.3999658"
       x2="22.568413"
       y1="7.8420377"
       y2="16.780432"><stop
         offset="0"
         style="stop-color:#FFFFFF;stop-opacity:0.2"
         id="stop2653" /><stop
         offset="1"
         style="stop-color:#FFFFFF;stop-opacity:0"
         id="stop2655" /></linearGradient></defs><sodipodi:namedview
     pagecolor="#ffffff"
     bordercolor="#666666"
     borderopacity="1"
     objecttolerance="10"
     gridtolerance="10"
     guidetolerance="10"
     inkscape:pageopacity="0"
     inkscape:pageshadow="2"
     inkscape:window-width="1608"
     inkscape:window-height="1013"
     id="namedview13"
     showgrid="false"
     inkscape:zoom="4.9036035"
     inkscape:cx="53.399641"
     inkscape:cy="71.685871"
     inkscape:window-x="72"
     inkscape:window-y="0"
     inkscape:window-maximized="1"
     inkscape:current-layer="Layer_1"
     inkscape:document-rotation="0" /><path
     style="fill:none;stroke:#fefefe;stroke-width:1.27114;stroke-linecap:butt;stroke-linejoin:miter;stroke-miterlimit:4;stroke-dasharray:2.54227, 1.27114;stroke-dashoffset:0;stroke-opacity:1"
     d="m 175.823,116.46023 h -118"
     id="path854" /><path
     style="fill:none;stroke:#ffffff;stroke-width:1.24092;stroke-linecap:butt;stroke-linejoin:miter;stroke-miterlimit:4;stroke-dasharray:2.48185, 1.24092;stroke-dashoffset:0;stroke-opacity:1"
     d="m 175.708,25.24746 h -118"
     id="path856" /><path
     style="fill:none;stroke:#ffffff;stroke-width:0.998906;stroke-linecap:butt;stroke-linejoin:miter;stroke-miterlimit:4;stroke-dasharray:2.99672, 0.998906;stroke-dashoffset:0;stroke-opacity:1"
     d="M 57.855786,116.56 V 25.141"
     id="path858" /><path
     style="fill:none;stroke:#ffffff;stroke-width:1;stroke-linecap:butt;stroke-linejoin:miter;stroke-miterlimit:4;stroke-dasharray:4, 1;stroke-dashoffset:0;stroke-opacity:1;marker-start:url(#DotL)"
     d="M 6.5473333,68.351523 H 57.861127"
     id="path860" /><g
     id="g1287"
     transform="matrix(1.541067,0,0,1.541067,177.11802,0.54797983)"
     style="fill:#ffffff"><path
       d="m 5,8.978 c -1.104,0 -2,0.896 -2,2 v 8 c 0,1.104 0.896,2 2,2 1.104,0 2,-0.896 2,-2 v -8 c 0,-1.105 -0.896,-2 -2,-2 z"
       fill="#85c808"
       id="path1279"
       style="fill:#ffffff" /><path
       d="m 27,8.978 c -1.104,0 -2,0.896 -2,2 v 8 c 0,1.104 0.896,2 2,2 1.104,0 2,-0.896 2,-2 v -8 c 0,-1.105 -0.896,-2 -2,-2 z"
       fill="#85c808"
       id="path1281"
       style="fill:#ffffff" /><path
       d="m 8,24.978 h 2 v 5 c 0,1.104 0.896,2 2,2 1.104,0 2,-0.896 2,-2 v -5 h 4 v 5 c 0,1.104 0.896,2 2,2 1.104,0 2,-0.896 2,-2 v -5 h 2 v -15 H 8 Z"
       fill="#85c808"
       id="path1283"
       style="fill:#ffffff" /><path
       d="M 20.723,2.53 21.75,0.751 C 21.889,0.511 21.807,0.206 21.566,0.067 21.328,-0.072 21.021,0.01 20.883,0.251 L 19.882,1.985 C 18.732,1.345 17.41,0.978 16,0.978 c -1.409,0 -2.731,0.367 -3.882,1.008 L 11.116,0.25 C 10.977,0.011 10.673,-0.071 10.432,0.067 10.194,0.205 10.112,0.51 10.249,0.75 l 1.028,1.78 C 9.294,3.986 8,6.328 8,8.978 H 24 C 24,6.328 22.706,3.986 20.723,2.53 Z M 13,5.978 c -0.553,0 -1,-0.447 -1,-1 0,-0.553 0.447,-1 1,-1 0.553,0 1,0.447 1,1 0,0.553 -0.447,1 -1,1 z m 6,0 c -0.553,0 -1,-0.447 -1,-1 0,-0.553 0.447,-1 1,-1 0.553,0 1,0.447 1,1 0,0.553 -0.447,1 -1,1 z"
       fill="#85c808"
       id="path1285"
       style="fill:#ffffff" /></g><g
     id="g1289"
     transform="matrix(2.3208879,0,0,2.3208879,65.779556,-117.73813)" /><g
     id="g1291"
     transform="matrix(2.3208879,0,0,2.3208879,65.779556,-117.73813)" /><g
     id="g1293"
     transform="matrix(2.3208879,0,0,2.3208879,65.779556,-117.73813)" /><g
     id="g1295"
     transform="matrix(2.3208879,0,0,2.3208879,65.779556,-117.73813)" /><g
     id="g1297"
     transform="matrix(2.3208879,0,0,2.3208879,65.779556,-117.73813)" /><g
     id="g1299"
     transform="matrix(2.3208879,0,0,2.3208879,65.779556,-117.73813)" /><path
     d="m 212.90803,110.83952 c 0,-3.98999 2.29675,-7.43552 5.63552,-9.11165 -2.98045,-2.791405 -6.80999,-2.942735 -7.49041,-2.942735 -1.80869,0 -3.09931,0.48989 -4.34647,0.96348 -1.20821,0.459095 -2.3494,0.891935 -4.0005,0.891935 -1.6511,0 -2.79229,-0.43284 -4.0005,-0.891935 -1.24716,-0.47359 -2.53779,-0.96348 -4.34648,-0.96348 -1.13937,0 -11.1293,0.36402 -11.1293,12.982545 0,10.31848 7.04186,20.39882 11.1293,20.39882 2.50246,0 3.94163,-0.58498 5.21233,-1.10113 0.99265,-0.40296 1.85126,-0.75159 3.13465,-0.75159 1.28338,0 2.14199,0.34863 3.13464,0.75249 1.2707,0.51525 2.70987,1.10023 5.21143,1.10023 2.86361,0 6.94141,-4.95347 9.26805,-11.46421 -4.3921,-1.1378 -7.41226,-5.11578 -7.41226,-9.86277 z"
     fill="#1a1a1a"
     id="path2018"
     style="fill:#ffffff;stroke-width:1.85444;stroke-miterlimit:4;stroke-dasharray:none" /><path
     d="m 201.13844,98.785135 c 5.43306,-1.11272 9.3275,-5.59117 9.2733,-11.12713 -5.43308,1.11271 -9.32751,5.59117 -9.2733,11.12713 z"
     fill="#1a1a1a"
     id="XMLID_1339_"
     style="fill:#ffffff;stroke-width:1.85444;stroke-miterlimit:4;stroke-dasharray:none" /><g
     id="g2038"
     transform="matrix(2.8853708,0,0,2.8853708,95.72284,-60.553291)" /><g
     id="g2040"
     transform="matrix(2.8853708,0,0,2.8853708,95.72284,-60.553291)" /><g
     id="g2042"
     transform="matrix(2.8853708,0,0,2.8853708,95.72284,-60.553291)" /><g
     id="g2044"
     transform="matrix(2.8853708,0,0,2.8853708,95.72284,-60.553291)" /><g
     id="g2046"
     transform="matrix(2.8853708,0,0,2.8853708,95.72284,-60.553291)" /><g
     id="g2048"
     transform="matrix(2.8853708,0,0,2.8853708,95.72284,-60.553291)" /><g
     id="g2050"
     transform="matrix(2.8853708,0,0,2.8853708,95.72284,-60.553291)" /><g
     id="g2052"
     transform="matrix(2.8853708,0,0,2.8853708,95.72284,-60.553291)" /><g
     id="g2054"
     transform="matrix(2.8853708,0,0,2.8853708,95.72284,-60.553291)" /><g
     id="g2056"
     transform="matrix(2.8853708,0,0,2.8853708,95.72284,-60.553291)" /><g
     id="g2058"
     transform="matrix(2.8853708,0,0,2.8853708,95.72284,-60.553291)" /><g
     id="g2060"
     transform="matrix(2.8853708,0,0,2.8853708,95.72284,-60.553291)" /><g
     id="g2062"
     transform="matrix(2.8853708,0,0,2.8853708,95.72284,-60.553291)" /><g
     id="g2064"
     transform="matrix(2.8853708,0,0,2.8853708,95.72284,-60.553291)" /><g
     id="g2066"
     transform="matrix(2.8853708,0,0,2.8853708,95.72284,-60.553291)" /><text
     xml:space="preserve"
     style="font-size:40px;line-height:1.25;font-family:'Carrois Gothic';-inkscape-font-specification:'Carrois Gothic'"
     x="70.123314"
     y="147.5314"
     id="text2800"><tspan
       sodipodi:role="line"
       id="tspan2798"
       x="70.123314"
       y="147.5314" /></text><g
     aria-label="Anroid"
     id="text2804"
     style="font-size:40px;line-height:1.25;font-family:Roboto;-inkscape-font-specification:Roboto;fill:#ffffff"
     transform="matrix(0.30533228,0,0,0.30533228,64.438346,-39.676255)"><path
       d="m 137.03921,192.58992 h -11.91407 l -2.67578,7.42188 h -3.86718 l 10.85937,-28.4375 h 3.28125 l 10.87891,28.4375 h -3.84766 z m -10.78125,-3.08594 h 9.66797 l -4.84375,-13.30078 z"
       id="path2806"
       style="fill:#ffffff" /><path
       d="m 150.28139,178.87898 0.11719,2.65625 q 2.42188,-3.04687 6.32813,-3.04687 6.69922,0 6.75781,7.55859 v 13.96485 h -3.61328 v -13.98438 q -0.0195,-2.28516 -1.05469,-3.37891 -1.01562,-1.09375 -3.18359,-1.09375 -1.75782,0 -3.08594,0.9375 -1.32813,0.9375 -2.07031,2.46094 v 15.0586 h -3.61328 v -21.13282 z"
       id="path2808"
       style="fill:#ffffff" /><path
       d="m 179.14858,182.12117 q -0.82031,-0.13672 -1.77734,-0.13672 -3.55469,0 -4.82422,3.02735 v 15 h -3.61328 v -21.13282 h 3.51562 l 0.0586,2.44141 q 1.77734,-2.83203 5.03906,-2.83203 1.05469,0 1.60156,0.27344 z"
       id="path2810"
       style="fill:#ffffff" /><path
       d="m 181.12124,189.25008 q 0,-3.10547 1.21094,-5.58594 1.23046,-2.48047 3.39843,-3.82813 2.1875,-1.34765 4.98047,-1.34765 4.31641,0 6.97266,2.98828 2.67578,2.98828 2.67578,7.94922 v 0.2539 q 0,3.08594 -1.19141,5.54688 -1.17187,2.44141 -3.3789,3.80859 -2.1875,1.36719 -5.03907,1.36719 -4.29687,0 -6.97265,-2.98828 -2.65625,-2.98828 -2.65625,-7.91016 z m 3.63281,0.42968 q 0,3.51563 1.62109,5.64454 1.64063,2.1289 4.375,2.1289 2.75391,0 4.375,-2.14844 1.6211,-2.16796 1.6211,-6.05468 0,-3.47657 -1.66016,-5.625 -1.64062,-2.16797 -4.375,-2.16797 -2.67578,0 -4.3164,2.1289 -1.64063,2.12891 -1.64063,6.09375 z"
       id="path2812"
       style="fill:#ffffff" /><path
       d="m 208.81655,200.0118 h -3.61328 v -21.13282 h 3.61328 z m -3.90625,-26.73829 q 0,-0.8789 0.52734,-1.48437 0.54688,-0.60547 1.60157,-0.60547 1.05468,0 1.60156,0.60547 0.54687,0.60547 0.54687,1.48437 0,0.87891 -0.54687,1.46485 -0.54688,0.58594 -1.60156,0.58594 -1.05469,0 -1.60157,-0.58594 -0.52734,-0.58594 -0.52734,-1.46485 z"
       id="path2814"
       style="fill:#ffffff" /><path
       d="m 213.71889,189.26961 q 0,-4.86328 2.30469,-7.8125 2.30469,-2.96875 6.03516,-2.96875 3.71094,0 5.8789,2.53906 V 170.0118 h 3.61329 v 30 h -3.32032 l -0.17578,-2.26563 q -2.16797,2.65625 -6.03515,2.65625 -3.67188,0 -5.9961,-3.00781 -2.30469,-3.00781 -2.30469,-7.85156 z m 3.61329,0.41015 q 0,3.59375 1.48437,5.625 1.48438,2.03125 4.10156,2.03125 3.4375,0 5.01953,-3.08593 v -9.70703 q -1.62109,-2.98829 -4.98046,-2.98829 -2.65625,0 -4.14063,2.05079 -1.48437,2.05078 -1.48437,6.07421 z"
       id="path2816"
       style="fill:#ffffff" /></g><text
     xml:space="preserve"
     style="font-size:11.8939px;line-height:1.25;font-family:Roboto;-inkscape-font-specification:Roboto;fill:#ffffff;stroke-width:0.297348"
     x="109.87447"
     y="112.54867"
     id="text2821"><tspan
       sodipodi:role="line"
       id="tspan2819"
       x="109.87447"
       y="112.54867"
       style="fill:#ffffff;stroke-width:0.297348">ios</tspan></text></svg>
