<?xml version="1.0" encoding="UTF-8" standalone="no"?>
<!-- Written by Treer (gitlab.com/Treer) -->

<svg
   xmlns:dc="http://purl.org/dc/elements/1.1/"
   xmlns:cc="http://creativecommons.org/ns#"
   xmlns:rdf="http://www.w3.org/1999/02/22-rdf-syntax-ns#"
   xmlns:svg="http://www.w3.org/2000/svg"
   xmlns="http://www.w3.org/2000/svg"
   xmlns:sodipodi="http://sodipodi.sourceforge.net/DTD/sodipodi-0.dtd"
   xmlns:inkscape="http://www.inkscape.org/namespaces/inkscape"
   version="1.1"
   width="32"
   height="32"
   id="svg891"
   sodipodi:docname="profile.svg"
   style="fill:#ffffff"
   inkscape:version="0.92.5 (2060ec1f9f, 2020-04-08)">
  <metadata
     id="metadata895">
    <rdf:RDF>
      <cc:Work
         rdf:about="">
        <dc:format>image/svg+xml</dc:format>
        <dc:type
           rdf:resource="http://purl.org/dc/dcmitype/StillImage" />
        <dc:title>Abstract user icon</dc:title>
      </cc:Work>
    </rdf:RDF>
  </metadata>
  <sodipodi:namedview
     pagecolor="#ffffff"
     bordercolor="#666666"
     borderopacity="1"
     objecttolerance="10"
     gridtolerance="10"
     guidetolerance="10"
     inkscape:pageopacity="0"
     inkscape:pageshadow="2"
     inkscape:window-width="1528"
     inkscape:window-height="837"
     id="namedview893"
     showgrid="false"
     inkscape:zoom="8.8266667"
     inkscape:cx="16.990352"
     inkscape:cy="10.123825"
     inkscape:window-x="1752"
     inkscape:window-y="440"
     inkscape:window-maximized="1"
     inkscape:current-layer="g924" />
  <title
     id="title878">Abstract user icon</title>
  <defs
     id="defs883">
    <clipPath
       id="circular-border">
      <circle
         cx="300"
         cy="300"
         r="250"
         id="circle880" />
    </clipPath>
  </defs>
  <g
     id="g924">
    <path
       style="fill:#ffffff;stroke-width:0.05714286"
       d="M 16 0 C 7.1634442 5.5228469e-07 5.5228469e-07 7.1634442 0 16 C 5.5228469e-07 24.836556 7.1634442 31.999999 16 32 C 24.836556 31.999999 31.999999 24.836556 32 16 C 31.999999 7.1634442 24.836556 5.5228469e-07 16 0 z M 16 3.4042969 C 19.156349 3.4039887 21.715152 5.9627918 21.714844 9.1191406 C 21.715152 12.27549 19.156349 14.834292 16 14.833984 C 12.843651 14.834292 10.284848 12.27549 10.285156 9.1191406 C 10.284848 5.9627918 12.843651 3.4039887 16 3.4042969 z M 16 16.238281 A 12.392493 12.392493 0 0 1 27.492188 24.017578 A 13.832599 13.832599 0 0 1 16 30.167969 A 13.832599 13.832599 0 0 1 4.5078125 24.013672 A 12.392493 12.392493 0 0 1 16 16.238281 z "
       id="circle885" />
  </g>
</svg>
